<?xml version="1.0" encoding="utf-8" standalone="no"?>
<!DOCTYPE svg PUBLIC "-//W3C//DTD SVG 1.1//EN"
  "http://www.w3.org/Graphics/SVG/1.1/DTD/svg11.dtd">
<!-- Created with matplotlib (https://matplotlib.org/) -->
<svg height="432pt" version="1.1" viewBox="0 0 648 432" width="648pt" xmlns="http://www.w3.org/2000/svg" xmlns:xlink="http://www.w3.org/1999/xlink">
 <defs>
  <style type="text/css">
*{stroke-linecap:butt;stroke-linejoin:round;white-space:pre;}
  </style>
 </defs>
 <g id="figure_1">
  <g id="patch_1">
   <path d="M 0 432 
L 648 432 
L 648 0 
L 0 0 
z
" style="fill:#ffffff;"/>
  </g>
  <g id="axes_1">
   <g id="patch_2">
    <path d="M 51.84 401.76 
L 635.04 401.76 
L 635.04 4.32 
L 51.84 4.32 
z
" style="fill:#ffffff;"/>
   </g>
   <g id="matplotlib.axis_1">
    <g id="xtick_1">
     <g id="line2d_1">
      <path clip-path="url(#pdeb5baa226)" d="M 51.84 401.76 
L 51.84 4.32 
" style="fill:none;stroke:#b0b0b0;stroke-dasharray:0.8,1.32;stroke-dashoffset:0;stroke-width:0.8;"/>
     </g>
     <g id="line2d_2">
      <defs>
       <path d="M 0 0 
L 0 3.5 
" id="m547d15d48d" style="stroke:#000000;stroke-width:0.8;"/>
      </defs>
      <g>
       <use style="stroke:#000000;stroke-width:0.8;" x="51.84" xlink:href="#m547d15d48d" y="401.76"/>
      </g>
     </g>
     <g id="text_1">
      <!-- 0 -->
      <defs>
       <path d="M 31.78125 66.40625 
Q 24.171875 66.40625 20.328125 58.90625 
Q 16.5 51.421875 16.5 36.375 
Q 16.5 21.390625 20.328125 13.890625 
Q 24.171875 6.390625 31.78125 6.390625 
Q 39.453125 6.390625 43.28125 13.890625 
Q 47.125 21.390625 47.125 36.375 
Q 47.125 51.421875 43.28125 58.90625 
Q 39.453125 66.40625 31.78125 66.40625 
z
M 31.78125 74.21875 
Q 44.046875 74.21875 50.515625 64.515625 
Q 56.984375 54.828125 56.984375 36.375 
Q 56.984375 17.96875 50.515625 8.265625 
Q 44.046875 -1.421875 31.78125 -1.421875 
Q 19.53125 -1.421875 13.0625 8.265625 
Q 6.59375 17.96875 6.59375 36.375 
Q 6.59375 54.828125 13.0625 64.515625 
Q 19.53125 74.21875 31.78125 74.21875 
z
" id="DejaVuSans-48"/>
      </defs>
      <g transform="translate(48.65875 416.358437)scale(0.1 -0.1)">
       <use xlink:href="#DejaVuSans-48"/>
      </g>
     </g>
    </g>
    <g id="xtick_2">
     <g id="line2d_3">
      <path clip-path="url(#pdeb5baa226)" d="M 167.325149 401.76 
L 167.325149 4.32 
" style="fill:none;stroke:#b0b0b0;stroke-dasharray:0.8,1.32;stroke-dashoffset:0;stroke-width:0.8;"/>
     </g>
     <g id="line2d_4">
      <g>
       <use style="stroke:#000000;stroke-width:0.8;" x="167.325149" xlink:href="#m547d15d48d" y="401.76"/>
      </g>
     </g>
     <g id="text_2">
      <!-- 20 -->
      <defs>
       <path d="M 19.1875 8.296875 
L 53.609375 8.296875 
L 53.609375 0 
L 7.328125 0 
L 7.328125 8.296875 
Q 12.9375 14.109375 22.625 23.890625 
Q 32.328125 33.6875 34.8125 36.53125 
Q 39.546875 41.84375 41.421875 45.53125 
Q 43.3125 49.21875 43.3125 52.78125 
Q 43.3125 58.59375 39.234375 62.25 
Q 35.15625 65.921875 28.609375 65.921875 
Q 23.96875 65.921875 18.8125 64.3125 
Q 13.671875 62.703125 7.8125 59.421875 
L 7.8125 69.390625 
Q 13.765625 71.78125 18.9375 73 
Q 24.125 74.21875 28.421875 74.21875 
Q 39.75 74.21875 46.484375 68.546875 
Q 53.21875 62.890625 53.21875 53.421875 
Q 53.21875 48.921875 51.53125 44.890625 
Q 49.859375 40.875 45.40625 35.40625 
Q 44.1875 33.984375 37.640625 27.21875 
Q 31.109375 20.453125 19.1875 8.296875 
z
" id="DejaVuSans-50"/>
      </defs>
      <g transform="translate(160.962649 416.358437)scale(0.1 -0.1)">
       <use xlink:href="#DejaVuSans-50"/>
       <use x="63.623047" xlink:href="#DejaVuSans-48"/>
      </g>
     </g>
    </g>
    <g id="xtick_3">
     <g id="line2d_5">
      <path clip-path="url(#pdeb5baa226)" d="M 282.810297 401.76 
L 282.810297 4.32 
" style="fill:none;stroke:#b0b0b0;stroke-dasharray:0.8,1.32;stroke-dashoffset:0;stroke-width:0.8;"/>
     </g>
     <g id="line2d_6">
      <g>
       <use style="stroke:#000000;stroke-width:0.8;" x="282.810297" xlink:href="#m547d15d48d" y="401.76"/>
      </g>
     </g>
     <g id="text_3">
      <!-- 40 -->
      <defs>
       <path d="M 37.796875 64.3125 
L 12.890625 25.390625 
L 37.796875 25.390625 
z
M 35.203125 72.90625 
L 47.609375 72.90625 
L 47.609375 25.390625 
L 58.015625 25.390625 
L 58.015625 17.1875 
L 47.609375 17.1875 
L 47.609375 0 
L 37.796875 0 
L 37.796875 17.1875 
L 4.890625 17.1875 
L 4.890625 26.703125 
z
" id="DejaVuSans-52"/>
      </defs>
      <g transform="translate(276.447797 416.358437)scale(0.1 -0.1)">
       <use xlink:href="#DejaVuSans-52"/>
       <use x="63.623047" xlink:href="#DejaVuSans-48"/>
      </g>
     </g>
    </g>
    <g id="xtick_4">
     <g id="line2d_7">
      <path clip-path="url(#pdeb5baa226)" d="M 398.295446 401.76 
L 398.295446 4.32 
" style="fill:none;stroke:#b0b0b0;stroke-dasharray:0.8,1.32;stroke-dashoffset:0;stroke-width:0.8;"/>
     </g>
     <g id="line2d_8">
      <g>
       <use style="stroke:#000000;stroke-width:0.8;" x="398.295446" xlink:href="#m547d15d48d" y="401.76"/>
      </g>
     </g>
     <g id="text_4">
      <!-- 60 -->
      <defs>
       <path d="M 33.015625 40.375 
Q 26.375 40.375 22.484375 35.828125 
Q 18.609375 31.296875 18.609375 23.390625 
Q 18.609375 15.53125 22.484375 10.953125 
Q 26.375 6.390625 33.015625 6.390625 
Q 39.65625 6.390625 43.53125 10.953125 
Q 47.40625 15.53125 47.40625 23.390625 
Q 47.40625 31.296875 43.53125 35.828125 
Q 39.65625 40.375 33.015625 40.375 
z
M 52.59375 71.296875 
L 52.59375 62.3125 
Q 48.875 64.0625 45.09375 64.984375 
Q 41.3125 65.921875 37.59375 65.921875 
Q 27.828125 65.921875 22.671875 59.328125 
Q 17.53125 52.734375 16.796875 39.40625 
Q 19.671875 43.65625 24.015625 45.921875 
Q 28.375 48.1875 33.59375 48.1875 
Q 44.578125 48.1875 50.953125 41.515625 
Q 57.328125 34.859375 57.328125 23.390625 
Q 57.328125 12.15625 50.6875 5.359375 
Q 44.046875 -1.421875 33.015625 -1.421875 
Q 20.359375 -1.421875 13.671875 8.265625 
Q 6.984375 17.96875 6.984375 36.375 
Q 6.984375 53.65625 15.1875 63.9375 
Q 23.390625 74.21875 37.203125 74.21875 
Q 40.921875 74.21875 44.703125 73.484375 
Q 48.484375 72.75 52.59375 71.296875 
z
" id="DejaVuSans-54"/>
      </defs>
      <g transform="translate(391.932946 416.358437)scale(0.1 -0.1)">
       <use xlink:href="#DejaVuSans-54"/>
       <use x="63.623047" xlink:href="#DejaVuSans-48"/>
      </g>
     </g>
    </g>
    <g id="xtick_5">
     <g id="line2d_9">
      <path clip-path="url(#pdeb5baa226)" d="M 513.780594 401.76 
L 513.780594 4.32 
" style="fill:none;stroke:#b0b0b0;stroke-dasharray:0.8,1.32;stroke-dashoffset:0;stroke-width:0.8;"/>
     </g>
     <g id="line2d_10">
      <g>
       <use style="stroke:#000000;stroke-width:0.8;" x="513.780594" xlink:href="#m547d15d48d" y="401.76"/>
      </g>
     </g>
     <g id="text_5">
      <!-- 80 -->
      <defs>
       <path d="M 31.78125 34.625 
Q 24.75 34.625 20.71875 30.859375 
Q 16.703125 27.09375 16.703125 20.515625 
Q 16.703125 13.921875 20.71875 10.15625 
Q 24.75 6.390625 31.78125 6.390625 
Q 38.8125 6.390625 42.859375 10.171875 
Q 46.921875 13.96875 46.921875 20.515625 
Q 46.921875 27.09375 42.890625 30.859375 
Q 38.875 34.625 31.78125 34.625 
z
M 21.921875 38.8125 
Q 15.578125 40.375 12.03125 44.71875 
Q 8.5 49.078125 8.5 55.328125 
Q 8.5 64.0625 14.71875 69.140625 
Q 20.953125 74.21875 31.78125 74.21875 
Q 42.671875 74.21875 48.875 69.140625 
Q 55.078125 64.0625 55.078125 55.328125 
Q 55.078125 49.078125 51.53125 44.71875 
Q 48 40.375 41.703125 38.8125 
Q 48.828125 37.15625 52.796875 32.3125 
Q 56.78125 27.484375 56.78125 20.515625 
Q 56.78125 9.90625 50.3125 4.234375 
Q 43.84375 -1.421875 31.78125 -1.421875 
Q 19.734375 -1.421875 13.25 4.234375 
Q 6.78125 9.90625 6.78125 20.515625 
Q 6.78125 27.484375 10.78125 32.3125 
Q 14.796875 37.15625 21.921875 38.8125 
z
M 18.3125 54.390625 
Q 18.3125 48.734375 21.84375 45.5625 
Q 25.390625 42.390625 31.78125 42.390625 
Q 38.140625 42.390625 41.71875 45.5625 
Q 45.3125 48.734375 45.3125 54.390625 
Q 45.3125 60.0625 41.71875 63.234375 
Q 38.140625 66.40625 31.78125 66.40625 
Q 25.390625 66.40625 21.84375 63.234375 
Q 18.3125 60.0625 18.3125 54.390625 
z
" id="DejaVuSans-56"/>
      </defs>
      <g transform="translate(507.418094 416.358437)scale(0.1 -0.1)">
       <use xlink:href="#DejaVuSans-56"/>
       <use x="63.623047" xlink:href="#DejaVuSans-48"/>
      </g>
     </g>
    </g>
    <g id="xtick_6">
     <g id="line2d_11">
      <path clip-path="url(#pdeb5baa226)" d="M 629.265743 401.76 
L 629.265743 4.32 
" style="fill:none;stroke:#b0b0b0;stroke-dasharray:0.8,1.32;stroke-dashoffset:0;stroke-width:0.8;"/>
     </g>
     <g id="line2d_12">
      <g>
       <use style="stroke:#000000;stroke-width:0.8;" x="629.265743" xlink:href="#m547d15d48d" y="401.76"/>
      </g>
     </g>
     <g id="text_6">
      <!-- 100 -->
      <defs>
       <path d="M 12.40625 8.296875 
L 28.515625 8.296875 
L 28.515625 63.921875 
L 10.984375 60.40625 
L 10.984375 69.390625 
L 28.421875 72.90625 
L 38.28125 72.90625 
L 38.28125 8.296875 
L 54.390625 8.296875 
L 54.390625 0 
L 12.40625 0 
z
" id="DejaVuSans-49"/>
      </defs>
      <g transform="translate(619.721993 416.358437)scale(0.1 -0.1)">
       <use xlink:href="#DejaVuSans-49"/>
       <use x="63.623047" xlink:href="#DejaVuSans-48"/>
       <use x="127.246094" xlink:href="#DejaVuSans-48"/>
      </g>
     </g>
    </g>
    <g id="text_7">
     <!-- $\Lambda\ /\ \%$ -->
     <defs>
      <path d="M 11.1875 0 
L 0.78125 0 
L 28.609375 72.90625 
L 39.796875 72.90625 
L 67.578125 0 
L 57.328125 0 
L 34.1875 63.1875 
z
" id="DejaVuSans-923"/>
      <path d="M 25.390625 72.90625 
L 33.6875 72.90625 
L 8.296875 -9.28125 
L 0 -9.28125 
z
" id="DejaVuSans-47"/>
      <path d="M 72.703125 32.078125 
Q 68.453125 32.078125 66.03125 28.46875 
Q 63.625 24.859375 63.625 18.40625 
Q 63.625 12.0625 66.03125 8.421875 
Q 68.453125 4.78125 72.703125 4.78125 
Q 76.859375 4.78125 79.265625 8.421875 
Q 81.6875 12.0625 81.6875 18.40625 
Q 81.6875 24.8125 79.265625 28.4375 
Q 76.859375 32.078125 72.703125 32.078125 
z
M 72.703125 38.28125 
Q 80.421875 38.28125 84.953125 32.90625 
Q 89.5 27.546875 89.5 18.40625 
Q 89.5 9.28125 84.9375 3.921875 
Q 80.375 -1.421875 72.703125 -1.421875 
Q 64.890625 -1.421875 60.34375 3.921875 
Q 55.8125 9.28125 55.8125 18.40625 
Q 55.8125 27.59375 60.375 32.9375 
Q 64.9375 38.28125 72.703125 38.28125 
z
M 22.3125 68.015625 
Q 18.109375 68.015625 15.6875 64.375 
Q 13.28125 60.75 13.28125 54.390625 
Q 13.28125 47.953125 15.671875 44.328125 
Q 18.0625 40.71875 22.3125 40.71875 
Q 26.5625 40.71875 28.96875 44.328125 
Q 31.390625 47.953125 31.390625 54.390625 
Q 31.390625 60.6875 28.953125 64.34375 
Q 26.515625 68.015625 22.3125 68.015625 
z
M 66.40625 74.21875 
L 74.21875 74.21875 
L 28.609375 -1.421875 
L 20.796875 -1.421875 
z
M 22.3125 74.21875 
Q 30.03125 74.21875 34.609375 68.875 
Q 39.203125 63.53125 39.203125 54.390625 
Q 39.203125 45.171875 34.640625 39.84375 
Q 30.078125 34.515625 22.3125 34.515625 
Q 14.546875 34.515625 10.03125 39.859375 
Q 5.515625 45.21875 5.515625 54.390625 
Q 5.515625 63.484375 10.046875 68.84375 
Q 14.59375 74.21875 22.3125 74.21875 
z
" id="DejaVuSans-37"/>
     </defs>
     <g transform="translate(330.29 430.036563)scale(0.1 -0.1)">
      <use transform="translate(0 0.78125)" xlink:href="#DejaVuSans-923"/>
      <use transform="translate(100.878582 0.78125)" xlink:href="#DejaVuSans-47"/>
      <use transform="translate(167.040366 0.78125)" xlink:href="#DejaVuSans-37"/>
     </g>
    </g>
   </g>
   <g id="matplotlib.axis_2">
    <g id="ytick_1">
     <g id="line2d_13">
      <path clip-path="url(#pdeb5baa226)" d="M 51.84 401.76 
L 635.04 401.76 
" style="fill:none;stroke:#b0b0b0;stroke-dasharray:0.8,1.32;stroke-dashoffset:0;stroke-width:0.8;"/>
     </g>
     <g id="line2d_14">
      <defs>
       <path d="M 0 0 
L -3.5 0 
" id="mbfecf2899f" style="stroke:#000000;stroke-width:0.8;"/>
      </defs>
      <g>
       <use style="stroke:#000000;stroke-width:0.8;" x="51.84" xlink:href="#mbfecf2899f" y="401.76"/>
      </g>
     </g>
     <g id="text_8">
      <!-- 0 -->
      <g transform="translate(38.4775 405.559219)scale(0.1 -0.1)">
       <use xlink:href="#DejaVuSans-48"/>
      </g>
     </g>
    </g>
    <g id="ytick_2">
     <g id="line2d_15">
      <path clip-path="url(#pdeb5baa226)" d="M 51.84 322.272 
L 635.04 322.272 
" style="fill:none;stroke:#b0b0b0;stroke-dasharray:0.8,1.32;stroke-dashoffset:0;stroke-width:0.8;"/>
     </g>
     <g id="line2d_16">
      <g>
       <use style="stroke:#000000;stroke-width:0.8;" x="51.84" xlink:href="#mbfecf2899f" y="322.272"/>
      </g>
     </g>
     <g id="text_9">
      <!-- 20 -->
      <g transform="translate(32.115 326.071219)scale(0.1 -0.1)">
       <use xlink:href="#DejaVuSans-50"/>
       <use x="63.623047" xlink:href="#DejaVuSans-48"/>
      </g>
     </g>
    </g>
    <g id="ytick_3">
     <g id="line2d_17">
      <path clip-path="url(#pdeb5baa226)" d="M 51.84 242.784 
L 635.04 242.784 
" style="fill:none;stroke:#b0b0b0;stroke-dasharray:0.8,1.32;stroke-dashoffset:0;stroke-width:0.8;"/>
     </g>
     <g id="line2d_18">
      <g>
       <use style="stroke:#000000;stroke-width:0.8;" x="51.84" xlink:href="#mbfecf2899f" y="242.784"/>
      </g>
     </g>
     <g id="text_10">
      <!-- 40 -->
      <g transform="translate(32.115 246.583219)scale(0.1 -0.1)">
       <use xlink:href="#DejaVuSans-52"/>
       <use x="63.623047" xlink:href="#DejaVuSans-48"/>
      </g>
     </g>
    </g>
    <g id="ytick_4">
     <g id="line2d_19">
      <path clip-path="url(#pdeb5baa226)" d="M 51.84 163.296 
L 635.04 163.296 
" style="fill:none;stroke:#b0b0b0;stroke-dasharray:0.8,1.32;stroke-dashoffset:0;stroke-width:0.8;"/>
     </g>
     <g id="line2d_20">
      <g>
       <use style="stroke:#000000;stroke-width:0.8;" x="51.84" xlink:href="#mbfecf2899f" y="163.296"/>
      </g>
     </g>
     <g id="text_11">
      <!-- 60 -->
      <g transform="translate(32.115 167.095219)scale(0.1 -0.1)">
       <use xlink:href="#DejaVuSans-54"/>
       <use x="63.623047" xlink:href="#DejaVuSans-48"/>
      </g>
     </g>
    </g>
    <g id="ytick_5">
     <g id="line2d_21">
      <path clip-path="url(#pdeb5baa226)" d="M 51.84 83.808 
L 635.04 83.808 
" style="fill:none;stroke:#b0b0b0;stroke-dasharray:0.8,1.32;stroke-dashoffset:0;stroke-width:0.8;"/>
     </g>
     <g id="line2d_22">
      <g>
       <use style="stroke:#000000;stroke-width:0.8;" x="51.84" xlink:href="#mbfecf2899f" y="83.808"/>
      </g>
     </g>
     <g id="text_12">
      <!-- 80 -->
      <g transform="translate(32.115 87.607219)scale(0.1 -0.1)">
       <use xlink:href="#DejaVuSans-56"/>
       <use x="63.623047" xlink:href="#DejaVuSans-48"/>
      </g>
     </g>
    </g>
    <g id="ytick_6">
     <g id="line2d_23">
      <path clip-path="url(#pdeb5baa226)" d="M 51.84 4.32 
L 635.04 4.32 
" style="fill:none;stroke:#b0b0b0;stroke-dasharray:0.8,1.32;stroke-dashoffset:0;stroke-width:0.8;"/>
     </g>
     <g id="line2d_24">
      <g>
       <use style="stroke:#000000;stroke-width:0.8;" x="51.84" xlink:href="#mbfecf2899f" y="4.32"/>
      </g>
     </g>
     <g id="text_13">
      <!-- 100 -->
      <g transform="translate(25.7525 8.119219)scale(0.1 -0.1)">
       <use xlink:href="#DejaVuSans-49"/>
       <use x="63.623047" xlink:href="#DejaVuSans-48"/>
       <use x="127.246094" xlink:href="#DejaVuSans-48"/>
      </g>
     </g>
    </g>
    <g id="text_14">
     <!-- $R_t\ /\ \%$ -->
     <defs>
      <path d="M 25.203125 64.796875 
L 20.21875 38.921875 
L 32.90625 38.921875 
Q 40.375 38.921875 44.984375 43.046875 
Q 49.609375 47.171875 49.609375 53.8125 
Q 49.609375 59.125 46.5 61.953125 
Q 43.40625 64.796875 37.59375 64.796875 
z
M 43.3125 35.015625 
Q 46.4375 34.28125 48.515625 31.390625 
Q 50.59375 28.515625 53.328125 19.921875 
L 59.515625 0 
L 49.125 0 
L 43.40625 18.703125 
Q 41.21875 25.921875 38.328125 28.359375 
Q 35.453125 30.8125 29.5 30.8125 
L 18.609375 30.8125 
L 12.59375 0 
L 2.6875 0 
L 16.890625 72.90625 
L 39.109375 72.90625 
Q 49.21875 72.90625 54.609375 68.328125 
Q 60.015625 63.765625 60.015625 55.171875 
Q 60.015625 47.5625 55.421875 41.984375 
Q 50.828125 36.421875 43.3125 35.015625 
z
" id="DejaVuSans-Oblique-82"/>
      <path d="M 42.28125 54.6875 
L 40.921875 47.703125 
L 23 47.703125 
L 17.1875 18.015625 
Q 16.890625 16.359375 16.75 15.234375 
Q 16.609375 14.109375 16.609375 13.484375 
Q 16.609375 10.359375 18.484375 8.9375 
Q 20.359375 7.515625 24.515625 7.515625 
L 33.59375 7.515625 
L 32.078125 0 
L 23.484375 0 
Q 15.484375 0 11.546875 3.125 
Q 7.625 6.25 7.625 12.59375 
Q 7.625 13.71875 7.765625 15.0625 
Q 7.90625 16.40625 8.203125 18.015625 
L 14.015625 47.703125 
L 6.390625 47.703125 
L 7.8125 54.6875 
L 15.28125 54.6875 
L 18.3125 70.21875 
L 27.296875 70.21875 
L 24.3125 54.6875 
z
" id="DejaVuSans-Oblique-116"/>
     </defs>
     <g transform="translate(19.672812 217.74)rotate(-90)scale(0.1 -0.1)">
      <use transform="translate(0 0.78125)" xlink:href="#DejaVuSans-Oblique-82"/>
      <use transform="translate(69.482422 -15.625)scale(0.7)" xlink:href="#DejaVuSans-Oblique-116"/>
      <use transform="translate(132.133464 0.78125)" xlink:href="#DejaVuSans-47"/>
      <use transform="translate(198.295249 0.78125)" xlink:href="#DejaVuSans-37"/>
     </g>
    </g>
   </g>
   <g id="LineCollection_1">
    <path clip-path="url(#pdeb5baa226)" d="M 80.711287 280.647543 
L 80.711287 280.647543 
" style="fill:none;stroke:#ff0000;stroke-width:0.8;"/>
    <path clip-path="url(#pdeb5baa226)" d="M 109.582574 276.008527 
L 109.582574 276.008527 
" style="fill:none;stroke:#ff0000;stroke-width:0.8;"/>
    <path clip-path="url(#pdeb5baa226)" d="M 138.453861 273.917254 
L 138.453861 273.917254 
" style="fill:none;stroke:#ff0000;stroke-width:0.8;"/>
    <path clip-path="url(#pdeb5baa226)" d="M 167.325149 277.458694 
L 167.325149 277.458694 
" style="fill:none;stroke:#ff0000;stroke-width:0.8;"/>
    <path clip-path="url(#pdeb5baa226)" d="M 196.196436 268.970009 
L 196.196436 268.970009 
" style="fill:none;stroke:#ff0000;stroke-width:0.8;"/>
    <path clip-path="url(#pdeb5baa226)" d="M 225.067723 256.990558 
L 225.067723 256.990558 
" style="fill:none;stroke:#ff0000;stroke-width:0.8;"/>
    <path clip-path="url(#pdeb5baa226)" d="M 253.93901 268.587518 
L 253.93901 268.587518 
" style="fill:none;stroke:#ff0000;stroke-width:0.8;"/>
    <path clip-path="url(#pdeb5baa226)" d="M 282.810297 261.216417 
L 282.810297 261.216417 
" style="fill:none;stroke:#ff0000;stroke-width:0.8;"/>
    <path clip-path="url(#pdeb5baa226)" d="M 311.681584 258.413403 
L 311.681584 258.413403 
" style="fill:none;stroke:#ff0000;stroke-width:0.8;"/>
    <path clip-path="url(#pdeb5baa226)" d="M 340.552871 247.42827 
L 340.552871 247.42827 
" style="fill:none;stroke:#ff0000;stroke-width:0.8;"/>
    <path clip-path="url(#pdeb5baa226)" d="M 369.424158 252.783481 
L 369.424158 252.783481 
" style="fill:none;stroke:#ff0000;stroke-width:0.8;"/>
    <path clip-path="url(#pdeb5baa226)" d="M 398.295446 243.331468 
L 398.295446 243.331468 
" style="fill:none;stroke:#ff0000;stroke-width:0.8;"/>
    <path clip-path="url(#pdeb5baa226)" d="M 427.166733 227.075816 
L 427.166733 227.075816 
" style="fill:none;stroke:#ff0000;stroke-width:0.8;"/>
    <path clip-path="url(#pdeb5baa226)" d="M 456.03802 234.515373 
L 456.03802 234.515373 
" style="fill:none;stroke:#ff0000;stroke-width:0.8;"/>
    <path clip-path="url(#pdeb5baa226)" d="M 484.909307 250.465055 
L 484.909307 250.465055 
" style="fill:none;stroke:#ff0000;stroke-width:0.8;"/>
    <path clip-path="url(#pdeb5baa226)" d="M 513.780594 228.909624 
L 513.780594 228.909624 
" style="fill:none;stroke:#ff0000;stroke-width:0.8;"/>
    <path clip-path="url(#pdeb5baa226)" d="M 542.651881 226.220222 
L 542.651881 226.220222 
" style="fill:none;stroke:#ff0000;stroke-width:0.8;"/>
    <path clip-path="url(#pdeb5baa226)" d="M 571.523168 230.184648 
L 571.523168 230.184648 
" style="fill:none;stroke:#ff0000;stroke-width:0.8;"/>
    <path clip-path="url(#pdeb5baa226)" d="M 600.394455 218.786529 
L 600.394455 218.786529 
" style="fill:none;stroke:#ff0000;stroke-width:0.8;"/>
    <path clip-path="url(#pdeb5baa226)" d="M 629.265743 214.756769 
L 629.265743 214.756769 
" style="fill:none;stroke:#ff0000;stroke-width:0.8;"/>
   </g>
   <g id="LineCollection_2">
    <path clip-path="url(#pdeb5baa226)" d="M 80.711287 343.405803 
L 80.711287 217.889283 
" style="fill:none;stroke:#ff0000;stroke-width:0.8;"/>
    <path clip-path="url(#pdeb5baa226)" d="M 109.582574 356.546053 
L 109.582574 195.471001 
" style="fill:none;stroke:#ff0000;stroke-width:0.8;"/>
    <path clip-path="url(#pdeb5baa226)" d="M 138.453861 345.719644 
L 138.453861 202.114864 
" style="fill:none;stroke:#ff0000;stroke-width:0.8;"/>
    <path clip-path="url(#pdeb5baa226)" d="M 167.325149 347.89917 
L 167.325149 207.018218 
" style="fill:none;stroke:#ff0000;stroke-width:0.8;"/>
    <path clip-path="url(#pdeb5baa226)" d="M 196.196436 344.404284 
L 196.196436 193.535735 
" style="fill:none;stroke:#ff0000;stroke-width:0.8;"/>
    <path clip-path="url(#pdeb5baa226)" d="M 225.067723 345.594048 
L 225.067723 168.387068 
" style="fill:none;stroke:#ff0000;stroke-width:0.8;"/>
    <path clip-path="url(#pdeb5baa226)" d="M 253.93901 339.356483 
L 253.93901 197.818553 
" style="fill:none;stroke:#ff0000;stroke-width:0.8;"/>
    <path clip-path="url(#pdeb5baa226)" d="M 282.810297 343.488405 
L 282.810297 178.94443 
" style="fill:none;stroke:#ff0000;stroke-width:0.8;"/>
    <path clip-path="url(#pdeb5baa226)" d="M 311.681584 356.450632 
L 311.681584 160.376174 
" style="fill:none;stroke:#ff0000;stroke-width:0.8;"/>
    <path clip-path="url(#pdeb5baa226)" d="M 340.552871 337.303641 
L 340.552871 157.5529 
" style="fill:none;stroke:#ff0000;stroke-width:0.8;"/>
    <path clip-path="url(#pdeb5baa226)" d="M 369.424158 351.26187 
L 369.424158 154.305091 
" style="fill:none;stroke:#ff0000;stroke-width:0.8;"/>
    <path clip-path="url(#pdeb5baa226)" d="M 398.295446 322.771825 
L 398.295446 163.891111 
" style="fill:none;stroke:#ff0000;stroke-width:0.8;"/>
    <path clip-path="url(#pdeb5baa226)" d="M 427.166733 327.706053 
L 427.166733 126.445579 
" style="fill:none;stroke:#ff0000;stroke-width:0.8;"/>
    <path clip-path="url(#pdeb5baa226)" d="M 456.03802 359.673401 
L 456.03802 109.357344 
" style="fill:none;stroke:#ff0000;stroke-width:0.8;"/>
    <path clip-path="url(#pdeb5baa226)" d="M 484.909307 357.447271 
L 484.909307 143.482839 
" style="fill:none;stroke:#ff0000;stroke-width:0.8;"/>
    <path clip-path="url(#pdeb5baa226)" d="M 513.780594 330.618611 
L 513.780594 127.200637 
" style="fill:none;stroke:#ff0000;stroke-width:0.8;"/>
    <path clip-path="url(#pdeb5baa226)" d="M 542.651881 336.076135 
L 542.651881 116.364309 
" style="fill:none;stroke:#ff0000;stroke-width:0.8;"/>
    <path clip-path="url(#pdeb5baa226)" d="M 571.523168 328.746157 
L 571.523168 131.623139 
" style="fill:none;stroke:#ff0000;stroke-width:0.8;"/>
    <path clip-path="url(#pdeb5baa226)" d="M 600.394455 311.087374 
L 600.394455 126.485683 
" style="fill:none;stroke:#ff0000;stroke-width:0.8;"/>
    <path clip-path="url(#pdeb5baa226)" d="M 629.265743 332.883644 
L 629.265743 96.629894 
" style="fill:none;stroke:#ff0000;stroke-width:0.8;"/>
   </g>
   <g id="LineCollection_3">
    <path clip-path="url(#pdeb5baa226)" d="M 80.711287 318.607759 
L 80.711287 318.607759 
" style="fill:none;stroke:#008000;stroke-width:0.8;"/>
    <path clip-path="url(#pdeb5baa226)" d="M 109.582574 318.433079 
L 109.582574 318.433079 
" style="fill:none;stroke:#008000;stroke-width:0.8;"/>
    <path clip-path="url(#pdeb5baa226)" d="M 138.453861 315.038556 
L 138.453861 315.038556 
" style="fill:none;stroke:#008000;stroke-width:0.8;"/>
    <path clip-path="url(#pdeb5baa226)" d="M 167.325149 320.105199 
L 167.325149 320.105199 
" style="fill:none;stroke:#008000;stroke-width:0.8;"/>
    <path clip-path="url(#pdeb5baa226)" d="M 196.196436 324.591259 
L 196.196436 324.591259 
" style="fill:none;stroke:#008000;stroke-width:0.8;"/>
    <path clip-path="url(#pdeb5baa226)" d="M 225.067723 310.54028 
L 225.067723 310.54028 
" style="fill:none;stroke:#008000;stroke-width:0.8;"/>
    <path clip-path="url(#pdeb5baa226)" d="M 253.93901 324.03228 
L 253.93901 324.03228 
" style="fill:none;stroke:#008000;stroke-width:0.8;"/>
    <path clip-path="url(#pdeb5baa226)" d="M 282.810297 315.009485 
L 282.810297 315.009485 
" style="fill:none;stroke:#008000;stroke-width:0.8;"/>
    <path clip-path="url(#pdeb5baa226)" d="M 311.681584 313.034587 
L 311.681584 313.034587 
" style="fill:none;stroke:#008000;stroke-width:0.8;"/>
    <path clip-path="url(#pdeb5baa226)" d="M 340.552871 321.059114 
L 340.552871 321.059114 
" style="fill:none;stroke:#008000;stroke-width:0.8;"/>
    <path clip-path="url(#pdeb5baa226)" d="M 369.424158 315.405203 
L 369.424158 315.405203 
" style="fill:none;stroke:#008000;stroke-width:0.8;"/>
    <path clip-path="url(#pdeb5baa226)" d="M 398.295446 314.49715 
L 398.295446 314.49715 
" style="fill:none;stroke:#008000;stroke-width:0.8;"/>
    <path clip-path="url(#pdeb5baa226)" d="M 427.166733 300.495131 
L 427.166733 300.495131 
" style="fill:none;stroke:#008000;stroke-width:0.8;"/>
    <path clip-path="url(#pdeb5baa226)" d="M 456.03802 307.567296 
L 456.03802 307.567296 
" style="fill:none;stroke:#008000;stroke-width:0.8;"/>
    <path clip-path="url(#pdeb5baa226)" d="M 484.909307 320.067836 
L 484.909307 320.067836 
" style="fill:none;stroke:#008000;stroke-width:0.8;"/>
    <path clip-path="url(#pdeb5baa226)" d="M 513.780594 315.612293 
L 513.780594 315.612293 
" style="fill:none;stroke:#008000;stroke-width:0.8;"/>
    <path clip-path="url(#pdeb5baa226)" d="M 542.651881 307.66951 
L 542.651881 307.66951 
" style="fill:none;stroke:#008000;stroke-width:0.8;"/>
    <path clip-path="url(#pdeb5baa226)" d="M 571.523168 313.595307 
L 571.523168 313.595307 
" style="fill:none;stroke:#008000;stroke-width:0.8;"/>
    <path clip-path="url(#pdeb5baa226)" d="M 600.394455 311.113302 
L 600.394455 311.113302 
" style="fill:none;stroke:#008000;stroke-width:0.8;"/>
    <path clip-path="url(#pdeb5baa226)" d="M 629.265743 303.1874 
L 629.265743 303.1874 
" style="fill:none;stroke:#008000;stroke-width:0.8;"/>
   </g>
   <g id="LineCollection_4">
    <path clip-path="url(#pdeb5baa226)" d="M 80.711287 388.733608 
L 80.711287 248.48191 
" style="fill:none;stroke:#008000;stroke-width:0.8;"/>
    <path clip-path="url(#pdeb5baa226)" d="M 109.582574 401.819068 
L 109.582574 235.04709 
" style="fill:none;stroke:#008000;stroke-width:0.8;"/>
    <path clip-path="url(#pdeb5baa226)" d="M 138.453861 385.02366 
L 138.453861 245.053453 
" style="fill:none;stroke:#008000;stroke-width:0.8;"/>
    <path clip-path="url(#pdeb5baa226)" d="M 167.325149 390.930423 
L 167.325149 249.279976 
" style="fill:none;stroke:#008000;stroke-width:0.8;"/>
    <path clip-path="url(#pdeb5baa226)" d="M 196.196436 389.144134 
L 196.196436 260.038384 
" style="fill:none;stroke:#008000;stroke-width:0.8;"/>
    <path clip-path="url(#pdeb5baa226)" d="M 225.067723 375.702143 
L 225.067723 245.378416 
" style="fill:none;stroke:#008000;stroke-width:0.8;"/>
    <path clip-path="url(#pdeb5baa226)" d="M 253.93901 372.575482 
L 253.93901 275.489078 
" style="fill:none;stroke:#008000;stroke-width:0.8;"/>
    <path clip-path="url(#pdeb5baa226)" d="M 282.810297 380.542678 
L 282.810297 249.476291 
" style="fill:none;stroke:#008000;stroke-width:0.8;"/>
    <path clip-path="url(#pdeb5baa226)" d="M 311.681584 389.393143 
L 311.681584 236.67603 
" style="fill:none;stroke:#008000;stroke-width:0.8;"/>
    <path clip-path="url(#pdeb5baa226)" d="M 340.552871 375.913838 
L 340.552871 266.204389 
" style="fill:none;stroke:#008000;stroke-width:0.8;"/>
    <path clip-path="url(#pdeb5baa226)" d="M 369.424158 376.847813 
L 369.424158 253.962594 
" style="fill:none;stroke:#008000;stroke-width:0.8;"/>
    <path clip-path="url(#pdeb5baa226)" d="M 398.295446 385.384528 
L 398.295446 243.609772 
" style="fill:none;stroke:#008000;stroke-width:0.8;"/>
    <path clip-path="url(#pdeb5baa226)" d="M 427.166733 385.00811 
L 427.166733 215.982151 
" style="fill:none;stroke:#008000;stroke-width:0.8;"/>
    <path clip-path="url(#pdeb5baa226)" d="M 456.03802 433 
L 456.03802 162.347058 
" style="fill:none;stroke:#008000;stroke-width:0.8;"/>
    <path clip-path="url(#pdeb5baa226)" d="M 484.909307 387.059508 
L 484.909307 253.076163 
" style="fill:none;stroke:#008000;stroke-width:0.8;"/>
    <path clip-path="url(#pdeb5baa226)" d="M 513.780594 379.332034 
L 513.780594 251.892552 
" style="fill:none;stroke:#008000;stroke-width:0.8;"/>
    <path clip-path="url(#pdeb5baa226)" d="M 542.651881 373.778444 
L 542.651881 241.560576 
" style="fill:none;stroke:#008000;stroke-width:0.8;"/>
    <path clip-path="url(#pdeb5baa226)" d="M 571.523168 377.675248 
L 571.523168 249.515366 
" style="fill:none;stroke:#008000;stroke-width:0.8;"/>
    <path clip-path="url(#pdeb5baa226)" d="M 600.394455 361.957971 
L 600.394455 260.268633 
" style="fill:none;stroke:#008000;stroke-width:0.8;"/>
    <path clip-path="url(#pdeb5baa226)" d="M 629.265743 427.509171 
L 629.265743 178.865628 
" style="fill:none;stroke:#008000;stroke-width:0.8;"/>
   </g>
   <g id="LineCollection_5">
    <path clip-path="url(#pdeb5baa226)" d="M 80.711287 329.208663 
L 80.711287 329.208663 
" style="fill:none;stroke:#0000ff;stroke-width:0.8;"/>
    <path clip-path="url(#pdeb5baa226)" d="M 109.582574 333.888047 
L 109.582574 333.888047 
" style="fill:none;stroke:#0000ff;stroke-width:0.8;"/>
    <path clip-path="url(#pdeb5baa226)" d="M 138.453861 318.336272 
L 138.453861 318.336272 
" style="fill:none;stroke:#0000ff;stroke-width:0.8;"/>
    <path clip-path="url(#pdeb5baa226)" d="M 167.325149 333.966781 
L 167.325149 333.966781 
" style="fill:none;stroke:#0000ff;stroke-width:0.8;"/>
    <path clip-path="url(#pdeb5baa226)" d="M 196.196436 344.975227 
L 196.196436 344.975227 
" style="fill:none;stroke:#0000ff;stroke-width:0.8;"/>
    <path clip-path="url(#pdeb5baa226)" d="M 225.067723 319.277256 
L 225.067723 319.277256 
" style="fill:none;stroke:#0000ff;stroke-width:0.8;"/>
    <path clip-path="url(#pdeb5baa226)" d="M 253.93901 340.927816 
L 253.93901 340.927816 
" style="fill:none;stroke:#0000ff;stroke-width:0.8;"/>
    <path clip-path="url(#pdeb5baa226)" d="M 282.810297 340.149738 
L 282.810297 340.149738 
" style="fill:none;stroke:#0000ff;stroke-width:0.8;"/>
    <path clip-path="url(#pdeb5baa226)" d="M 311.681584 322.650115 
L 311.681584 322.650115 
" style="fill:none;stroke:#0000ff;stroke-width:0.8;"/>
    <path clip-path="url(#pdeb5baa226)" d="M 340.552871 329.443778 
L 340.552871 329.443778 
" style="fill:none;stroke:#0000ff;stroke-width:0.8;"/>
    <path clip-path="url(#pdeb5baa226)" d="M 369.424158 324.483032 
L 369.424158 324.483032 
" style="fill:none;stroke:#0000ff;stroke-width:0.8;"/>
    <path clip-path="url(#pdeb5baa226)" d="M 398.295446 322.587917 
L 398.295446 322.587917 
" style="fill:none;stroke:#0000ff;stroke-width:0.8;"/>
    <path clip-path="url(#pdeb5baa226)" d="M 427.166733 321.7585 
L 427.166733 321.7585 
" style="fill:none;stroke:#0000ff;stroke-width:0.8;"/>
    <path clip-path="url(#pdeb5baa226)" d="M 456.03802 330.360093 
L 456.03802 330.360093 
" style="fill:none;stroke:#0000ff;stroke-width:0.8;"/>
    <path clip-path="url(#pdeb5baa226)" d="M 484.909307 321.269672 
L 484.909307 321.269672 
" style="fill:none;stroke:#0000ff;stroke-width:0.8;"/>
    <path clip-path="url(#pdeb5baa226)" d="M 513.780594 322.406348 
L 513.780594 322.406348 
" style="fill:none;stroke:#0000ff;stroke-width:0.8;"/>
    <path clip-path="url(#pdeb5baa226)" d="M 542.651881 326.502578 
L 542.651881 326.502578 
" style="fill:none;stroke:#0000ff;stroke-width:0.8;"/>
    <path clip-path="url(#pdeb5baa226)" d="M 571.523168 327.446372 
L 571.523168 327.446372 
" style="fill:none;stroke:#0000ff;stroke-width:0.8;"/>
    <path clip-path="url(#pdeb5baa226)" d="M 600.394455 329.03834 
L 600.394455 329.03834 
" style="fill:none;stroke:#0000ff;stroke-width:0.8;"/>
    <path clip-path="url(#pdeb5baa226)" d="M 629.265743 325.778346 
L 629.265743 325.778346 
" style="fill:none;stroke:#0000ff;stroke-width:0.8;"/>
   </g>
   <g id="LineCollection_6">
    <path clip-path="url(#pdeb5baa226)" d="M 80.711287 393.322901 
L 80.711287 265.094425 
" style="fill:none;stroke:#0000ff;stroke-width:0.8;"/>
    <path clip-path="url(#pdeb5baa226)" d="M 109.582574 402.411738 
L 109.582574 265.364356 
" style="fill:none;stroke:#0000ff;stroke-width:0.8;"/>
    <path clip-path="url(#pdeb5baa226)" d="M 138.453861 424.229016 
L 138.453861 212.443529 
" style="fill:none;stroke:#0000ff;stroke-width:0.8;"/>
    <path clip-path="url(#pdeb5baa226)" d="M 167.325149 386.980865 
L 167.325149 280.952696 
" style="fill:none;stroke:#0000ff;stroke-width:0.8;"/>
    <path clip-path="url(#pdeb5baa226)" d="M 196.196436 384.032605 
L 196.196436 305.917849 
" style="fill:none;stroke:#0000ff;stroke-width:0.8;"/>
    <path clip-path="url(#pdeb5baa226)" d="M 225.067723 388.613183 
L 225.067723 249.941328 
" style="fill:none;stroke:#0000ff;stroke-width:0.8;"/>
    <path clip-path="url(#pdeb5baa226)" d="M 253.93901 387.082 
L 253.93901 294.773633 
" style="fill:none;stroke:#0000ff;stroke-width:0.8;"/>
    <path clip-path="url(#pdeb5baa226)" d="M 282.810297 383.561661 
L 282.810297 296.737815 
" style="fill:none;stroke:#0000ff;stroke-width:0.8;"/>
    <path clip-path="url(#pdeb5baa226)" d="M 311.681584 403.453724 
L 311.681584 241.846507 
" style="fill:none;stroke:#0000ff;stroke-width:0.8;"/>
    <path clip-path="url(#pdeb5baa226)" d="M 340.552871 385.009304 
L 340.552871 273.878252 
" style="fill:none;stroke:#0000ff;stroke-width:0.8;"/>
    <path clip-path="url(#pdeb5baa226)" d="M 369.424158 389.259383 
L 369.424158 259.70668 
" style="fill:none;stroke:#0000ff;stroke-width:0.8;"/>
    <path clip-path="url(#pdeb5baa226)" d="M 398.295446 383.102237 
L 398.295446 262.073597 
" style="fill:none;stroke:#0000ff;stroke-width:0.8;"/>
    <path clip-path="url(#pdeb5baa226)" d="M 427.166733 398.206627 
L 427.166733 245.310372 
" style="fill:none;stroke:#0000ff;stroke-width:0.8;"/>
    <path clip-path="url(#pdeb5baa226)" d="M 456.03802 386.1408 
L 456.03802 274.579387 
" style="fill:none;stroke:#0000ff;stroke-width:0.8;"/>
    <path clip-path="url(#pdeb5baa226)" d="M 484.909307 391.735526 
L 484.909307 250.803818 
" style="fill:none;stroke:#0000ff;stroke-width:0.8;"/>
    <path clip-path="url(#pdeb5baa226)" d="M 513.780594 397.876874 
L 513.780594 246.935822 
" style="fill:none;stroke:#0000ff;stroke-width:0.8;"/>
    <path clip-path="url(#pdeb5baa226)" d="M 542.651881 379.07961 
L 542.651881 273.925545 
" style="fill:none;stroke:#0000ff;stroke-width:0.8;"/>
    <path clip-path="url(#pdeb5baa226)" d="M 571.523168 397.563581 
L 571.523168 257.329163 
" style="fill:none;stroke:#0000ff;stroke-width:0.8;"/>
    <path clip-path="url(#pdeb5baa226)" d="M 600.394455 386.707554 
L 600.394455 271.369125 
" style="fill:none;stroke:#0000ff;stroke-width:0.8;"/>
    <path clip-path="url(#pdeb5baa226)" d="M 629.265743 372.698996 
L 629.265743 278.857695 
" style="fill:none;stroke:#0000ff;stroke-width:0.8;"/>
   </g>
   <g id="line2d_25">
    <path clip-path="url(#pdeb5baa226)" d="M 80.711287 280.647543 
L 109.582574 276.008527 
L 138.453861 273.917254 
L 167.325149 277.458694 
L 196.196436 268.970009 
L 225.067723 256.990558 
L 253.93901 268.587518 
L 282.810297 261.216417 
L 311.681584 258.413403 
L 340.552871 247.42827 
L 369.424158 252.783481 
L 398.295446 243.331468 
L 427.166733 227.075816 
L 456.03802 234.515373 
L 484.909307 250.465055 
L 513.780594 228.909624 
L 542.651881 226.220222 
L 571.523168 230.184648 
L 600.394455 218.786529 
L 629.265743 214.756769 
" style="fill:none;stroke:#ff0000;stroke-linecap:square;stroke-width:0.8;"/>
    <defs>
     <path d="M 0 3 
C 0.795609 3 1.55874 2.683901 2.12132 2.12132 
C 2.683901 1.55874 3 0.795609 3 0 
C 3 -0.795609 2.683901 -1.55874 2.12132 -2.12132 
C 1.55874 -2.683901 0.795609 -3 0 -3 
C -0.795609 -3 -1.55874 -2.683901 -2.12132 -2.12132 
C -2.683901 -1.55874 -3 -0.795609 -3 0 
C -3 0.795609 -2.683901 1.55874 -2.12132 2.12132 
C -1.55874 2.683901 -0.795609 3 0 3 
z
" id="mfe8fab8d4e" style="stroke:#ff0000;"/>
    </defs>
    <g clip-path="url(#pdeb5baa226)">
     <use style="fill-opacity:0;stroke:#ff0000;" x="80.711287" xlink:href="#mfe8fab8d4e" y="280.647543"/>
     <use style="fill-opacity:0;stroke:#ff0000;" x="109.582574" xlink:href="#mfe8fab8d4e" y="276.008527"/>
     <use style="fill-opacity:0;stroke:#ff0000;" x="138.453861" xlink:href="#mfe8fab8d4e" y="273.917254"/>
     <use style="fill-opacity:0;stroke:#ff0000;" x="167.325149" xlink:href="#mfe8fab8d4e" y="277.458694"/>
     <use style="fill-opacity:0;stroke:#ff0000;" x="196.196436" xlink:href="#mfe8fab8d4e" y="268.970009"/>
     <use style="fill-opacity:0;stroke:#ff0000;" x="225.067723" xlink:href="#mfe8fab8d4e" y="256.990558"/>
     <use style="fill-opacity:0;stroke:#ff0000;" x="253.93901" xlink:href="#mfe8fab8d4e" y="268.587518"/>
     <use style="fill-opacity:0;stroke:#ff0000;" x="282.810297" xlink:href="#mfe8fab8d4e" y="261.216417"/>
     <use style="fill-opacity:0;stroke:#ff0000;" x="311.681584" xlink:href="#mfe8fab8d4e" y="258.413403"/>
     <use style="fill-opacity:0;stroke:#ff0000;" x="340.552871" xlink:href="#mfe8fab8d4e" y="247.42827"/>
     <use style="fill-opacity:0;stroke:#ff0000;" x="369.424158" xlink:href="#mfe8fab8d4e" y="252.783481"/>
     <use style="fill-opacity:0;stroke:#ff0000;" x="398.295446" xlink:href="#mfe8fab8d4e" y="243.331468"/>
     <use style="fill-opacity:0;stroke:#ff0000;" x="427.166733" xlink:href="#mfe8fab8d4e" y="227.075816"/>
     <use style="fill-opacity:0;stroke:#ff0000;" x="456.03802" xlink:href="#mfe8fab8d4e" y="234.515373"/>
     <use style="fill-opacity:0;stroke:#ff0000;" x="484.909307" xlink:href="#mfe8fab8d4e" y="250.465055"/>
     <use style="fill-opacity:0;stroke:#ff0000;" x="513.780594" xlink:href="#mfe8fab8d4e" y="228.909624"/>
     <use style="fill-opacity:0;stroke:#ff0000;" x="542.651881" xlink:href="#mfe8fab8d4e" y="226.220222"/>
     <use style="fill-opacity:0;stroke:#ff0000;" x="571.523168" xlink:href="#mfe8fab8d4e" y="230.184648"/>
     <use style="fill-opacity:0;stroke:#ff0000;" x="600.394455" xlink:href="#mfe8fab8d4e" y="218.786529"/>
     <use style="fill-opacity:0;stroke:#ff0000;" x="629.265743" xlink:href="#mfe8fab8d4e" y="214.756769"/>
    </g>
   </g>
   <g id="line2d_26">
    <path clip-path="url(#pdeb5baa226)" d="M 80.711287 318.607759 
L 109.582574 318.433079 
L 138.453861 315.038556 
L 167.325149 320.105199 
L 196.196436 324.591259 
L 225.067723 310.54028 
L 253.93901 324.03228 
L 282.810297 315.009485 
L 311.681584 313.034587 
L 340.552871 321.059114 
L 369.424158 315.405203 
L 398.295446 314.49715 
L 427.166733 300.495131 
L 456.03802 307.567296 
L 484.909307 320.067836 
L 513.780594 315.612293 
L 542.651881 307.66951 
L 571.523168 313.595307 
L 600.394455 311.113302 
L 629.265743 303.1874 
" style="fill:none;stroke:#008000;stroke-linecap:square;stroke-width:0.8;"/>
    <defs>
     <path d="M 0 3 
C 0.795609 3 1.55874 2.683901 2.12132 2.12132 
C 2.683901 1.55874 3 0.795609 3 0 
C 3 -0.795609 2.683901 -1.55874 2.12132 -2.12132 
C 1.55874 -2.683901 0.795609 -3 0 -3 
C -0.795609 -3 -1.55874 -2.683901 -2.12132 -2.12132 
C -2.683901 -1.55874 -3 -0.795609 -3 0 
C -3 0.795609 -2.683901 1.55874 -2.12132 2.12132 
C -1.55874 2.683901 -0.795609 3 0 3 
z
" id="m8fd129b592" style="stroke:#008000;"/>
    </defs>
    <g clip-path="url(#pdeb5baa226)">
     <use style="fill-opacity:0;stroke:#008000;" x="80.711287" xlink:href="#m8fd129b592" y="318.607759"/>
     <use style="fill-opacity:0;stroke:#008000;" x="109.582574" xlink:href="#m8fd129b592" y="318.433079"/>
     <use style="fill-opacity:0;stroke:#008000;" x="138.453861" xlink:href="#m8fd129b592" y="315.038556"/>
     <use style="fill-opacity:0;stroke:#008000;" x="167.325149" xlink:href="#m8fd129b592" y="320.105199"/>
     <use style="fill-opacity:0;stroke:#008000;" x="196.196436" xlink:href="#m8fd129b592" y="324.591259"/>
     <use style="fill-opacity:0;stroke:#008000;" x="225.067723" xlink:href="#m8fd129b592" y="310.54028"/>
     <use style="fill-opacity:0;stroke:#008000;" x="253.93901" xlink:href="#m8fd129b592" y="324.03228"/>
     <use style="fill-opacity:0;stroke:#008000;" x="282.810297" xlink:href="#m8fd129b592" y="315.009485"/>
     <use style="fill-opacity:0;stroke:#008000;" x="311.681584" xlink:href="#m8fd129b592" y="313.034587"/>
     <use style="fill-opacity:0;stroke:#008000;" x="340.552871" xlink:href="#m8fd129b592" y="321.059114"/>
     <use style="fill-opacity:0;stroke:#008000;" x="369.424158" xlink:href="#m8fd129b592" y="315.405203"/>
     <use style="fill-opacity:0;stroke:#008000;" x="398.295446" xlink:href="#m8fd129b592" y="314.49715"/>
     <use style="fill-opacity:0;stroke:#008000;" x="427.166733" xlink:href="#m8fd129b592" y="300.495131"/>
     <use style="fill-opacity:0;stroke:#008000;" x="456.03802" xlink:href="#m8fd129b592" y="307.567296"/>
     <use style="fill-opacity:0;stroke:#008000;" x="484.909307" xlink:href="#m8fd129b592" y="320.067836"/>
     <use style="fill-opacity:0;stroke:#008000;" x="513.780594" xlink:href="#m8fd129b592" y="315.612293"/>
     <use style="fill-opacity:0;stroke:#008000;" x="542.651881" xlink:href="#m8fd129b592" y="307.66951"/>
     <use style="fill-opacity:0;stroke:#008000;" x="571.523168" xlink:href="#m8fd129b592" y="313.595307"/>
     <use style="fill-opacity:0;stroke:#008000;" x="600.394455" xlink:href="#m8fd129b592" y="311.113302"/>
     <use style="fill-opacity:0;stroke:#008000;" x="629.265743" xlink:href="#m8fd129b592" y="303.1874"/>
    </g>
   </g>
   <g id="line2d_27">
    <path clip-path="url(#pdeb5baa226)" d="M 80.711287 329.208663 
L 109.582574 333.888047 
L 138.453861 318.336272 
L 167.325149 333.966781 
L 196.196436 344.975227 
L 225.067723 319.277256 
L 253.93901 340.927816 
L 282.810297 340.149738 
L 311.681584 322.650115 
L 340.552871 329.443778 
L 369.424158 324.483032 
L 398.295446 322.587917 
L 427.166733 321.7585 
L 456.03802 330.360093 
L 484.909307 321.269672 
L 513.780594 322.406348 
L 542.651881 326.502578 
L 571.523168 327.446372 
L 600.394455 329.03834 
L 629.265743 325.778346 
" style="fill:none;stroke:#0000ff;stroke-linecap:square;stroke-width:0.8;"/>
    <defs>
     <path d="M 0 3 
C 0.795609 3 1.55874 2.683901 2.12132 2.12132 
C 2.683901 1.55874 3 0.795609 3 0 
C 3 -0.795609 2.683901 -1.55874 2.12132 -2.12132 
C 1.55874 -2.683901 0.795609 -3 0 -3 
C -0.795609 -3 -1.55874 -2.683901 -2.12132 -2.12132 
C -2.683901 -1.55874 -3 -0.795609 -3 0 
C -3 0.795609 -2.683901 1.55874 -2.12132 2.12132 
C -1.55874 2.683901 -0.795609 3 0 3 
z
" id="m31373132d5" style="stroke:#0000ff;"/>
    </defs>
    <g clip-path="url(#pdeb5baa226)">
     <use style="fill-opacity:0;stroke:#0000ff;" x="80.711287" xlink:href="#m31373132d5" y="329.208663"/>
     <use style="fill-opacity:0;stroke:#0000ff;" x="109.582574" xlink:href="#m31373132d5" y="333.888047"/>
     <use style="fill-opacity:0;stroke:#0000ff;" x="138.453861" xlink:href="#m31373132d5" y="318.336272"/>
     <use style="fill-opacity:0;stroke:#0000ff;" x="167.325149" xlink:href="#m31373132d5" y="333.966781"/>
     <use style="fill-opacity:0;stroke:#0000ff;" x="196.196436" xlink:href="#m31373132d5" y="344.975227"/>
     <use style="fill-opacity:0;stroke:#0000ff;" x="225.067723" xlink:href="#m31373132d5" y="319.277256"/>
     <use style="fill-opacity:0;stroke:#0000ff;" x="253.93901" xlink:href="#m31373132d5" y="340.927816"/>
     <use style="fill-opacity:0;stroke:#0000ff;" x="282.810297" xlink:href="#m31373132d5" y="340.149738"/>
     <use style="fill-opacity:0;stroke:#0000ff;" x="311.681584" xlink:href="#m31373132d5" y="322.650115"/>
     <use style="fill-opacity:0;stroke:#0000ff;" x="340.552871" xlink:href="#m31373132d5" y="329.443778"/>
     <use style="fill-opacity:0;stroke:#0000ff;" x="369.424158" xlink:href="#m31373132d5" y="324.483032"/>
     <use style="fill-opacity:0;stroke:#0000ff;" x="398.295446" xlink:href="#m31373132d5" y="322.587917"/>
     <use style="fill-opacity:0;stroke:#0000ff;" x="427.166733" xlink:href="#m31373132d5" y="321.7585"/>
     <use style="fill-opacity:0;stroke:#0000ff;" x="456.03802" xlink:href="#m31373132d5" y="330.360093"/>
     <use style="fill-opacity:0;stroke:#0000ff;" x="484.909307" xlink:href="#m31373132d5" y="321.269672"/>
     <use style="fill-opacity:0;stroke:#0000ff;" x="513.780594" xlink:href="#m31373132d5" y="322.406348"/>
     <use style="fill-opacity:0;stroke:#0000ff;" x="542.651881" xlink:href="#m31373132d5" y="326.502578"/>
     <use style="fill-opacity:0;stroke:#0000ff;" x="571.523168" xlink:href="#m31373132d5" y="327.446372"/>
     <use style="fill-opacity:0;stroke:#0000ff;" x="600.394455" xlink:href="#m31373132d5" y="329.03834"/>
     <use style="fill-opacity:0;stroke:#0000ff;" x="629.265743" xlink:href="#m31373132d5" y="325.778346"/>
    </g>
   </g>
   <g id="line2d_28">
    <path clip-path="url(#pdeb5baa226)" d="M 80.711287 280.647543 
L 109.582574 276.008527 
L 138.453861 273.917254 
L 167.325149 277.458694 
L 196.196436 268.970009 
L 225.067723 256.990558 
L 253.93901 268.587518 
L 282.810297 261.216417 
L 311.681584 258.413403 
L 340.552871 247.42827 
L 369.424158 252.783481 
L 398.295446 243.331468 
L 427.166733 227.075816 
L 456.03802 234.515373 
L 484.909307 250.465055 
L 513.780594 228.909624 
L 542.651881 226.220222 
L 571.523168 230.184648 
L 600.394455 218.786529 
L 629.265743 214.756769 
" style="fill:none;stroke:#ff0000;stroke-linecap:square;stroke-width:0.8;"/>
   </g>
   <g id="line2d_29">
    <path clip-path="url(#pdeb5baa226)" d="M 80.711287 318.607759 
L 109.582574 318.433079 
L 138.453861 315.038556 
L 167.325149 320.105199 
L 196.196436 324.591259 
L 225.067723 310.54028 
L 253.93901 324.03228 
L 282.810297 315.009485 
L 311.681584 313.034587 
L 340.552871 321.059114 
L 369.424158 315.405203 
L 398.295446 314.49715 
L 427.166733 300.495131 
L 456.03802 307.567296 
L 484.909307 320.067836 
L 513.780594 315.612293 
L 542.651881 307.66951 
L 571.523168 313.595307 
L 600.394455 311.113302 
L 629.265743 303.1874 
" style="fill:none;stroke:#008000;stroke-linecap:square;stroke-width:0.8;"/>
   </g>
   <g id="line2d_30">
    <path clip-path="url(#pdeb5baa226)" d="M 80.711287 329.208663 
L 109.582574 333.888047 
L 138.453861 318.336272 
L 167.325149 333.966781 
L 196.196436 344.975227 
L 225.067723 319.277256 
L 253.93901 340.927816 
L 282.810297 340.149738 
L 311.681584 322.650115 
L 340.552871 329.443778 
L 369.424158 324.483032 
L 398.295446 322.587917 
L 427.166733 321.7585 
L 456.03802 330.360093 
L 484.909307 321.269672 
L 513.780594 322.406348 
L 542.651881 326.502578 
L 571.523168 327.446372 
L 600.394455 329.03834 
L 629.265743 325.778346 
" style="fill:none;stroke:#0000ff;stroke-linecap:square;stroke-width:0.8;"/>
   </g>
   <g id="patch_3">
    <path d="M 51.84 401.76 
L 51.84 4.32 
" style="fill:none;stroke:#000000;stroke-linecap:square;stroke-linejoin:miter;stroke-width:0.8;"/>
   </g>
   <g id="patch_4">
    <path d="M 635.04 401.76 
L 635.04 4.32 
" style="fill:none;stroke:#000000;stroke-linecap:square;stroke-linejoin:miter;stroke-width:0.8;"/>
   </g>
   <g id="patch_5">
    <path d="M 51.84 401.76 
L 635.04 401.76 
" style="fill:none;stroke:#000000;stroke-linecap:square;stroke-linejoin:miter;stroke-width:0.8;"/>
   </g>
   <g id="patch_6">
    <path d="M 51.84 4.32 
L 635.04 4.32 
" style="fill:none;stroke:#000000;stroke-linecap:square;stroke-linejoin:miter;stroke-width:0.8;"/>
   </g>
   <g id="legend_1">
    <g id="patch_7">
     <path d="M 58.84 56.354375 
L 350.061875 56.354375 
Q 352.061875 56.354375 352.061875 54.354375 
L 352.061875 11.32 
Q 352.061875 9.32 350.061875 9.32 
L 58.84 9.32 
Q 56.84 9.32 56.84 11.32 
L 56.84 54.354375 
Q 56.84 56.354375 58.84 56.354375 
z
" style="fill:#ffffff;opacity:0.8;stroke:#cccccc;stroke-linejoin:miter;"/>
    </g>
    <g id="line2d_31">
     <path d="M 60.84 17.418437 
L 80.84 17.418437 
" style="fill:none;stroke:#ff0000;stroke-linecap:square;stroke-width:0.8;"/>
    </g>
    <g id="line2d_32">
     <g>
      <use style="fill-opacity:0;stroke:#ff0000;" x="70.84" xlink:href="#mfe8fab8d4e" y="17.418437"/>
     </g>
    </g>
    <g id="text_15">
     <!-- Improved FastICA with Initial Matrix Estimation n=4 -->
     <defs>
      <path d="M 9.8125 72.90625 
L 19.671875 72.90625 
L 19.671875 0 
L 9.8125 0 
z
" id="DejaVuSans-73"/>
      <path d="M 52 44.1875 
Q 55.375 50.25 60.0625 53.125 
Q 64.75 56 71.09375 56 
Q 79.640625 56 84.28125 50.015625 
Q 88.921875 44.046875 88.921875 33.015625 
L 88.921875 0 
L 79.890625 0 
L 79.890625 32.71875 
Q 79.890625 40.578125 77.09375 44.375 
Q 74.3125 48.1875 68.609375 48.1875 
Q 61.625 48.1875 57.5625 43.546875 
Q 53.515625 38.921875 53.515625 30.90625 
L 53.515625 0 
L 44.484375 0 
L 44.484375 32.71875 
Q 44.484375 40.625 41.703125 44.40625 
Q 38.921875 48.1875 33.109375 48.1875 
Q 26.21875 48.1875 22.15625 43.53125 
Q 18.109375 38.875 18.109375 30.90625 
L 18.109375 0 
L 9.078125 0 
L 9.078125 54.6875 
L 18.109375 54.6875 
L 18.109375 46.1875 
Q 21.1875 51.21875 25.484375 53.609375 
Q 29.78125 56 35.6875 56 
Q 41.65625 56 45.828125 52.96875 
Q 50 49.953125 52 44.1875 
z
" id="DejaVuSans-109"/>
      <path d="M 18.109375 8.203125 
L 18.109375 -20.796875 
L 9.078125 -20.796875 
L 9.078125 54.6875 
L 18.109375 54.6875 
L 18.109375 46.390625 
Q 20.953125 51.265625 25.265625 53.625 
Q 29.59375 56 35.59375 56 
Q 45.5625 56 51.78125 48.09375 
Q 58.015625 40.1875 58.015625 27.296875 
Q 58.015625 14.40625 51.78125 6.484375 
Q 45.5625 -1.421875 35.59375 -1.421875 
Q 29.59375 -1.421875 25.265625 0.953125 
Q 20.953125 3.328125 18.109375 8.203125 
z
M 48.6875 27.296875 
Q 48.6875 37.203125 44.609375 42.84375 
Q 40.53125 48.484375 33.40625 48.484375 
Q 26.265625 48.484375 22.1875 42.84375 
Q 18.109375 37.203125 18.109375 27.296875 
Q 18.109375 17.390625 22.1875 11.75 
Q 26.265625 6.109375 33.40625 6.109375 
Q 40.53125 6.109375 44.609375 11.75 
Q 48.6875 17.390625 48.6875 27.296875 
z
" id="DejaVuSans-112"/>
      <path d="M 41.109375 46.296875 
Q 39.59375 47.171875 37.8125 47.578125 
Q 36.03125 48 33.890625 48 
Q 26.265625 48 22.1875 43.046875 
Q 18.109375 38.09375 18.109375 28.8125 
L 18.109375 0 
L 9.078125 0 
L 9.078125 54.6875 
L 18.109375 54.6875 
L 18.109375 46.1875 
Q 20.953125 51.171875 25.484375 53.578125 
Q 30.03125 56 36.53125 56 
Q 37.453125 56 38.578125 55.875 
Q 39.703125 55.765625 41.0625 55.515625 
z
" id="DejaVuSans-114"/>
      <path d="M 30.609375 48.390625 
Q 23.390625 48.390625 19.1875 42.75 
Q 14.984375 37.109375 14.984375 27.296875 
Q 14.984375 17.484375 19.15625 11.84375 
Q 23.34375 6.203125 30.609375 6.203125 
Q 37.796875 6.203125 41.984375 11.859375 
Q 46.1875 17.53125 46.1875 27.296875 
Q 46.1875 37.015625 41.984375 42.703125 
Q 37.796875 48.390625 30.609375 48.390625 
z
M 30.609375 56 
Q 42.328125 56 49.015625 48.375 
Q 55.71875 40.765625 55.71875 27.296875 
Q 55.71875 13.875 49.015625 6.21875 
Q 42.328125 -1.421875 30.609375 -1.421875 
Q 18.84375 -1.421875 12.171875 6.21875 
Q 5.515625 13.875 5.515625 27.296875 
Q 5.515625 40.765625 12.171875 48.375 
Q 18.84375 56 30.609375 56 
z
" id="DejaVuSans-111"/>
      <path d="M 2.984375 54.6875 
L 12.5 54.6875 
L 29.59375 8.796875 
L 46.6875 54.6875 
L 56.203125 54.6875 
L 35.6875 0 
L 23.484375 0 
z
" id="DejaVuSans-118"/>
      <path d="M 56.203125 29.59375 
L 56.203125 25.203125 
L 14.890625 25.203125 
Q 15.484375 15.921875 20.484375 11.0625 
Q 25.484375 6.203125 34.421875 6.203125 
Q 39.59375 6.203125 44.453125 7.46875 
Q 49.3125 8.734375 54.109375 11.28125 
L 54.109375 2.78125 
Q 49.265625 0.734375 44.1875 -0.34375 
Q 39.109375 -1.421875 33.890625 -1.421875 
Q 20.796875 -1.421875 13.15625 6.1875 
Q 5.515625 13.8125 5.515625 26.8125 
Q 5.515625 40.234375 12.765625 48.109375 
Q 20.015625 56 32.328125 56 
Q 43.359375 56 49.78125 48.890625 
Q 56.203125 41.796875 56.203125 29.59375 
z
M 47.21875 32.234375 
Q 47.125 39.59375 43.09375 43.984375 
Q 39.0625 48.390625 32.421875 48.390625 
Q 24.90625 48.390625 20.390625 44.140625 
Q 15.875 39.890625 15.1875 32.171875 
z
" id="DejaVuSans-101"/>
      <path d="M 45.40625 46.390625 
L 45.40625 75.984375 
L 54.390625 75.984375 
L 54.390625 0 
L 45.40625 0 
L 45.40625 8.203125 
Q 42.578125 3.328125 38.25 0.953125 
Q 33.9375 -1.421875 27.875 -1.421875 
Q 17.96875 -1.421875 11.734375 6.484375 
Q 5.515625 14.40625 5.515625 27.296875 
Q 5.515625 40.1875 11.734375 48.09375 
Q 17.96875 56 27.875 56 
Q 33.9375 56 38.25 53.625 
Q 42.578125 51.265625 45.40625 46.390625 
z
M 14.796875 27.296875 
Q 14.796875 17.390625 18.875 11.75 
Q 22.953125 6.109375 30.078125 6.109375 
Q 37.203125 6.109375 41.296875 11.75 
Q 45.40625 17.390625 45.40625 27.296875 
Q 45.40625 37.203125 41.296875 42.84375 
Q 37.203125 48.484375 30.078125 48.484375 
Q 22.953125 48.484375 18.875 42.84375 
Q 14.796875 37.203125 14.796875 27.296875 
z
" id="DejaVuSans-100"/>
      <path id="DejaVuSans-32"/>
      <path d="M 9.8125 72.90625 
L 51.703125 72.90625 
L 51.703125 64.59375 
L 19.671875 64.59375 
L 19.671875 43.109375 
L 48.578125 43.109375 
L 48.578125 34.8125 
L 19.671875 34.8125 
L 19.671875 0 
L 9.8125 0 
z
" id="DejaVuSans-70"/>
      <path d="M 34.28125 27.484375 
Q 23.390625 27.484375 19.1875 25 
Q 14.984375 22.515625 14.984375 16.5 
Q 14.984375 11.71875 18.140625 8.90625 
Q 21.296875 6.109375 26.703125 6.109375 
Q 34.1875 6.109375 38.703125 11.40625 
Q 43.21875 16.703125 43.21875 25.484375 
L 43.21875 27.484375 
z
M 52.203125 31.203125 
L 52.203125 0 
L 43.21875 0 
L 43.21875 8.296875 
Q 40.140625 3.328125 35.546875 0.953125 
Q 30.953125 -1.421875 24.3125 -1.421875 
Q 15.921875 -1.421875 10.953125 3.296875 
Q 6 8.015625 6 15.921875 
Q 6 25.140625 12.171875 29.828125 
Q 18.359375 34.515625 30.609375 34.515625 
L 43.21875 34.515625 
L 43.21875 35.40625 
Q 43.21875 41.609375 39.140625 45 
Q 35.0625 48.390625 27.6875 48.390625 
Q 23 48.390625 18.546875 47.265625 
Q 14.109375 46.140625 10.015625 43.890625 
L 10.015625 52.203125 
Q 14.9375 54.109375 19.578125 55.046875 
Q 24.21875 56 28.609375 56 
Q 40.484375 56 46.34375 49.84375 
Q 52.203125 43.703125 52.203125 31.203125 
z
" id="DejaVuSans-97"/>
      <path d="M 44.28125 53.078125 
L 44.28125 44.578125 
Q 40.484375 46.53125 36.375 47.5 
Q 32.28125 48.484375 27.875 48.484375 
Q 21.1875 48.484375 17.84375 46.4375 
Q 14.5 44.390625 14.5 40.28125 
Q 14.5 37.15625 16.890625 35.375 
Q 19.28125 33.59375 26.515625 31.984375 
L 29.59375 31.296875 
Q 39.15625 29.25 43.1875 25.515625 
Q 47.21875 21.78125 47.21875 15.09375 
Q 47.21875 7.46875 41.1875 3.015625 
Q 35.15625 -1.421875 24.609375 -1.421875 
Q 20.21875 -1.421875 15.453125 -0.5625 
Q 10.6875 0.296875 5.421875 2 
L 5.421875 11.28125 
Q 10.40625 8.6875 15.234375 7.390625 
Q 20.0625 6.109375 24.8125 6.109375 
Q 31.15625 6.109375 34.5625 8.28125 
Q 37.984375 10.453125 37.984375 14.40625 
Q 37.984375 18.0625 35.515625 20.015625 
Q 33.0625 21.96875 24.703125 23.78125 
L 21.578125 24.515625 
Q 13.234375 26.265625 9.515625 29.90625 
Q 5.8125 33.546875 5.8125 39.890625 
Q 5.8125 47.609375 11.28125 51.796875 
Q 16.75 56 26.8125 56 
Q 31.78125 56 36.171875 55.265625 
Q 40.578125 54.546875 44.28125 53.078125 
z
" id="DejaVuSans-115"/>
      <path d="M 18.3125 70.21875 
L 18.3125 54.6875 
L 36.8125 54.6875 
L 36.8125 47.703125 
L 18.3125 47.703125 
L 18.3125 18.015625 
Q 18.3125 11.328125 20.140625 9.421875 
Q 21.96875 7.515625 27.59375 7.515625 
L 36.8125 7.515625 
L 36.8125 0 
L 27.59375 0 
Q 17.1875 0 13.234375 3.875 
Q 9.28125 7.765625 9.28125 18.015625 
L 9.28125 47.703125 
L 2.6875 47.703125 
L 2.6875 54.6875 
L 9.28125 54.6875 
L 9.28125 70.21875 
z
" id="DejaVuSans-116"/>
      <path d="M 64.40625 67.28125 
L 64.40625 56.890625 
Q 59.421875 61.53125 53.78125 63.8125 
Q 48.140625 66.109375 41.796875 66.109375 
Q 29.296875 66.109375 22.65625 58.46875 
Q 16.015625 50.828125 16.015625 36.375 
Q 16.015625 21.96875 22.65625 14.328125 
Q 29.296875 6.6875 41.796875 6.6875 
Q 48.140625 6.6875 53.78125 8.984375 
Q 59.421875 11.28125 64.40625 15.921875 
L 64.40625 5.609375 
Q 59.234375 2.09375 53.4375 0.328125 
Q 47.65625 -1.421875 41.21875 -1.421875 
Q 24.65625 -1.421875 15.125 8.703125 
Q 5.609375 18.84375 5.609375 36.375 
Q 5.609375 53.953125 15.125 64.078125 
Q 24.65625 74.21875 41.21875 74.21875 
Q 47.75 74.21875 53.53125 72.484375 
Q 59.328125 70.75 64.40625 67.28125 
z
" id="DejaVuSans-67"/>
      <path d="M 34.1875 63.1875 
L 20.796875 26.90625 
L 47.609375 26.90625 
z
M 28.609375 72.90625 
L 39.796875 72.90625 
L 67.578125 0 
L 57.328125 0 
L 50.6875 18.703125 
L 17.828125 18.703125 
L 11.1875 0 
L 0.78125 0 
z
" id="DejaVuSans-65"/>
      <path d="M 4.203125 54.6875 
L 13.1875 54.6875 
L 24.421875 12.015625 
L 35.59375 54.6875 
L 46.1875 54.6875 
L 57.421875 12.015625 
L 68.609375 54.6875 
L 77.59375 54.6875 
L 63.28125 0 
L 52.6875 0 
L 40.921875 44.828125 
L 29.109375 0 
L 18.5 0 
z
" id="DejaVuSans-119"/>
      <path d="M 9.421875 54.6875 
L 18.40625 54.6875 
L 18.40625 0 
L 9.421875 0 
z
M 9.421875 75.984375 
L 18.40625 75.984375 
L 18.40625 64.59375 
L 9.421875 64.59375 
z
" id="DejaVuSans-105"/>
      <path d="M 54.890625 33.015625 
L 54.890625 0 
L 45.90625 0 
L 45.90625 32.71875 
Q 45.90625 40.484375 42.875 44.328125 
Q 39.84375 48.1875 33.796875 48.1875 
Q 26.515625 48.1875 22.3125 43.546875 
Q 18.109375 38.921875 18.109375 30.90625 
L 18.109375 0 
L 9.078125 0 
L 9.078125 75.984375 
L 18.109375 75.984375 
L 18.109375 46.1875 
Q 21.34375 51.125 25.703125 53.5625 
Q 30.078125 56 35.796875 56 
Q 45.21875 56 50.046875 50.171875 
Q 54.890625 44.34375 54.890625 33.015625 
z
" id="DejaVuSans-104"/>
      <path d="M 54.890625 33.015625 
L 54.890625 0 
L 45.90625 0 
L 45.90625 32.71875 
Q 45.90625 40.484375 42.875 44.328125 
Q 39.84375 48.1875 33.796875 48.1875 
Q 26.515625 48.1875 22.3125 43.546875 
Q 18.109375 38.921875 18.109375 30.90625 
L 18.109375 0 
L 9.078125 0 
L 9.078125 54.6875 
L 18.109375 54.6875 
L 18.109375 46.1875 
Q 21.34375 51.125 25.703125 53.5625 
Q 30.078125 56 35.796875 56 
Q 45.21875 56 50.046875 50.171875 
Q 54.890625 44.34375 54.890625 33.015625 
z
" id="DejaVuSans-110"/>
      <path d="M 9.421875 75.984375 
L 18.40625 75.984375 
L 18.40625 0 
L 9.421875 0 
z
" id="DejaVuSans-108"/>
      <path d="M 9.8125 72.90625 
L 24.515625 72.90625 
L 43.109375 23.296875 
L 61.8125 72.90625 
L 76.515625 72.90625 
L 76.515625 0 
L 66.890625 0 
L 66.890625 64.015625 
L 48.09375 14.015625 
L 38.1875 14.015625 
L 19.390625 64.015625 
L 19.390625 0 
L 9.8125 0 
z
" id="DejaVuSans-77"/>
      <path d="M 54.890625 54.6875 
L 35.109375 28.078125 
L 55.90625 0 
L 45.3125 0 
L 29.390625 21.484375 
L 13.484375 0 
L 2.875 0 
L 24.125 28.609375 
L 4.6875 54.6875 
L 15.28125 54.6875 
L 29.78125 35.203125 
L 44.28125 54.6875 
z
" id="DejaVuSans-120"/>
      <path d="M 9.8125 72.90625 
L 55.90625 72.90625 
L 55.90625 64.59375 
L 19.671875 64.59375 
L 19.671875 43.015625 
L 54.390625 43.015625 
L 54.390625 34.71875 
L 19.671875 34.71875 
L 19.671875 8.296875 
L 56.78125 8.296875 
L 56.78125 0 
L 9.8125 0 
z
" id="DejaVuSans-69"/>
      <path d="M 10.59375 45.40625 
L 73.1875 45.40625 
L 73.1875 37.203125 
L 10.59375 37.203125 
z
M 10.59375 25.484375 
L 73.1875 25.484375 
L 73.1875 17.1875 
L 10.59375 17.1875 
z
" id="DejaVuSans-61"/>
     </defs>
     <g transform="translate(88.84 20.918437)scale(0.1 -0.1)">
      <use xlink:href="#DejaVuSans-73"/>
      <use x="29.492188" xlink:href="#DejaVuSans-109"/>
      <use x="126.904297" xlink:href="#DejaVuSans-112"/>
      <use x="190.380859" xlink:href="#DejaVuSans-114"/>
      <use x="231.462891" xlink:href="#DejaVuSans-111"/>
      <use x="292.644531" xlink:href="#DejaVuSans-118"/>
      <use x="351.824219" xlink:href="#DejaVuSans-101"/>
      <use x="413.347656" xlink:href="#DejaVuSans-100"/>
      <use x="476.824219" xlink:href="#DejaVuSans-32"/>
      <use x="508.611328" xlink:href="#DejaVuSans-70"/>
      <use x="565.990234" xlink:href="#DejaVuSans-97"/>
      <use x="627.269531" xlink:href="#DejaVuSans-115"/>
      <use x="679.369141" xlink:href="#DejaVuSans-116"/>
      <use x="718.578125" xlink:href="#DejaVuSans-73"/>
      <use x="748.070312" xlink:href="#DejaVuSans-67"/>
      <use x="817.894531" xlink:href="#DejaVuSans-65"/>
      <use x="886.302734" xlink:href="#DejaVuSans-32"/>
      <use x="918.089844" xlink:href="#DejaVuSans-119"/>
      <use x="999.876953" xlink:href="#DejaVuSans-105"/>
      <use x="1027.660156" xlink:href="#DejaVuSans-116"/>
      <use x="1066.869141" xlink:href="#DejaVuSans-104"/>
      <use x="1130.248047" xlink:href="#DejaVuSans-32"/>
      <use x="1162.035156" xlink:href="#DejaVuSans-73"/>
      <use x="1191.527344" xlink:href="#DejaVuSans-110"/>
      <use x="1254.90625" xlink:href="#DejaVuSans-105"/>
      <use x="1282.689453" xlink:href="#DejaVuSans-116"/>
      <use x="1321.898438" xlink:href="#DejaVuSans-105"/>
      <use x="1349.681641" xlink:href="#DejaVuSans-97"/>
      <use x="1410.960938" xlink:href="#DejaVuSans-108"/>
      <use x="1438.744141" xlink:href="#DejaVuSans-32"/>
      <use x="1470.53125" xlink:href="#DejaVuSans-77"/>
      <use x="1556.810547" xlink:href="#DejaVuSans-97"/>
      <use x="1618.089844" xlink:href="#DejaVuSans-116"/>
      <use x="1657.298828" xlink:href="#DejaVuSans-114"/>
      <use x="1698.412109" xlink:href="#DejaVuSans-105"/>
      <use x="1726.195312" xlink:href="#DejaVuSans-120"/>
      <use x="1785.375" xlink:href="#DejaVuSans-32"/>
      <use x="1817.162109" xlink:href="#DejaVuSans-69"/>
      <use x="1880.345703" xlink:href="#DejaVuSans-115"/>
      <use x="1932.445312" xlink:href="#DejaVuSans-116"/>
      <use x="1971.654297" xlink:href="#DejaVuSans-105"/>
      <use x="1999.4375" xlink:href="#DejaVuSans-109"/>
      <use x="2096.849609" xlink:href="#DejaVuSans-97"/>
      <use x="2158.128906" xlink:href="#DejaVuSans-116"/>
      <use x="2197.337891" xlink:href="#DejaVuSans-105"/>
      <use x="2225.121094" xlink:href="#DejaVuSans-111"/>
      <use x="2286.302734" xlink:href="#DejaVuSans-110"/>
      <use x="2349.681641" xlink:href="#DejaVuSans-32"/>
      <use x="2381.46875" xlink:href="#DejaVuSans-110"/>
      <use x="2444.847656" xlink:href="#DejaVuSans-61"/>
      <use x="2528.636719" xlink:href="#DejaVuSans-52"/>
     </g>
    </g>
    <g id="line2d_33">
     <path d="M 60.84 32.096563 
L 80.84 32.096563 
" style="fill:none;stroke:#008000;stroke-linecap:square;stroke-width:0.8;"/>
    </g>
    <g id="line2d_34">
     <g>
      <use style="fill-opacity:0;stroke:#008000;" x="70.84" xlink:href="#m8fd129b592" y="32.096563"/>
     </g>
    </g>
    <g id="text_16">
     <!-- Improved FastICA with Multi-level Newton n=4 -->
     <defs>
      <path d="M 8.5 21.578125 
L 8.5 54.6875 
L 17.484375 54.6875 
L 17.484375 21.921875 
Q 17.484375 14.15625 20.5 10.265625 
Q 23.53125 6.390625 29.59375 6.390625 
Q 36.859375 6.390625 41.078125 11.03125 
Q 45.3125 15.671875 45.3125 23.6875 
L 45.3125 54.6875 
L 54.296875 54.6875 
L 54.296875 0 
L 45.3125 0 
L 45.3125 8.40625 
Q 42.046875 3.421875 37.71875 1 
Q 33.40625 -1.421875 27.6875 -1.421875 
Q 18.265625 -1.421875 13.375 4.4375 
Q 8.5 10.296875 8.5 21.578125 
z
M 31.109375 56 
z
" id="DejaVuSans-117"/>
      <path d="M 4.890625 31.390625 
L 31.203125 31.390625 
L 31.203125 23.390625 
L 4.890625 23.390625 
z
" id="DejaVuSans-45"/>
      <path d="M 9.8125 72.90625 
L 23.09375 72.90625 
L 55.421875 11.921875 
L 55.421875 72.90625 
L 64.984375 72.90625 
L 64.984375 0 
L 51.703125 0 
L 19.390625 60.984375 
L 19.390625 0 
L 9.8125 0 
z
" id="DejaVuSans-78"/>
     </defs>
     <g transform="translate(88.84 35.596563)scale(0.1 -0.1)">
      <use xlink:href="#DejaVuSans-73"/>
      <use x="29.492188" xlink:href="#DejaVuSans-109"/>
      <use x="126.904297" xlink:href="#DejaVuSans-112"/>
      <use x="190.380859" xlink:href="#DejaVuSans-114"/>
      <use x="231.462891" xlink:href="#DejaVuSans-111"/>
      <use x="292.644531" xlink:href="#DejaVuSans-118"/>
      <use x="351.824219" xlink:href="#DejaVuSans-101"/>
      <use x="413.347656" xlink:href="#DejaVuSans-100"/>
      <use x="476.824219" xlink:href="#DejaVuSans-32"/>
      <use x="508.611328" xlink:href="#DejaVuSans-70"/>
      <use x="565.990234" xlink:href="#DejaVuSans-97"/>
      <use x="627.269531" xlink:href="#DejaVuSans-115"/>
      <use x="679.369141" xlink:href="#DejaVuSans-116"/>
      <use x="718.578125" xlink:href="#DejaVuSans-73"/>
      <use x="748.070312" xlink:href="#DejaVuSans-67"/>
      <use x="817.894531" xlink:href="#DejaVuSans-65"/>
      <use x="886.302734" xlink:href="#DejaVuSans-32"/>
      <use x="918.089844" xlink:href="#DejaVuSans-119"/>
      <use x="999.876953" xlink:href="#DejaVuSans-105"/>
      <use x="1027.660156" xlink:href="#DejaVuSans-116"/>
      <use x="1066.869141" xlink:href="#DejaVuSans-104"/>
      <use x="1130.248047" xlink:href="#DejaVuSans-32"/>
      <use x="1162.035156" xlink:href="#DejaVuSans-77"/>
      <use x="1248.314453" xlink:href="#DejaVuSans-117"/>
      <use x="1311.693359" xlink:href="#DejaVuSans-108"/>
      <use x="1339.476562" xlink:href="#DejaVuSans-116"/>
      <use x="1378.685547" xlink:href="#DejaVuSans-105"/>
      <use x="1406.46875" xlink:href="#DejaVuSans-45"/>
      <use x="1442.552734" xlink:href="#DejaVuSans-108"/>
      <use x="1470.335938" xlink:href="#DejaVuSans-101"/>
      <use x="1531.859375" xlink:href="#DejaVuSans-118"/>
      <use x="1591.039062" xlink:href="#DejaVuSans-101"/>
      <use x="1652.5625" xlink:href="#DejaVuSans-108"/>
      <use x="1680.345703" xlink:href="#DejaVuSans-32"/>
      <use x="1712.132812" xlink:href="#DejaVuSans-78"/>
      <use x="1786.9375" xlink:href="#DejaVuSans-101"/>
      <use x="1848.460938" xlink:href="#DejaVuSans-119"/>
      <use x="1930.248047" xlink:href="#DejaVuSans-116"/>
      <use x="1969.457031" xlink:href="#DejaVuSans-111"/>
      <use x="2030.638672" xlink:href="#DejaVuSans-110"/>
      <use x="2094.017578" xlink:href="#DejaVuSans-32"/>
      <use x="2125.804688" xlink:href="#DejaVuSans-110"/>
      <use x="2189.183594" xlink:href="#DejaVuSans-61"/>
      <use x="2272.972656" xlink:href="#DejaVuSans-52"/>
     </g>
    </g>
    <g id="line2d_35">
     <path d="M 60.84 46.774687 
L 80.84 46.774687 
" style="fill:none;stroke:#0000ff;stroke-linecap:square;stroke-width:0.8;"/>
    </g>
    <g id="line2d_36">
     <g>
      <use style="fill-opacity:0;stroke:#0000ff;" x="70.84" xlink:href="#m31373132d5" y="46.774687"/>
     </g>
    </g>
    <g id="text_17">
     <!-- Ultra-FastICA n=4 -->
     <defs>
      <path d="M 8.6875 72.90625 
L 18.609375 72.90625 
L 18.609375 28.609375 
Q 18.609375 16.890625 22.84375 11.734375 
Q 27.09375 6.59375 36.625 6.59375 
Q 46.09375 6.59375 50.34375 11.734375 
Q 54.59375 16.890625 54.59375 28.609375 
L 54.59375 72.90625 
L 64.5 72.90625 
L 64.5 27.390625 
Q 64.5 13.140625 57.4375 5.859375 
Q 50.390625 -1.421875 36.625 -1.421875 
Q 22.796875 -1.421875 15.734375 5.859375 
Q 8.6875 13.140625 8.6875 27.390625 
z
" id="DejaVuSans-85"/>
     </defs>
     <g transform="translate(88.84 50.274687)scale(0.1 -0.1)">
      <use xlink:href="#DejaVuSans-85"/>
      <use x="73.193359" xlink:href="#DejaVuSans-108"/>
      <use x="100.976562" xlink:href="#DejaVuSans-116"/>
      <use x="140.185547" xlink:href="#DejaVuSans-114"/>
      <use x="181.298828" xlink:href="#DejaVuSans-97"/>
      <use x="242.578125" xlink:href="#DejaVuSans-45"/>
      <use x="278.662109" xlink:href="#DejaVuSans-70"/>
      <use x="336.041016" xlink:href="#DejaVuSans-97"/>
      <use x="397.320312" xlink:href="#DejaVuSans-115"/>
      <use x="449.419922" xlink:href="#DejaVuSans-116"/>
      <use x="488.628906" xlink:href="#DejaVuSans-73"/>
      <use x="518.121094" xlink:href="#DejaVuSans-67"/>
      <use x="587.945312" xlink:href="#DejaVuSans-65"/>
      <use x="656.353516" xlink:href="#DejaVuSans-32"/>
      <use x="688.140625" xlink:href="#DejaVuSans-110"/>
      <use x="751.519531" xlink:href="#DejaVuSans-61"/>
      <use x="835.308594" xlink:href="#DejaVuSans-52"/>
     </g>
    </g>
   </g>
  </g>
 </g>
 <defs>
  <clipPath id="pdeb5baa226">
   <rect height="397.44" width="583.2" x="51.84" y="4.32"/>
  </clipPath>
 </defs>
</svg>
