<?xml version="1.0" encoding="utf-8" standalone="no"?>
<!DOCTYPE svg PUBLIC "-//W3C//DTD SVG 1.1//EN"
  "http://www.w3.org/Graphics/SVG/1.1/DTD/svg11.dtd">
<!-- Created with matplotlib (https://matplotlib.org/) -->
<svg height="432pt" version="1.1" viewBox="0 0 648 432" width="648pt" xmlns="http://www.w3.org/2000/svg" xmlns:xlink="http://www.w3.org/1999/xlink">
 <defs>
  <style type="text/css">
*{stroke-linecap:butt;stroke-linejoin:round;white-space:pre;}
  </style>
 </defs>
 <g id="figure_1">
  <g id="patch_1">
   <path d="M 0 432 
L 648 432 
L 648 0 
L 0 0 
z
" style="fill:#ffffff;"/>
  </g>
  <g id="axes_1">
   <g id="patch_2">
    <path d="M 51.84 401.76 
L 635.04 401.76 
L 635.04 4.32 
L 51.84 4.32 
z
" style="fill:#ffffff;"/>
   </g>
   <g id="matplotlib.axis_1">
    <g id="xtick_1">
     <g id="line2d_1">
      <path clip-path="url(#pd043db8d9b)" d="M 51.84 401.76 
L 51.84 4.32 
" style="fill:none;stroke:#b0b0b0;stroke-dasharray:0.8,1.32;stroke-dashoffset:0;stroke-width:0.8;"/>
     </g>
     <g id="line2d_2">
      <defs>
       <path d="M 0 0 
L 0 3.5 
" id="m39ad892dbc" style="stroke:#000000;stroke-width:0.8;"/>
      </defs>
      <g>
       <use style="stroke:#000000;stroke-width:0.8;" x="51.84" xlink:href="#m39ad892dbc" y="401.76"/>
      </g>
     </g>
     <g id="text_1">
      <!-- 0 -->
      <defs>
       <path d="M 31.78125 66.40625 
Q 24.171875 66.40625 20.328125 58.90625 
Q 16.5 51.421875 16.5 36.375 
Q 16.5 21.390625 20.328125 13.890625 
Q 24.171875 6.390625 31.78125 6.390625 
Q 39.453125 6.390625 43.28125 13.890625 
Q 47.125 21.390625 47.125 36.375 
Q 47.125 51.421875 43.28125 58.90625 
Q 39.453125 66.40625 31.78125 66.40625 
z
M 31.78125 74.21875 
Q 44.046875 74.21875 50.515625 64.515625 
Q 56.984375 54.828125 56.984375 36.375 
Q 56.984375 17.96875 50.515625 8.265625 
Q 44.046875 -1.421875 31.78125 -1.421875 
Q 19.53125 -1.421875 13.0625 8.265625 
Q 6.59375 17.96875 6.59375 36.375 
Q 6.59375 54.828125 13.0625 64.515625 
Q 19.53125 74.21875 31.78125 74.21875 
z
" id="DejaVuSans-48"/>
      </defs>
      <g transform="translate(48.65875 416.358437)scale(0.1 -0.1)">
       <use xlink:href="#DejaVuSans-48"/>
      </g>
     </g>
    </g>
    <g id="xtick_2">
     <g id="line2d_3">
      <path clip-path="url(#pd043db8d9b)" d="M 167.325149 401.76 
L 167.325149 4.32 
" style="fill:none;stroke:#b0b0b0;stroke-dasharray:0.8,1.32;stroke-dashoffset:0;stroke-width:0.8;"/>
     </g>
     <g id="line2d_4">
      <g>
       <use style="stroke:#000000;stroke-width:0.8;" x="167.325149" xlink:href="#m39ad892dbc" y="401.76"/>
      </g>
     </g>
     <g id="text_2">
      <!-- 20 -->
      <defs>
       <path d="M 19.1875 8.296875 
L 53.609375 8.296875 
L 53.609375 0 
L 7.328125 0 
L 7.328125 8.296875 
Q 12.9375 14.109375 22.625 23.890625 
Q 32.328125 33.6875 34.8125 36.53125 
Q 39.546875 41.84375 41.421875 45.53125 
Q 43.3125 49.21875 43.3125 52.78125 
Q 43.3125 58.59375 39.234375 62.25 
Q 35.15625 65.921875 28.609375 65.921875 
Q 23.96875 65.921875 18.8125 64.3125 
Q 13.671875 62.703125 7.8125 59.421875 
L 7.8125 69.390625 
Q 13.765625 71.78125 18.9375 73 
Q 24.125 74.21875 28.421875 74.21875 
Q 39.75 74.21875 46.484375 68.546875 
Q 53.21875 62.890625 53.21875 53.421875 
Q 53.21875 48.921875 51.53125 44.890625 
Q 49.859375 40.875 45.40625 35.40625 
Q 44.1875 33.984375 37.640625 27.21875 
Q 31.109375 20.453125 19.1875 8.296875 
z
" id="DejaVuSans-50"/>
      </defs>
      <g transform="translate(160.962649 416.358437)scale(0.1 -0.1)">
       <use xlink:href="#DejaVuSans-50"/>
       <use x="63.623047" xlink:href="#DejaVuSans-48"/>
      </g>
     </g>
    </g>
    <g id="xtick_3">
     <g id="line2d_5">
      <path clip-path="url(#pd043db8d9b)" d="M 282.810297 401.76 
L 282.810297 4.32 
" style="fill:none;stroke:#b0b0b0;stroke-dasharray:0.8,1.32;stroke-dashoffset:0;stroke-width:0.8;"/>
     </g>
     <g id="line2d_6">
      <g>
       <use style="stroke:#000000;stroke-width:0.8;" x="282.810297" xlink:href="#m39ad892dbc" y="401.76"/>
      </g>
     </g>
     <g id="text_3">
      <!-- 40 -->
      <defs>
       <path d="M 37.796875 64.3125 
L 12.890625 25.390625 
L 37.796875 25.390625 
z
M 35.203125 72.90625 
L 47.609375 72.90625 
L 47.609375 25.390625 
L 58.015625 25.390625 
L 58.015625 17.1875 
L 47.609375 17.1875 
L 47.609375 0 
L 37.796875 0 
L 37.796875 17.1875 
L 4.890625 17.1875 
L 4.890625 26.703125 
z
" id="DejaVuSans-52"/>
      </defs>
      <g transform="translate(276.447797 416.358437)scale(0.1 -0.1)">
       <use xlink:href="#DejaVuSans-52"/>
       <use x="63.623047" xlink:href="#DejaVuSans-48"/>
      </g>
     </g>
    </g>
    <g id="xtick_4">
     <g id="line2d_7">
      <path clip-path="url(#pd043db8d9b)" d="M 398.295446 401.76 
L 398.295446 4.32 
" style="fill:none;stroke:#b0b0b0;stroke-dasharray:0.8,1.32;stroke-dashoffset:0;stroke-width:0.8;"/>
     </g>
     <g id="line2d_8">
      <g>
       <use style="stroke:#000000;stroke-width:0.8;" x="398.295446" xlink:href="#m39ad892dbc" y="401.76"/>
      </g>
     </g>
     <g id="text_4">
      <!-- 60 -->
      <defs>
       <path d="M 33.015625 40.375 
Q 26.375 40.375 22.484375 35.828125 
Q 18.609375 31.296875 18.609375 23.390625 
Q 18.609375 15.53125 22.484375 10.953125 
Q 26.375 6.390625 33.015625 6.390625 
Q 39.65625 6.390625 43.53125 10.953125 
Q 47.40625 15.53125 47.40625 23.390625 
Q 47.40625 31.296875 43.53125 35.828125 
Q 39.65625 40.375 33.015625 40.375 
z
M 52.59375 71.296875 
L 52.59375 62.3125 
Q 48.875 64.0625 45.09375 64.984375 
Q 41.3125 65.921875 37.59375 65.921875 
Q 27.828125 65.921875 22.671875 59.328125 
Q 17.53125 52.734375 16.796875 39.40625 
Q 19.671875 43.65625 24.015625 45.921875 
Q 28.375 48.1875 33.59375 48.1875 
Q 44.578125 48.1875 50.953125 41.515625 
Q 57.328125 34.859375 57.328125 23.390625 
Q 57.328125 12.15625 50.6875 5.359375 
Q 44.046875 -1.421875 33.015625 -1.421875 
Q 20.359375 -1.421875 13.671875 8.265625 
Q 6.984375 17.96875 6.984375 36.375 
Q 6.984375 53.65625 15.1875 63.9375 
Q 23.390625 74.21875 37.203125 74.21875 
Q 40.921875 74.21875 44.703125 73.484375 
Q 48.484375 72.75 52.59375 71.296875 
z
" id="DejaVuSans-54"/>
      </defs>
      <g transform="translate(391.932946 416.358437)scale(0.1 -0.1)">
       <use xlink:href="#DejaVuSans-54"/>
       <use x="63.623047" xlink:href="#DejaVuSans-48"/>
      </g>
     </g>
    </g>
    <g id="xtick_5">
     <g id="line2d_9">
      <path clip-path="url(#pd043db8d9b)" d="M 513.780594 401.76 
L 513.780594 4.32 
" style="fill:none;stroke:#b0b0b0;stroke-dasharray:0.8,1.32;stroke-dashoffset:0;stroke-width:0.8;"/>
     </g>
     <g id="line2d_10">
      <g>
       <use style="stroke:#000000;stroke-width:0.8;" x="513.780594" xlink:href="#m39ad892dbc" y="401.76"/>
      </g>
     </g>
     <g id="text_5">
      <!-- 80 -->
      <defs>
       <path d="M 31.78125 34.625 
Q 24.75 34.625 20.71875 30.859375 
Q 16.703125 27.09375 16.703125 20.515625 
Q 16.703125 13.921875 20.71875 10.15625 
Q 24.75 6.390625 31.78125 6.390625 
Q 38.8125 6.390625 42.859375 10.171875 
Q 46.921875 13.96875 46.921875 20.515625 
Q 46.921875 27.09375 42.890625 30.859375 
Q 38.875 34.625 31.78125 34.625 
z
M 21.921875 38.8125 
Q 15.578125 40.375 12.03125 44.71875 
Q 8.5 49.078125 8.5 55.328125 
Q 8.5 64.0625 14.71875 69.140625 
Q 20.953125 74.21875 31.78125 74.21875 
Q 42.671875 74.21875 48.875 69.140625 
Q 55.078125 64.0625 55.078125 55.328125 
Q 55.078125 49.078125 51.53125 44.71875 
Q 48 40.375 41.703125 38.8125 
Q 48.828125 37.15625 52.796875 32.3125 
Q 56.78125 27.484375 56.78125 20.515625 
Q 56.78125 9.90625 50.3125 4.234375 
Q 43.84375 -1.421875 31.78125 -1.421875 
Q 19.734375 -1.421875 13.25 4.234375 
Q 6.78125 9.90625 6.78125 20.515625 
Q 6.78125 27.484375 10.78125 32.3125 
Q 14.796875 37.15625 21.921875 38.8125 
z
M 18.3125 54.390625 
Q 18.3125 48.734375 21.84375 45.5625 
Q 25.390625 42.390625 31.78125 42.390625 
Q 38.140625 42.390625 41.71875 45.5625 
Q 45.3125 48.734375 45.3125 54.390625 
Q 45.3125 60.0625 41.71875 63.234375 
Q 38.140625 66.40625 31.78125 66.40625 
Q 25.390625 66.40625 21.84375 63.234375 
Q 18.3125 60.0625 18.3125 54.390625 
z
" id="DejaVuSans-56"/>
      </defs>
      <g transform="translate(507.418094 416.358437)scale(0.1 -0.1)">
       <use xlink:href="#DejaVuSans-56"/>
       <use x="63.623047" xlink:href="#DejaVuSans-48"/>
      </g>
     </g>
    </g>
    <g id="xtick_6">
     <g id="line2d_11">
      <path clip-path="url(#pd043db8d9b)" d="M 629.265743 401.76 
L 629.265743 4.32 
" style="fill:none;stroke:#b0b0b0;stroke-dasharray:0.8,1.32;stroke-dashoffset:0;stroke-width:0.8;"/>
     </g>
     <g id="line2d_12">
      <g>
       <use style="stroke:#000000;stroke-width:0.8;" x="629.265743" xlink:href="#m39ad892dbc" y="401.76"/>
      </g>
     </g>
     <g id="text_6">
      <!-- 100 -->
      <defs>
       <path d="M 12.40625 8.296875 
L 28.515625 8.296875 
L 28.515625 63.921875 
L 10.984375 60.40625 
L 10.984375 69.390625 
L 28.421875 72.90625 
L 38.28125 72.90625 
L 38.28125 8.296875 
L 54.390625 8.296875 
L 54.390625 0 
L 12.40625 0 
z
" id="DejaVuSans-49"/>
      </defs>
      <g transform="translate(619.721993 416.358437)scale(0.1 -0.1)">
       <use xlink:href="#DejaVuSans-49"/>
       <use x="63.623047" xlink:href="#DejaVuSans-48"/>
       <use x="127.246094" xlink:href="#DejaVuSans-48"/>
      </g>
     </g>
    </g>
    <g id="text_7">
     <!-- $\Lambda\ /\ \%$ -->
     <defs>
      <path d="M 11.1875 0 
L 0.78125 0 
L 28.609375 72.90625 
L 39.796875 72.90625 
L 67.578125 0 
L 57.328125 0 
L 34.1875 63.1875 
z
" id="DejaVuSans-923"/>
      <path d="M 25.390625 72.90625 
L 33.6875 72.90625 
L 8.296875 -9.28125 
L 0 -9.28125 
z
" id="DejaVuSans-47"/>
      <path d="M 72.703125 32.078125 
Q 68.453125 32.078125 66.03125 28.46875 
Q 63.625 24.859375 63.625 18.40625 
Q 63.625 12.0625 66.03125 8.421875 
Q 68.453125 4.78125 72.703125 4.78125 
Q 76.859375 4.78125 79.265625 8.421875 
Q 81.6875 12.0625 81.6875 18.40625 
Q 81.6875 24.8125 79.265625 28.4375 
Q 76.859375 32.078125 72.703125 32.078125 
z
M 72.703125 38.28125 
Q 80.421875 38.28125 84.953125 32.90625 
Q 89.5 27.546875 89.5 18.40625 
Q 89.5 9.28125 84.9375 3.921875 
Q 80.375 -1.421875 72.703125 -1.421875 
Q 64.890625 -1.421875 60.34375 3.921875 
Q 55.8125 9.28125 55.8125 18.40625 
Q 55.8125 27.59375 60.375 32.9375 
Q 64.9375 38.28125 72.703125 38.28125 
z
M 22.3125 68.015625 
Q 18.109375 68.015625 15.6875 64.375 
Q 13.28125 60.75 13.28125 54.390625 
Q 13.28125 47.953125 15.671875 44.328125 
Q 18.0625 40.71875 22.3125 40.71875 
Q 26.5625 40.71875 28.96875 44.328125 
Q 31.390625 47.953125 31.390625 54.390625 
Q 31.390625 60.6875 28.953125 64.34375 
Q 26.515625 68.015625 22.3125 68.015625 
z
M 66.40625 74.21875 
L 74.21875 74.21875 
L 28.609375 -1.421875 
L 20.796875 -1.421875 
z
M 22.3125 74.21875 
Q 30.03125 74.21875 34.609375 68.875 
Q 39.203125 63.53125 39.203125 54.390625 
Q 39.203125 45.171875 34.640625 39.84375 
Q 30.078125 34.515625 22.3125 34.515625 
Q 14.546875 34.515625 10.03125 39.859375 
Q 5.515625 45.21875 5.515625 54.390625 
Q 5.515625 63.484375 10.046875 68.84375 
Q 14.59375 74.21875 22.3125 74.21875 
z
" id="DejaVuSans-37"/>
     </defs>
     <g transform="translate(330.29 430.036563)scale(0.1 -0.1)">
      <use transform="translate(0 0.78125)" xlink:href="#DejaVuSans-923"/>
      <use transform="translate(100.878582 0.78125)" xlink:href="#DejaVuSans-47"/>
      <use transform="translate(167.040366 0.78125)" xlink:href="#DejaVuSans-37"/>
     </g>
    </g>
   </g>
   <g id="matplotlib.axis_2">
    <g id="ytick_1">
     <g id="line2d_13">
      <path clip-path="url(#pd043db8d9b)" d="M 51.84 401.76 
L 635.04 401.76 
" style="fill:none;stroke:#b0b0b0;stroke-dasharray:0.8,1.32;stroke-dashoffset:0;stroke-width:0.8;"/>
     </g>
     <g id="line2d_14">
      <defs>
       <path d="M 0 0 
L -3.5 0 
" id="m12d7fdabc2" style="stroke:#000000;stroke-width:0.8;"/>
      </defs>
      <g>
       <use style="stroke:#000000;stroke-width:0.8;" x="51.84" xlink:href="#m12d7fdabc2" y="401.76"/>
      </g>
     </g>
     <g id="text_8">
      <!-- 0 -->
      <g transform="translate(38.4775 405.559219)scale(0.1 -0.1)">
       <use xlink:href="#DejaVuSans-48"/>
      </g>
     </g>
    </g>
    <g id="ytick_2">
     <g id="line2d_15">
      <path clip-path="url(#pd043db8d9b)" d="M 51.84 335.52 
L 635.04 335.52 
" style="fill:none;stroke:#b0b0b0;stroke-dasharray:0.8,1.32;stroke-dashoffset:0;stroke-width:0.8;"/>
     </g>
     <g id="line2d_16">
      <g>
       <use style="stroke:#000000;stroke-width:0.8;" x="51.84" xlink:href="#m12d7fdabc2" y="335.52"/>
      </g>
     </g>
     <g id="text_9">
      <!-- 10 -->
      <g transform="translate(32.115 339.319219)scale(0.1 -0.1)">
       <use xlink:href="#DejaVuSans-49"/>
       <use x="63.623047" xlink:href="#DejaVuSans-48"/>
      </g>
     </g>
    </g>
    <g id="ytick_3">
     <g id="line2d_17">
      <path clip-path="url(#pd043db8d9b)" d="M 51.84 269.28 
L 635.04 269.28 
" style="fill:none;stroke:#b0b0b0;stroke-dasharray:0.8,1.32;stroke-dashoffset:0;stroke-width:0.8;"/>
     </g>
     <g id="line2d_18">
      <g>
       <use style="stroke:#000000;stroke-width:0.8;" x="51.84" xlink:href="#m12d7fdabc2" y="269.28"/>
      </g>
     </g>
     <g id="text_10">
      <!-- 20 -->
      <g transform="translate(32.115 273.079219)scale(0.1 -0.1)">
       <use xlink:href="#DejaVuSans-50"/>
       <use x="63.623047" xlink:href="#DejaVuSans-48"/>
      </g>
     </g>
    </g>
    <g id="ytick_4">
     <g id="line2d_19">
      <path clip-path="url(#pd043db8d9b)" d="M 51.84 203.04 
L 635.04 203.04 
" style="fill:none;stroke:#b0b0b0;stroke-dasharray:0.8,1.32;stroke-dashoffset:0;stroke-width:0.8;"/>
     </g>
     <g id="line2d_20">
      <g>
       <use style="stroke:#000000;stroke-width:0.8;" x="51.84" xlink:href="#m12d7fdabc2" y="203.04"/>
      </g>
     </g>
     <g id="text_11">
      <!-- 30 -->
      <defs>
       <path d="M 40.578125 39.3125 
Q 47.65625 37.796875 51.625 33 
Q 55.609375 28.21875 55.609375 21.1875 
Q 55.609375 10.40625 48.1875 4.484375 
Q 40.765625 -1.421875 27.09375 -1.421875 
Q 22.515625 -1.421875 17.65625 -0.515625 
Q 12.796875 0.390625 7.625 2.203125 
L 7.625 11.71875 
Q 11.71875 9.328125 16.59375 8.109375 
Q 21.484375 6.890625 26.8125 6.890625 
Q 36.078125 6.890625 40.9375 10.546875 
Q 45.796875 14.203125 45.796875 21.1875 
Q 45.796875 27.640625 41.28125 31.265625 
Q 36.765625 34.90625 28.71875 34.90625 
L 20.21875 34.90625 
L 20.21875 43.015625 
L 29.109375 43.015625 
Q 36.375 43.015625 40.234375 45.921875 
Q 44.09375 48.828125 44.09375 54.296875 
Q 44.09375 59.90625 40.109375 62.90625 
Q 36.140625 65.921875 28.71875 65.921875 
Q 24.65625 65.921875 20.015625 65.03125 
Q 15.375 64.15625 9.8125 62.3125 
L 9.8125 71.09375 
Q 15.4375 72.65625 20.34375 73.4375 
Q 25.25 74.21875 29.59375 74.21875 
Q 40.828125 74.21875 47.359375 69.109375 
Q 53.90625 64.015625 53.90625 55.328125 
Q 53.90625 49.265625 50.4375 45.09375 
Q 46.96875 40.921875 40.578125 39.3125 
z
" id="DejaVuSans-51"/>
      </defs>
      <g transform="translate(32.115 206.839219)scale(0.1 -0.1)">
       <use xlink:href="#DejaVuSans-51"/>
       <use x="63.623047" xlink:href="#DejaVuSans-48"/>
      </g>
     </g>
    </g>
    <g id="ytick_5">
     <g id="line2d_21">
      <path clip-path="url(#pd043db8d9b)" d="M 51.84 136.8 
L 635.04 136.8 
" style="fill:none;stroke:#b0b0b0;stroke-dasharray:0.8,1.32;stroke-dashoffset:0;stroke-width:0.8;"/>
     </g>
     <g id="line2d_22">
      <g>
       <use style="stroke:#000000;stroke-width:0.8;" x="51.84" xlink:href="#m12d7fdabc2" y="136.8"/>
      </g>
     </g>
     <g id="text_12">
      <!-- 40 -->
      <g transform="translate(32.115 140.599219)scale(0.1 -0.1)">
       <use xlink:href="#DejaVuSans-52"/>
       <use x="63.623047" xlink:href="#DejaVuSans-48"/>
      </g>
     </g>
    </g>
    <g id="ytick_6">
     <g id="line2d_23">
      <path clip-path="url(#pd043db8d9b)" d="M 51.84 70.56 
L 635.04 70.56 
" style="fill:none;stroke:#b0b0b0;stroke-dasharray:0.8,1.32;stroke-dashoffset:0;stroke-width:0.8;"/>
     </g>
     <g id="line2d_24">
      <g>
       <use style="stroke:#000000;stroke-width:0.8;" x="51.84" xlink:href="#m12d7fdabc2" y="70.56"/>
      </g>
     </g>
     <g id="text_13">
      <!-- 50 -->
      <defs>
       <path d="M 10.796875 72.90625 
L 49.515625 72.90625 
L 49.515625 64.59375 
L 19.828125 64.59375 
L 19.828125 46.734375 
Q 21.96875 47.46875 24.109375 47.828125 
Q 26.265625 48.1875 28.421875 48.1875 
Q 40.625 48.1875 47.75 41.5 
Q 54.890625 34.8125 54.890625 23.390625 
Q 54.890625 11.625 47.5625 5.09375 
Q 40.234375 -1.421875 26.90625 -1.421875 
Q 22.3125 -1.421875 17.546875 -0.640625 
Q 12.796875 0.140625 7.71875 1.703125 
L 7.71875 11.625 
Q 12.109375 9.234375 16.796875 8.0625 
Q 21.484375 6.890625 26.703125 6.890625 
Q 35.15625 6.890625 40.078125 11.328125 
Q 45.015625 15.765625 45.015625 23.390625 
Q 45.015625 31 40.078125 35.4375 
Q 35.15625 39.890625 26.703125 39.890625 
Q 22.75 39.890625 18.8125 39.015625 
Q 14.890625 38.140625 10.796875 36.28125 
z
" id="DejaVuSans-53"/>
      </defs>
      <g transform="translate(32.115 74.359219)scale(0.1 -0.1)">
       <use xlink:href="#DejaVuSans-53"/>
       <use x="63.623047" xlink:href="#DejaVuSans-48"/>
      </g>
     </g>
    </g>
    <g id="ytick_7">
     <g id="line2d_25">
      <path clip-path="url(#pd043db8d9b)" d="M 51.84 4.32 
L 635.04 4.32 
" style="fill:none;stroke:#b0b0b0;stroke-dasharray:0.8,1.32;stroke-dashoffset:0;stroke-width:0.8;"/>
     </g>
     <g id="line2d_26">
      <g>
       <use style="stroke:#000000;stroke-width:0.8;" x="51.84" xlink:href="#m12d7fdabc2" y="4.32"/>
      </g>
     </g>
     <g id="text_14">
      <!-- 60 -->
      <g transform="translate(32.115 8.119219)scale(0.1 -0.1)">
       <use xlink:href="#DejaVuSans-54"/>
       <use x="63.623047" xlink:href="#DejaVuSans-48"/>
      </g>
     </g>
    </g>
    <g id="text_15">
     <!-- $SNR\ /\ dB$ -->
     <defs>
      <path d="M 60.296875 70.515625 
L 58.40625 60.890625 
Q 53.46875 63.53125 48.609375 64.875 
Q 43.75 66.21875 39.203125 66.21875 
Q 30.375 66.21875 25.140625 62.359375 
Q 19.921875 58.5 19.921875 52.09375 
Q 19.921875 48.578125 21.84375 46.703125 
Q 23.78125 44.828125 31.78125 42.671875 
L 37.703125 41.21875 
Q 47.703125 38.625 51.609375 34.640625 
Q 55.515625 30.671875 55.515625 23.484375 
Q 55.515625 12.453125 46.84375 5.515625 
Q 38.1875 -1.421875 24.03125 -1.421875 
Q 18.21875 -1.421875 12.359375 -0.265625 
Q 6.5 0.875 0.59375 3.21875 
L 2.59375 13.375 
Q 8.015625 10.015625 13.453125 8.296875 
Q 18.890625 6.59375 24.3125 6.59375 
Q 33.546875 6.59375 39.109375 10.6875 
Q 44.671875 14.796875 44.671875 21.390625 
Q 44.671875 25.78125 42.453125 28.046875 
Q 40.234375 30.328125 32.90625 32.171875 
L 27 33.6875 
Q 16.890625 36.328125 13.203125 39.765625 
Q 9.515625 43.21875 9.515625 49.421875 
Q 9.515625 60.296875 17.890625 67.25 
Q 26.265625 74.21875 39.703125 74.21875 
Q 44.921875 74.21875 50.046875 73.28125 
Q 55.171875 72.359375 60.296875 70.515625 
z
" id="DejaVuSans-Oblique-83"/>
      <path d="M 16.890625 72.90625 
L 30.171875 72.90625 
L 50.296875 10.40625 
L 62.5 72.90625 
L 72.125 72.90625 
L 57.90625 0 
L 44.578125 0 
L 24.515625 62.890625 
L 12.3125 0 
L 2.6875 0 
z
" id="DejaVuSans-Oblique-78"/>
      <path d="M 25.203125 64.796875 
L 20.21875 38.921875 
L 32.90625 38.921875 
Q 40.375 38.921875 44.984375 43.046875 
Q 49.609375 47.171875 49.609375 53.8125 
Q 49.609375 59.125 46.5 61.953125 
Q 43.40625 64.796875 37.59375 64.796875 
z
M 43.3125 35.015625 
Q 46.4375 34.28125 48.515625 31.390625 
Q 50.59375 28.515625 53.328125 19.921875 
L 59.515625 0 
L 49.125 0 
L 43.40625 18.703125 
Q 41.21875 25.921875 38.328125 28.359375 
Q 35.453125 30.8125 29.5 30.8125 
L 18.609375 30.8125 
L 12.59375 0 
L 2.6875 0 
L 16.890625 72.90625 
L 39.109375 72.90625 
Q 49.21875 72.90625 54.609375 68.328125 
Q 60.015625 63.765625 60.015625 55.171875 
Q 60.015625 47.5625 55.421875 41.984375 
Q 50.828125 36.421875 43.3125 35.015625 
z
" id="DejaVuSans-Oblique-82"/>
      <path d="M 41.796875 8.203125 
Q 38.1875 3.46875 33.25 1.015625 
Q 28.328125 -1.421875 22.3125 -1.421875 
Q 14.109375 -1.421875 9.34375 4.171875 
Q 4.59375 9.765625 4.59375 19.484375 
Q 4.59375 27.59375 7.46875 34.9375 
Q 10.359375 42.28125 15.828125 48.09375 
Q 19.4375 51.953125 23.96875 53.96875 
Q 28.515625 56 33.5 56 
Q 38.765625 56 42.796875 53.453125 
Q 46.828125 50.921875 49.03125 46.1875 
L 54.890625 75.984375 
L 63.921875 75.984375 
L 49.125 0 
L 40.09375 0 
z
M 13.921875 21.09375 
Q 13.921875 14.015625 17.109375 10.0625 
Q 20.3125 6.109375 25.984375 6.109375 
Q 30.171875 6.109375 33.765625 8.125 
Q 37.359375 10.15625 40.09375 14.109375 
Q 42.96875 18.21875 44.625 23.578125 
Q 46.296875 28.953125 46.296875 34.1875 
Q 46.296875 40.96875 43.09375 44.765625 
Q 39.890625 48.578125 34.28125 48.578125 
Q 30.03125 48.578125 26.359375 46.578125 
Q 22.703125 44.578125 20.125 40.828125 
Q 17.28125 36.765625 15.59375 31.390625 
Q 13.921875 26.03125 13.921875 21.09375 
z
" id="DejaVuSans-Oblique-100"/>
      <path d="M 16.890625 72.90625 
L 42.09375 72.90625 
Q 52.34375 72.90625 57.421875 69.09375 
Q 62.5 65.28125 62.5 57.625 
Q 62.5 50.59375 58.125 45.484375 
Q 53.765625 40.375 46.6875 39.3125 
Q 52.734375 37.9375 55.765625 34.078125 
Q 58.796875 30.21875 58.796875 23.78125 
Q 58.796875 12.796875 50.65625 6.390625 
Q 42.53125 0 28.421875 0 
L 2.6875 0 
z
M 19.28125 34.8125 
L 14.109375 8.109375 
L 29.984375 8.109375 
Q 38.921875 8.109375 43.75 12.203125 
Q 48.578125 16.3125 48.578125 23.78125 
Q 48.578125 29.546875 45.375 32.171875 
Q 42.1875 34.8125 35.109375 34.8125 
z
M 25.09375 64.796875 
L 20.796875 42.828125 
L 35.5 42.828125 
Q 43.359375 42.828125 47.78125 46.234375 
Q 52.203125 49.65625 52.203125 55.71875 
Q 52.203125 60.453125 49.21875 62.625 
Q 46.234375 64.796875 39.703125 64.796875 
z
" id="DejaVuSans-Oblique-66"/>
     </defs>
     <g transform="translate(26.035312 224.99)rotate(-90)scale(0.1 -0.1)">
      <use transform="translate(0 0.015625)" xlink:href="#DejaVuSans-Oblique-83"/>
      <use transform="translate(63.476562 0.015625)" xlink:href="#DejaVuSans-Oblique-78"/>
      <use transform="translate(138.28125 0.015625)" xlink:href="#DejaVuSans-Oblique-82"/>
      <use transform="translate(240.23405 0.015625)" xlink:href="#DejaVuSans-47"/>
      <use transform="translate(306.395835 0.015625)" xlink:href="#DejaVuSans-Oblique-100"/>
      <use transform="translate(369.872397 0.015625)" xlink:href="#DejaVuSans-Oblique-66"/>
     </g>
    </g>
   </g>
   <g id="LineCollection_1">
    <path clip-path="url(#pd043db8d9b)" d="M 80.711287 203.527133 
L 80.711287 203.527133 
" style="fill:none;stroke:#000000;stroke-width:0.8;"/>
    <path clip-path="url(#pd043db8d9b)" d="M 109.582574 203.898335 
L 109.582574 203.898335 
" style="fill:none;stroke:#000000;stroke-width:0.8;"/>
    <path clip-path="url(#pd043db8d9b)" d="M 138.453861 203.635503 
L 138.453861 203.635503 
" style="fill:none;stroke:#000000;stroke-width:0.8;"/>
    <path clip-path="url(#pd043db8d9b)" d="M 167.325149 203.757026 
L 167.325149 203.757026 
" style="fill:none;stroke:#000000;stroke-width:0.8;"/>
    <path clip-path="url(#pd043db8d9b)" d="M 196.196436 203.782061 
L 196.196436 203.782061 
" style="fill:none;stroke:#000000;stroke-width:0.8;"/>
    <path clip-path="url(#pd043db8d9b)" d="M 225.067723 203.820827 
L 225.067723 203.820827 
" style="fill:none;stroke:#000000;stroke-width:0.8;"/>
    <path clip-path="url(#pd043db8d9b)" d="M 253.93901 203.792765 
L 253.93901 203.792765 
" style="fill:none;stroke:#000000;stroke-width:0.8;"/>
    <path clip-path="url(#pd043db8d9b)" d="M 282.810297 203.605571 
L 282.810297 203.605571 
" style="fill:none;stroke:#000000;stroke-width:0.8;"/>
    <path clip-path="url(#pd043db8d9b)" d="M 311.681584 203.874188 
L 311.681584 203.874188 
" style="fill:none;stroke:#000000;stroke-width:0.8;"/>
    <path clip-path="url(#pd043db8d9b)" d="M 340.552871 203.922528 
L 340.552871 203.922528 
" style="fill:none;stroke:#000000;stroke-width:0.8;"/>
    <path clip-path="url(#pd043db8d9b)" d="M 369.424158 203.687793 
L 369.424158 203.687793 
" style="fill:none;stroke:#000000;stroke-width:0.8;"/>
    <path clip-path="url(#pd043db8d9b)" d="M 398.295446 203.767952 
L 398.295446 203.767952 
" style="fill:none;stroke:#000000;stroke-width:0.8;"/>
    <path clip-path="url(#pd043db8d9b)" d="M 427.166733 204.017325 
L 427.166733 204.017325 
" style="fill:none;stroke:#000000;stroke-width:0.8;"/>
    <path clip-path="url(#pd043db8d9b)" d="M 456.03802 203.701528 
L 456.03802 203.701528 
" style="fill:none;stroke:#000000;stroke-width:0.8;"/>
    <path clip-path="url(#pd043db8d9b)" d="M 484.909307 203.735513 
L 484.909307 203.735513 
" style="fill:none;stroke:#000000;stroke-width:0.8;"/>
    <path clip-path="url(#pd043db8d9b)" d="M 513.780594 203.83205 
L 513.780594 203.83205 
" style="fill:none;stroke:#000000;stroke-width:0.8;"/>
    <path clip-path="url(#pd043db8d9b)" d="M 542.651881 203.843154 
L 542.651881 203.843154 
" style="fill:none;stroke:#000000;stroke-width:0.8;"/>
    <path clip-path="url(#pd043db8d9b)" d="M 571.523168 203.819654 
L 571.523168 203.819654 
" style="fill:none;stroke:#000000;stroke-width:0.8;"/>
    <path clip-path="url(#pd043db8d9b)" d="M 600.394455 203.929753 
L 600.394455 203.929753 
" style="fill:none;stroke:#000000;stroke-width:0.8;"/>
    <path clip-path="url(#pd043db8d9b)" d="M 629.265743 203.833997 
L 629.265743 203.833997 
" style="fill:none;stroke:#000000;stroke-width:0.8;"/>
   </g>
   <g id="LineCollection_2">
    <path clip-path="url(#pd043db8d9b)" d="M 80.711287 204.395771 
L 80.711287 202.658495 
" style="fill:none;stroke:#000000;stroke-width:0.8;"/>
    <path clip-path="url(#pd043db8d9b)" d="M 109.582574 205.107143 
L 109.582574 202.689527 
" style="fill:none;stroke:#000000;stroke-width:0.8;"/>
    <path clip-path="url(#pd043db8d9b)" d="M 138.453861 204.782908 
L 138.453861 202.488099 
" style="fill:none;stroke:#000000;stroke-width:0.8;"/>
    <path clip-path="url(#pd043db8d9b)" d="M 167.325149 204.88121 
L 167.325149 202.632842 
" style="fill:none;stroke:#000000;stroke-width:0.8;"/>
    <path clip-path="url(#pd043db8d9b)" d="M 196.196436 204.731118 
L 196.196436 202.833004 
" style="fill:none;stroke:#000000;stroke-width:0.8;"/>
    <path clip-path="url(#pd043db8d9b)" d="M 225.067723 205.104361 
L 225.067723 202.537294 
" style="fill:none;stroke:#000000;stroke-width:0.8;"/>
    <path clip-path="url(#pd043db8d9b)" d="M 253.93901 204.708702 
L 253.93901 202.876828 
" style="fill:none;stroke:#000000;stroke-width:0.8;"/>
    <path clip-path="url(#pd043db8d9b)" d="M 282.810297 204.727389 
L 282.810297 202.483753 
" style="fill:none;stroke:#000000;stroke-width:0.8;"/>
    <path clip-path="url(#pd043db8d9b)" d="M 311.681584 204.842287 
L 311.681584 202.906088 
" style="fill:none;stroke:#000000;stroke-width:0.8;"/>
    <path clip-path="url(#pd043db8d9b)" d="M 340.552871 205.21442 
L 340.552871 202.630635 
" style="fill:none;stroke:#000000;stroke-width:0.8;"/>
    <path clip-path="url(#pd043db8d9b)" d="M 369.424158 204.596871 
L 369.424158 202.778715 
" style="fill:none;stroke:#000000;stroke-width:0.8;"/>
    <path clip-path="url(#pd043db8d9b)" d="M 398.295446 205.202576 
L 398.295446 202.333327 
" style="fill:none;stroke:#000000;stroke-width:0.8;"/>
    <path clip-path="url(#pd043db8d9b)" d="M 427.166733 205.06624 
L 427.166733 202.96841 
" style="fill:none;stroke:#000000;stroke-width:0.8;"/>
    <path clip-path="url(#pd043db8d9b)" d="M 456.03802 204.568785 
L 456.03802 202.83427 
" style="fill:none;stroke:#000000;stroke-width:0.8;"/>
    <path clip-path="url(#pd043db8d9b)" d="M 484.909307 204.765172 
L 484.909307 202.705854 
" style="fill:none;stroke:#000000;stroke-width:0.8;"/>
    <path clip-path="url(#pd043db8d9b)" d="M 513.780594 204.970121 
L 513.780594 202.693979 
" style="fill:none;stroke:#000000;stroke-width:0.8;"/>
    <path clip-path="url(#pd043db8d9b)" d="M 542.651881 205.276818 
L 542.651881 202.409491 
" style="fill:none;stroke:#000000;stroke-width:0.8;"/>
    <path clip-path="url(#pd043db8d9b)" d="M 571.523168 204.795946 
L 571.523168 202.843361 
" style="fill:none;stroke:#000000;stroke-width:0.8;"/>
    <path clip-path="url(#pd043db8d9b)" d="M 600.394455 204.893405 
L 600.394455 202.966101 
" style="fill:none;stroke:#000000;stroke-width:0.8;"/>
    <path clip-path="url(#pd043db8d9b)" d="M 629.265743 205.105482 
L 629.265743 202.562513 
" style="fill:none;stroke:#000000;stroke-width:0.8;"/>
   </g>
   <g id="LineCollection_3">
    <path clip-path="url(#pd043db8d9b)" d="M 80.711287 223.75008 
L 80.711287 223.75008 
" style="fill:none;stroke:#000000;stroke-width:0.8;"/>
    <path clip-path="url(#pd043db8d9b)" d="M 109.582574 223.568832 
L 109.582574 223.568832 
" style="fill:none;stroke:#000000;stroke-width:0.8;"/>
    <path clip-path="url(#pd043db8d9b)" d="M 138.453861 223.461653 
L 138.453861 223.461653 
" style="fill:none;stroke:#000000;stroke-width:0.8;"/>
    <path clip-path="url(#pd043db8d9b)" d="M 167.325149 223.858418 
L 167.325149 223.858418 
" style="fill:none;stroke:#000000;stroke-width:0.8;"/>
    <path clip-path="url(#pd043db8d9b)" d="M 196.196436 223.720939 
L 196.196436 223.720939 
" style="fill:none;stroke:#000000;stroke-width:0.8;"/>
    <path clip-path="url(#pd043db8d9b)" d="M 225.067723 223.672653 
L 225.067723 223.672653 
" style="fill:none;stroke:#000000;stroke-width:0.8;"/>
    <path clip-path="url(#pd043db8d9b)" d="M 253.93901 223.814216 
L 253.93901 223.814216 
" style="fill:none;stroke:#000000;stroke-width:0.8;"/>
    <path clip-path="url(#pd043db8d9b)" d="M 282.810297 223.644434 
L 282.810297 223.644434 
" style="fill:none;stroke:#000000;stroke-width:0.8;"/>
    <path clip-path="url(#pd043db8d9b)" d="M 311.681584 223.783982 
L 311.681584 223.783982 
" style="fill:none;stroke:#000000;stroke-width:0.8;"/>
    <path clip-path="url(#pd043db8d9b)" d="M 340.552871 223.941805 
L 340.552871 223.941805 
" style="fill:none;stroke:#000000;stroke-width:0.8;"/>
    <path clip-path="url(#pd043db8d9b)" d="M 369.424158 223.763369 
L 369.424158 223.763369 
" style="fill:none;stroke:#000000;stroke-width:0.8;"/>
    <path clip-path="url(#pd043db8d9b)" d="M 398.295446 223.650269 
L 398.295446 223.650269 
" style="fill:none;stroke:#000000;stroke-width:0.8;"/>
    <path clip-path="url(#pd043db8d9b)" d="M 427.166733 223.471262 
L 427.166733 223.471262 
" style="fill:none;stroke:#000000;stroke-width:0.8;"/>
    <path clip-path="url(#pd043db8d9b)" d="M 456.03802 223.725571 
L 456.03802 223.725571 
" style="fill:none;stroke:#000000;stroke-width:0.8;"/>
    <path clip-path="url(#pd043db8d9b)" d="M 484.909307 223.925582 
L 484.909307 223.925582 
" style="fill:none;stroke:#000000;stroke-width:0.8;"/>
    <path clip-path="url(#pd043db8d9b)" d="M 513.780594 223.640703 
L 513.780594 223.640703 
" style="fill:none;stroke:#000000;stroke-width:0.8;"/>
    <path clip-path="url(#pd043db8d9b)" d="M 542.651881 226.736099 
L 542.651881 226.736099 
" style="fill:none;stroke:#000000;stroke-width:0.8;"/>
    <path clip-path="url(#pd043db8d9b)" d="M 571.523168 226.386653 
L 571.523168 226.386653 
" style="fill:none;stroke:#000000;stroke-width:0.8;"/>
    <path clip-path="url(#pd043db8d9b)" d="M 600.394455 223.76997 
L 600.394455 223.76997 
" style="fill:none;stroke:#000000;stroke-width:0.8;"/>
    <path clip-path="url(#pd043db8d9b)" d="M 629.265743 223.878317 
L 629.265743 223.878317 
" style="fill:none;stroke:#000000;stroke-width:0.8;"/>
   </g>
   <g id="LineCollection_4">
    <path clip-path="url(#pd043db8d9b)" d="M 80.711287 225.869492 
L 80.711287 221.630668 
" style="fill:none;stroke:#000000;stroke-width:0.8;"/>
    <path clip-path="url(#pd043db8d9b)" d="M 109.582574 225.561794 
L 109.582574 221.57587 
" style="fill:none;stroke:#000000;stroke-width:0.8;"/>
    <path clip-path="url(#pd043db8d9b)" d="M 138.453861 225.728088 
L 138.453861 221.195219 
" style="fill:none;stroke:#000000;stroke-width:0.8;"/>
    <path clip-path="url(#pd043db8d9b)" d="M 167.325149 225.552609 
L 167.325149 222.164227 
" style="fill:none;stroke:#000000;stroke-width:0.8;"/>
    <path clip-path="url(#pd043db8d9b)" d="M 196.196436 225.817536 
L 196.196436 221.624343 
" style="fill:none;stroke:#000000;stroke-width:0.8;"/>
    <path clip-path="url(#pd043db8d9b)" d="M 225.067723 225.511638 
L 225.067723 221.833667 
" style="fill:none;stroke:#000000;stroke-width:0.8;"/>
    <path clip-path="url(#pd043db8d9b)" d="M 253.93901 226.072544 
L 253.93901 221.555888 
" style="fill:none;stroke:#000000;stroke-width:0.8;"/>
    <path clip-path="url(#pd043db8d9b)" d="M 282.810297 225.966177 
L 282.810297 221.322692 
" style="fill:none;stroke:#000000;stroke-width:0.8;"/>
    <path clip-path="url(#pd043db8d9b)" d="M 311.681584 225.807025 
L 311.681584 221.760938 
" style="fill:none;stroke:#000000;stroke-width:0.8;"/>
    <path clip-path="url(#pd043db8d9b)" d="M 340.552871 226.33793 
L 340.552871 221.54568 
" style="fill:none;stroke:#000000;stroke-width:0.8;"/>
    <path clip-path="url(#pd043db8d9b)" d="M 369.424158 225.324455 
L 369.424158 222.202282 
" style="fill:none;stroke:#000000;stroke-width:0.8;"/>
    <path clip-path="url(#pd043db8d9b)" d="M 398.295446 225.504231 
L 398.295446 221.796308 
" style="fill:none;stroke:#000000;stroke-width:0.8;"/>
    <path clip-path="url(#pd043db8d9b)" d="M 427.166733 225.27304 
L 427.166733 221.669485 
" style="fill:none;stroke:#000000;stroke-width:0.8;"/>
    <path clip-path="url(#pd043db8d9b)" d="M 456.03802 225.739209 
L 456.03802 221.711934 
" style="fill:none;stroke:#000000;stroke-width:0.8;"/>
    <path clip-path="url(#pd043db8d9b)" d="M 484.909307 225.708442 
L 484.909307 222.142723 
" style="fill:none;stroke:#000000;stroke-width:0.8;"/>
    <path clip-path="url(#pd043db8d9b)" d="M 513.780594 225.382868 
L 513.780594 221.898538 
" style="fill:none;stroke:#000000;stroke-width:0.8;"/>
    <path clip-path="url(#pd043db8d9b)" d="M 542.651881 259.874471 
L 542.651881 193.597726 
" style="fill:none;stroke:#000000;stroke-width:0.8;"/>
    <path clip-path="url(#pd043db8d9b)" d="M 571.523168 255.178022 
L 571.523168 197.595283 
" style="fill:none;stroke:#000000;stroke-width:0.8;"/>
    <path clip-path="url(#pd043db8d9b)" d="M 600.394455 225.940137 
L 600.394455 221.599804 
" style="fill:none;stroke:#000000;stroke-width:0.8;"/>
    <path clip-path="url(#pd043db8d9b)" d="M 629.265743 226.569023 
L 629.265743 221.187612 
" style="fill:none;stroke:#000000;stroke-width:0.8;"/>
   </g>
   <g id="LineCollection_5">
    <path clip-path="url(#pd043db8d9b)" d="M 80.711287 260.596141 
L 80.711287 260.596141 
" style="fill:none;stroke:#000000;stroke-width:0.8;"/>
    <path clip-path="url(#pd043db8d9b)" d="M 109.582574 259.379564 
L 109.582574 259.379564 
" style="fill:none;stroke:#000000;stroke-width:0.8;"/>
    <path clip-path="url(#pd043db8d9b)" d="M 138.453861 260.690272 
L 138.453861 260.690272 
" style="fill:none;stroke:#000000;stroke-width:0.8;"/>
    <path clip-path="url(#pd043db8d9b)" d="M 167.325149 259.596754 
L 167.325149 259.596754 
" style="fill:none;stroke:#000000;stroke-width:0.8;"/>
    <path clip-path="url(#pd043db8d9b)" d="M 196.196436 259.520228 
L 196.196436 259.520228 
" style="fill:none;stroke:#000000;stroke-width:0.8;"/>
    <path clip-path="url(#pd043db8d9b)" d="M 225.067723 260.651527 
L 225.067723 260.651527 
" style="fill:none;stroke:#000000;stroke-width:0.8;"/>
    <path clip-path="url(#pd043db8d9b)" d="M 253.93901 259.507318 
L 253.93901 259.507318 
" style="fill:none;stroke:#000000;stroke-width:0.8;"/>
    <path clip-path="url(#pd043db8d9b)" d="M 282.810297 259.397014 
L 282.810297 259.397014 
" style="fill:none;stroke:#000000;stroke-width:0.8;"/>
    <path clip-path="url(#pd043db8d9b)" d="M 311.681584 259.400751 
L 311.681584 259.400751 
" style="fill:none;stroke:#000000;stroke-width:0.8;"/>
    <path clip-path="url(#pd043db8d9b)" d="M 340.552871 259.443461 
L 340.552871 259.443461 
" style="fill:none;stroke:#000000;stroke-width:0.8;"/>
    <path clip-path="url(#pd043db8d9b)" d="M 369.424158 260.577705 
L 369.424158 260.577705 
" style="fill:none;stroke:#000000;stroke-width:0.8;"/>
    <path clip-path="url(#pd043db8d9b)" d="M 398.295446 259.478334 
L 398.295446 259.478334 
" style="fill:none;stroke:#000000;stroke-width:0.8;"/>
    <path clip-path="url(#pd043db8d9b)" d="M 427.166733 260.545712 
L 427.166733 260.545712 
" style="fill:none;stroke:#000000;stroke-width:0.8;"/>
    <path clip-path="url(#pd043db8d9b)" d="M 456.03802 261.275044 
L 456.03802 261.275044 
" style="fill:none;stroke:#000000;stroke-width:0.8;"/>
    <path clip-path="url(#pd043db8d9b)" d="M 484.909307 260.462 
L 484.909307 260.462 
" style="fill:none;stroke:#000000;stroke-width:0.8;"/>
    <path clip-path="url(#pd043db8d9b)" d="M 513.780594 260.693108 
L 513.780594 260.693108 
" style="fill:none;stroke:#000000;stroke-width:0.8;"/>
    <path clip-path="url(#pd043db8d9b)" d="M 542.651881 259.479127 
L 542.651881 259.479127 
" style="fill:none;stroke:#000000;stroke-width:0.8;"/>
    <path clip-path="url(#pd043db8d9b)" d="M 571.523168 259.375193 
L 571.523168 259.375193 
" style="fill:none;stroke:#000000;stroke-width:0.8;"/>
    <path clip-path="url(#pd043db8d9b)" d="M 600.394455 259.334967 
L 600.394455 259.334967 
" style="fill:none;stroke:#000000;stroke-width:0.8;"/>
    <path clip-path="url(#pd043db8d9b)" d="M 629.265743 259.408507 
L 629.265743 259.408507 
" style="fill:none;stroke:#000000;stroke-width:0.8;"/>
   </g>
   <g id="LineCollection_6">
    <path clip-path="url(#pd043db8d9b)" d="M 80.711287 274.574003 
L 80.711287 246.618278 
" style="fill:none;stroke:#000000;stroke-width:0.8;"/>
    <path clip-path="url(#pd043db8d9b)" d="M 109.582574 260.451728 
L 109.582574 258.3074 
" style="fill:none;stroke:#000000;stroke-width:0.8;"/>
    <path clip-path="url(#pd043db8d9b)" d="M 138.453861 272.280962 
L 138.453861 249.099582 
" style="fill:none;stroke:#000000;stroke-width:0.8;"/>
    <path clip-path="url(#pd043db8d9b)" d="M 167.325149 260.577454 
L 167.325149 258.616055 
" style="fill:none;stroke:#000000;stroke-width:0.8;"/>
    <path clip-path="url(#pd043db8d9b)" d="M 196.196436 260.568029 
L 196.196436 258.472427 
" style="fill:none;stroke:#000000;stroke-width:0.8;"/>
    <path clip-path="url(#pd043db8d9b)" d="M 225.067723 274.993043 
L 225.067723 246.31001 
" style="fill:none;stroke:#000000;stroke-width:0.8;"/>
    <path clip-path="url(#pd043db8d9b)" d="M 253.93901 260.707321 
L 253.93901 258.307315 
" style="fill:none;stroke:#000000;stroke-width:0.8;"/>
    <path clip-path="url(#pd043db8d9b)" d="M 282.810297 260.541429 
L 282.810297 258.252598 
" style="fill:none;stroke:#000000;stroke-width:0.8;"/>
    <path clip-path="url(#pd043db8d9b)" d="M 311.681584 260.550579 
L 311.681584 258.250924 
" style="fill:none;stroke:#000000;stroke-width:0.8;"/>
    <path clip-path="url(#pd043db8d9b)" d="M 340.552871 260.602877 
L 340.552871 258.284045 
" style="fill:none;stroke:#000000;stroke-width:0.8;"/>
    <path clip-path="url(#pd043db8d9b)" d="M 369.424158 271.924901 
L 369.424158 249.230509 
" style="fill:none;stroke:#000000;stroke-width:0.8;"/>
    <path clip-path="url(#pd043db8d9b)" d="M 398.295446 260.504083 
L 398.295446 258.452584 
" style="fill:none;stroke:#000000;stroke-width:0.8;"/>
    <path clip-path="url(#pd043db8d9b)" d="M 427.166733 273.63218 
L 427.166733 247.459244 
" style="fill:none;stroke:#000000;stroke-width:0.8;"/>
    <path clip-path="url(#pd043db8d9b)" d="M 456.03802 282.067472 
L 456.03802 240.482617 
" style="fill:none;stroke:#000000;stroke-width:0.8;"/>
    <path clip-path="url(#pd043db8d9b)" d="M 484.909307 273.205002 
L 484.909307 247.718999 
" style="fill:none;stroke:#000000;stroke-width:0.8;"/>
    <path clip-path="url(#pd043db8d9b)" d="M 513.780594 274.672556 
L 513.780594 246.713661 
" style="fill:none;stroke:#000000;stroke-width:0.8;"/>
    <path clip-path="url(#pd043db8d9b)" d="M 542.651881 260.854917 
L 542.651881 258.103337 
" style="fill:none;stroke:#000000;stroke-width:0.8;"/>
    <path clip-path="url(#pd043db8d9b)" d="M 571.523168 260.132686 
L 571.523168 258.617701 
" style="fill:none;stroke:#000000;stroke-width:0.8;"/>
    <path clip-path="url(#pd043db8d9b)" d="M 600.394455 260.212868 
L 600.394455 258.457065 
" style="fill:none;stroke:#000000;stroke-width:0.8;"/>
    <path clip-path="url(#pd043db8d9b)" d="M 629.265743 260.564952 
L 629.265743 258.252062 
" style="fill:none;stroke:#000000;stroke-width:0.8;"/>
   </g>
   <g id="LineCollection_7">
    <path clip-path="url(#pd043db8d9b)" d="M 80.711287 203.378493 
L 80.711287 203.378493 
" style="fill:none;stroke:#0000ff;stroke-width:0.8;"/>
    <path clip-path="url(#pd043db8d9b)" d="M 109.582574 203.687172 
L 109.582574 203.687172 
" style="fill:none;stroke:#0000ff;stroke-width:0.8;"/>
    <path clip-path="url(#pd043db8d9b)" d="M 138.453861 203.442492 
L 138.453861 203.442492 
" style="fill:none;stroke:#0000ff;stroke-width:0.8;"/>
    <path clip-path="url(#pd043db8d9b)" d="M 167.325149 203.37373 
L 167.325149 203.37373 
" style="fill:none;stroke:#0000ff;stroke-width:0.8;"/>
    <path clip-path="url(#pd043db8d9b)" d="M 196.196436 203.794589 
L 196.196436 203.794589 
" style="fill:none;stroke:#0000ff;stroke-width:0.8;"/>
    <path clip-path="url(#pd043db8d9b)" d="M 225.067723 203.803636 
L 225.067723 203.803636 
" style="fill:none;stroke:#0000ff;stroke-width:0.8;"/>
    <path clip-path="url(#pd043db8d9b)" d="M 253.93901 203.567492 
L 253.93901 203.567492 
" style="fill:none;stroke:#0000ff;stroke-width:0.8;"/>
    <path clip-path="url(#pd043db8d9b)" d="M 282.810297 203.932775 
L 282.810297 203.932775 
" style="fill:none;stroke:#0000ff;stroke-width:0.8;"/>
    <path clip-path="url(#pd043db8d9b)" d="M 311.681584 204.005447 
L 311.681584 204.005447 
" style="fill:none;stroke:#0000ff;stroke-width:0.8;"/>
    <path clip-path="url(#pd043db8d9b)" d="M 340.552871 204.244183 
L 340.552871 204.244183 
" style="fill:none;stroke:#0000ff;stroke-width:0.8;"/>
    <path clip-path="url(#pd043db8d9b)" d="M 369.424158 204.017335 
L 369.424158 204.017335 
" style="fill:none;stroke:#0000ff;stroke-width:0.8;"/>
    <path clip-path="url(#pd043db8d9b)" d="M 398.295446 203.430755 
L 398.295446 203.430755 
" style="fill:none;stroke:#0000ff;stroke-width:0.8;"/>
    <path clip-path="url(#pd043db8d9b)" d="M 427.166733 203.258127 
L 427.166733 203.258127 
" style="fill:none;stroke:#0000ff;stroke-width:0.8;"/>
    <path clip-path="url(#pd043db8d9b)" d="M 456.03802 203.871317 
L 456.03802 203.871317 
" style="fill:none;stroke:#0000ff;stroke-width:0.8;"/>
    <path clip-path="url(#pd043db8d9b)" d="M 484.909307 203.306031 
L 484.909307 203.306031 
" style="fill:none;stroke:#0000ff;stroke-width:0.8;"/>
    <path clip-path="url(#pd043db8d9b)" d="M 513.780594 203.966949 
L 513.780594 203.966949 
" style="fill:none;stroke:#0000ff;stroke-width:0.8;"/>
    <path clip-path="url(#pd043db8d9b)" d="M 542.651881 204.194129 
L 542.651881 204.194129 
" style="fill:none;stroke:#0000ff;stroke-width:0.8;"/>
    <path clip-path="url(#pd043db8d9b)" d="M 571.523168 204.529558 
L 571.523168 204.529558 
" style="fill:none;stroke:#0000ff;stroke-width:0.8;"/>
    <path clip-path="url(#pd043db8d9b)" d="M 600.394455 204.246044 
L 600.394455 204.246044 
" style="fill:none;stroke:#0000ff;stroke-width:0.8;"/>
    <path clip-path="url(#pd043db8d9b)" d="M 629.265743 203.18164 
L 629.265743 203.18164 
" style="fill:none;stroke:#0000ff;stroke-width:0.8;"/>
   </g>
   <g id="LineCollection_8">
    <path clip-path="url(#pd043db8d9b)" d="M 80.711287 205.35159 
L 80.711287 201.405397 
" style="fill:none;stroke:#0000ff;stroke-width:0.8;"/>
    <path clip-path="url(#pd043db8d9b)" d="M 109.582574 207.152255 
L 109.582574 200.222089 
" style="fill:none;stroke:#0000ff;stroke-width:0.8;"/>
    <path clip-path="url(#pd043db8d9b)" d="M 138.453861 206.141162 
L 138.453861 200.743822 
" style="fill:none;stroke:#0000ff;stroke-width:0.8;"/>
    <path clip-path="url(#pd043db8d9b)" d="M 167.325149 206.280842 
L 167.325149 200.466618 
" style="fill:none;stroke:#0000ff;stroke-width:0.8;"/>
    <path clip-path="url(#pd043db8d9b)" d="M 196.196436 207.797872 
L 196.196436 199.791307 
" style="fill:none;stroke:#0000ff;stroke-width:0.8;"/>
    <path clip-path="url(#pd043db8d9b)" d="M 225.067723 206.843616 
L 225.067723 200.763655 
" style="fill:none;stroke:#0000ff;stroke-width:0.8;"/>
    <path clip-path="url(#pd043db8d9b)" d="M 253.93901 206.400434 
L 253.93901 200.73455 
" style="fill:none;stroke:#0000ff;stroke-width:0.8;"/>
    <path clip-path="url(#pd043db8d9b)" d="M 282.810297 207.850719 
L 282.810297 200.014831 
" style="fill:none;stroke:#0000ff;stroke-width:0.8;"/>
    <path clip-path="url(#pd043db8d9b)" d="M 311.681584 207.833794 
L 311.681584 200.177099 
" style="fill:none;stroke:#0000ff;stroke-width:0.8;"/>
    <path clip-path="url(#pd043db8d9b)" d="M 340.552871 208.371388 
L 340.552871 200.116978 
" style="fill:none;stroke:#0000ff;stroke-width:0.8;"/>
    <path clip-path="url(#pd043db8d9b)" d="M 369.424158 207.602906 
L 369.424158 200.431764 
" style="fill:none;stroke:#0000ff;stroke-width:0.8;"/>
    <path clip-path="url(#pd043db8d9b)" d="M 398.295446 206.024075 
L 398.295446 200.837434 
" style="fill:none;stroke:#0000ff;stroke-width:0.8;"/>
    <path clip-path="url(#pd043db8d9b)" d="M 427.166733 205.92123 
L 427.166733 200.595023 
" style="fill:none;stroke:#0000ff;stroke-width:0.8;"/>
    <path clip-path="url(#pd043db8d9b)" d="M 456.03802 207.417299 
L 456.03802 200.325334 
" style="fill:none;stroke:#0000ff;stroke-width:0.8;"/>
    <path clip-path="url(#pd043db8d9b)" d="M 484.909307 205.000568 
L 484.909307 201.611493 
" style="fill:none;stroke:#0000ff;stroke-width:0.8;"/>
    <path clip-path="url(#pd043db8d9b)" d="M 513.780594 208.05277 
L 513.780594 199.881129 
" style="fill:none;stroke:#0000ff;stroke-width:0.8;"/>
    <path clip-path="url(#pd043db8d9b)" d="M 542.651881 212.26984 
L 542.651881 196.118418 
" style="fill:none;stroke:#0000ff;stroke-width:0.8;"/>
    <path clip-path="url(#pd043db8d9b)" d="M 571.523168 212.858348 
L 571.523168 196.200768 
" style="fill:none;stroke:#0000ff;stroke-width:0.8;"/>
    <path clip-path="url(#pd043db8d9b)" d="M 600.394455 211.118105 
L 600.394455 197.373984 
" style="fill:none;stroke:#0000ff;stroke-width:0.8;"/>
    <path clip-path="url(#pd043db8d9b)" d="M 629.265743 204.743514 
L 629.265743 201.619767 
" style="fill:none;stroke:#0000ff;stroke-width:0.8;"/>
   </g>
   <g id="LineCollection_9">
    <path clip-path="url(#pd043db8d9b)" d="M 80.711287 222.36634 
L 80.711287 222.36634 
" style="fill:none;stroke:#0000ff;stroke-width:0.8;"/>
    <path clip-path="url(#pd043db8d9b)" d="M 109.582574 222.122834 
L 109.582574 222.122834 
" style="fill:none;stroke:#0000ff;stroke-width:0.8;"/>
    <path clip-path="url(#pd043db8d9b)" d="M 138.453861 222.488697 
L 138.453861 222.488697 
" style="fill:none;stroke:#0000ff;stroke-width:0.8;"/>
    <path clip-path="url(#pd043db8d9b)" d="M 167.325149 222.547719 
L 167.325149 222.547719 
" style="fill:none;stroke:#0000ff;stroke-width:0.8;"/>
    <path clip-path="url(#pd043db8d9b)" d="M 196.196436 222.663038 
L 196.196436 222.663038 
" style="fill:none;stroke:#0000ff;stroke-width:0.8;"/>
    <path clip-path="url(#pd043db8d9b)" d="M 225.067723 222.321683 
L 225.067723 222.321683 
" style="fill:none;stroke:#0000ff;stroke-width:0.8;"/>
    <path clip-path="url(#pd043db8d9b)" d="M 253.93901 222.94744 
L 253.93901 222.94744 
" style="fill:none;stroke:#0000ff;stroke-width:0.8;"/>
    <path clip-path="url(#pd043db8d9b)" d="M 282.810297 222.821253 
L 282.810297 222.821253 
" style="fill:none;stroke:#0000ff;stroke-width:0.8;"/>
    <path clip-path="url(#pd043db8d9b)" d="M 311.681584 222.876388 
L 311.681584 222.876388 
" style="fill:none;stroke:#0000ff;stroke-width:0.8;"/>
    <path clip-path="url(#pd043db8d9b)" d="M 340.552871 222.878222 
L 340.552871 222.878222 
" style="fill:none;stroke:#0000ff;stroke-width:0.8;"/>
    <path clip-path="url(#pd043db8d9b)" d="M 369.424158 222.777472 
L 369.424158 222.777472 
" style="fill:none;stroke:#0000ff;stroke-width:0.8;"/>
    <path clip-path="url(#pd043db8d9b)" d="M 398.295446 222.721828 
L 398.295446 222.721828 
" style="fill:none;stroke:#0000ff;stroke-width:0.8;"/>
    <path clip-path="url(#pd043db8d9b)" d="M 427.166733 222.583193 
L 427.166733 222.583193 
" style="fill:none;stroke:#0000ff;stroke-width:0.8;"/>
    <path clip-path="url(#pd043db8d9b)" d="M 456.03802 222.521865 
L 456.03802 222.521865 
" style="fill:none;stroke:#0000ff;stroke-width:0.8;"/>
    <path clip-path="url(#pd043db8d9b)" d="M 484.909307 223.012487 
L 484.909307 223.012487 
" style="fill:none;stroke:#0000ff;stroke-width:0.8;"/>
    <path clip-path="url(#pd043db8d9b)" d="M 513.780594 222.561872 
L 513.780594 222.561872 
" style="fill:none;stroke:#0000ff;stroke-width:0.8;"/>
    <path clip-path="url(#pd043db8d9b)" d="M 542.651881 222.613557 
L 542.651881 222.613557 
" style="fill:none;stroke:#0000ff;stroke-width:0.8;"/>
    <path clip-path="url(#pd043db8d9b)" d="M 571.523168 222.791644 
L 571.523168 222.791644 
" style="fill:none;stroke:#0000ff;stroke-width:0.8;"/>
    <path clip-path="url(#pd043db8d9b)" d="M 600.394455 222.962813 
L 600.394455 222.962813 
" style="fill:none;stroke:#0000ff;stroke-width:0.8;"/>
    <path clip-path="url(#pd043db8d9b)" d="M 629.265743 222.707122 
L 629.265743 222.707122 
" style="fill:none;stroke:#0000ff;stroke-width:0.8;"/>
   </g>
   <g id="LineCollection_10">
    <path clip-path="url(#pd043db8d9b)" d="M 80.711287 224.114943 
L 80.711287 220.617737 
" style="fill:none;stroke:#0000ff;stroke-width:0.8;"/>
    <path clip-path="url(#pd043db8d9b)" d="M 109.582574 223.920092 
L 109.582574 220.325575 
" style="fill:none;stroke:#0000ff;stroke-width:0.8;"/>
    <path clip-path="url(#pd043db8d9b)" d="M 138.453861 224.227292 
L 138.453861 220.750102 
" style="fill:none;stroke:#0000ff;stroke-width:0.8;"/>
    <path clip-path="url(#pd043db8d9b)" d="M 167.325149 224.714774 
L 167.325149 220.380663 
" style="fill:none;stroke:#0000ff;stroke-width:0.8;"/>
    <path clip-path="url(#pd043db8d9b)" d="M 196.196436 224.481118 
L 196.196436 220.844957 
" style="fill:none;stroke:#0000ff;stroke-width:0.8;"/>
    <path clip-path="url(#pd043db8d9b)" d="M 225.067723 223.894619 
L 225.067723 220.748747 
" style="fill:none;stroke:#0000ff;stroke-width:0.8;"/>
    <path clip-path="url(#pd043db8d9b)" d="M 253.93901 224.835674 
L 253.93901 221.059207 
" style="fill:none;stroke:#0000ff;stroke-width:0.8;"/>
    <path clip-path="url(#pd043db8d9b)" d="M 282.810297 224.633977 
L 282.810297 221.008529 
" style="fill:none;stroke:#0000ff;stroke-width:0.8;"/>
    <path clip-path="url(#pd043db8d9b)" d="M 311.681584 224.568418 
L 311.681584 221.184358 
" style="fill:none;stroke:#0000ff;stroke-width:0.8;"/>
    <path clip-path="url(#pd043db8d9b)" d="M 340.552871 224.897805 
L 340.552871 220.85864 
" style="fill:none;stroke:#0000ff;stroke-width:0.8;"/>
    <path clip-path="url(#pd043db8d9b)" d="M 369.424158 224.502211 
L 369.424158 221.052733 
" style="fill:none;stroke:#0000ff;stroke-width:0.8;"/>
    <path clip-path="url(#pd043db8d9b)" d="M 398.295446 224.827737 
L 398.295446 220.615919 
" style="fill:none;stroke:#0000ff;stroke-width:0.8;"/>
    <path clip-path="url(#pd043db8d9b)" d="M 427.166733 224.659848 
L 427.166733 220.506537 
" style="fill:none;stroke:#0000ff;stroke-width:0.8;"/>
    <path clip-path="url(#pd043db8d9b)" d="M 456.03802 224.298378 
L 456.03802 220.745353 
" style="fill:none;stroke:#0000ff;stroke-width:0.8;"/>
    <path clip-path="url(#pd043db8d9b)" d="M 484.909307 224.651854 
L 484.909307 221.373121 
" style="fill:none;stroke:#0000ff;stroke-width:0.8;"/>
    <path clip-path="url(#pd043db8d9b)" d="M 513.780594 224.617961 
L 513.780594 220.505784 
" style="fill:none;stroke:#0000ff;stroke-width:0.8;"/>
    <path clip-path="url(#pd043db8d9b)" d="M 542.651881 224.795059 
L 542.651881 220.432054 
" style="fill:none;stroke:#0000ff;stroke-width:0.8;"/>
    <path clip-path="url(#pd043db8d9b)" d="M 571.523168 224.480078 
L 571.523168 221.103209 
" style="fill:none;stroke:#0000ff;stroke-width:0.8;"/>
    <path clip-path="url(#pd043db8d9b)" d="M 600.394455 224.528312 
L 600.394455 221.397313 
" style="fill:none;stroke:#0000ff;stroke-width:0.8;"/>
    <path clip-path="url(#pd043db8d9b)" d="M 629.265743 224.474527 
L 629.265743 220.939716 
" style="fill:none;stroke:#0000ff;stroke-width:0.8;"/>
   </g>
   <g id="LineCollection_11">
    <path clip-path="url(#pd043db8d9b)" d="M 80.711287 258.967702 
L 80.711287 258.967702 
" style="fill:none;stroke:#0000ff;stroke-width:0.8;"/>
    <path clip-path="url(#pd043db8d9b)" d="M 109.582574 259.040835 
L 109.582574 259.040835 
" style="fill:none;stroke:#0000ff;stroke-width:0.8;"/>
    <path clip-path="url(#pd043db8d9b)" d="M 138.453861 259.042051 
L 138.453861 259.042051 
" style="fill:none;stroke:#0000ff;stroke-width:0.8;"/>
    <path clip-path="url(#pd043db8d9b)" d="M 167.325149 258.927485 
L 167.325149 258.927485 
" style="fill:none;stroke:#0000ff;stroke-width:0.8;"/>
    <path clip-path="url(#pd043db8d9b)" d="M 196.196436 259.118444 
L 196.196436 259.118444 
" style="fill:none;stroke:#0000ff;stroke-width:0.8;"/>
    <path clip-path="url(#pd043db8d9b)" d="M 225.067723 259.088535 
L 225.067723 259.088535 
" style="fill:none;stroke:#0000ff;stroke-width:0.8;"/>
    <path clip-path="url(#pd043db8d9b)" d="M 253.93901 259.120495 
L 253.93901 259.120495 
" style="fill:none;stroke:#0000ff;stroke-width:0.8;"/>
    <path clip-path="url(#pd043db8d9b)" d="M 282.810297 258.914569 
L 282.810297 258.914569 
" style="fill:none;stroke:#0000ff;stroke-width:0.8;"/>
    <path clip-path="url(#pd043db8d9b)" d="M 311.681584 259.050395 
L 311.681584 259.050395 
" style="fill:none;stroke:#0000ff;stroke-width:0.8;"/>
    <path clip-path="url(#pd043db8d9b)" d="M 340.552871 259.081512 
L 340.552871 259.081512 
" style="fill:none;stroke:#0000ff;stroke-width:0.8;"/>
    <path clip-path="url(#pd043db8d9b)" d="M 369.424158 258.916478 
L 369.424158 258.916478 
" style="fill:none;stroke:#0000ff;stroke-width:0.8;"/>
    <path clip-path="url(#pd043db8d9b)" d="M 398.295446 259.013564 
L 398.295446 259.013564 
" style="fill:none;stroke:#0000ff;stroke-width:0.8;"/>
    <path clip-path="url(#pd043db8d9b)" d="M 427.166733 259.063775 
L 427.166733 259.063775 
" style="fill:none;stroke:#0000ff;stroke-width:0.8;"/>
    <path clip-path="url(#pd043db8d9b)" d="M 456.03802 259.062431 
L 456.03802 259.062431 
" style="fill:none;stroke:#0000ff;stroke-width:0.8;"/>
    <path clip-path="url(#pd043db8d9b)" d="M 484.909307 259.128872 
L 484.909307 259.128872 
" style="fill:none;stroke:#0000ff;stroke-width:0.8;"/>
    <path clip-path="url(#pd043db8d9b)" d="M 513.780594 259.061842 
L 513.780594 259.061842 
" style="fill:none;stroke:#0000ff;stroke-width:0.8;"/>
    <path clip-path="url(#pd043db8d9b)" d="M 542.651881 259.136769 
L 542.651881 259.136769 
" style="fill:none;stroke:#0000ff;stroke-width:0.8;"/>
    <path clip-path="url(#pd043db8d9b)" d="M 571.523168 259.091544 
L 571.523168 259.091544 
" style="fill:none;stroke:#0000ff;stroke-width:0.8;"/>
    <path clip-path="url(#pd043db8d9b)" d="M 600.394455 259.035559 
L 600.394455 259.035559 
" style="fill:none;stroke:#0000ff;stroke-width:0.8;"/>
    <path clip-path="url(#pd043db8d9b)" d="M 629.265743 259.074169 
L 629.265743 259.074169 
" style="fill:none;stroke:#0000ff;stroke-width:0.8;"/>
   </g>
   <g id="LineCollection_12">
    <path clip-path="url(#pd043db8d9b)" d="M 80.711287 259.425777 
L 80.711287 258.509628 
" style="fill:none;stroke:#0000ff;stroke-width:0.8;"/>
    <path clip-path="url(#pd043db8d9b)" d="M 109.582574 259.573639 
L 109.582574 258.508032 
" style="fill:none;stroke:#0000ff;stroke-width:0.8;"/>
    <path clip-path="url(#pd043db8d9b)" d="M 138.453861 259.746013 
L 138.453861 258.338088 
" style="fill:none;stroke:#0000ff;stroke-width:0.8;"/>
    <path clip-path="url(#pd043db8d9b)" d="M 167.325149 259.61041 
L 167.325149 258.244561 
" style="fill:none;stroke:#0000ff;stroke-width:0.8;"/>
    <path clip-path="url(#pd043db8d9b)" d="M 196.196436 259.793107 
L 196.196436 258.443781 
" style="fill:none;stroke:#0000ff;stroke-width:0.8;"/>
    <path clip-path="url(#pd043db8d9b)" d="M 225.067723 259.875626 
L 225.067723 258.301443 
" style="fill:none;stroke:#0000ff;stroke-width:0.8;"/>
    <path clip-path="url(#pd043db8d9b)" d="M 253.93901 259.831148 
L 253.93901 258.409841 
" style="fill:none;stroke:#0000ff;stroke-width:0.8;"/>
    <path clip-path="url(#pd043db8d9b)" d="M 282.810297 259.646861 
L 282.810297 258.182276 
" style="fill:none;stroke:#0000ff;stroke-width:0.8;"/>
    <path clip-path="url(#pd043db8d9b)" d="M 311.681584 259.750777 
L 311.681584 258.350013 
" style="fill:none;stroke:#0000ff;stroke-width:0.8;"/>
    <path clip-path="url(#pd043db8d9b)" d="M 340.552871 259.886416 
L 340.552871 258.276609 
" style="fill:none;stroke:#0000ff;stroke-width:0.8;"/>
    <path clip-path="url(#pd043db8d9b)" d="M 369.424158 259.775523 
L 369.424158 258.057432 
" style="fill:none;stroke:#0000ff;stroke-width:0.8;"/>
    <path clip-path="url(#pd043db8d9b)" d="M 398.295446 259.671289 
L 398.295446 258.355838 
" style="fill:none;stroke:#0000ff;stroke-width:0.8;"/>
    <path clip-path="url(#pd043db8d9b)" d="M 427.166733 259.705387 
L 427.166733 258.422162 
" style="fill:none;stroke:#0000ff;stroke-width:0.8;"/>
    <path clip-path="url(#pd043db8d9b)" d="M 456.03802 259.79733 
L 456.03802 258.327531 
" style="fill:none;stroke:#0000ff;stroke-width:0.8;"/>
    <path clip-path="url(#pd043db8d9b)" d="M 484.909307 259.714069 
L 484.909307 258.543675 
" style="fill:none;stroke:#0000ff;stroke-width:0.8;"/>
    <path clip-path="url(#pd043db8d9b)" d="M 513.780594 259.708425 
L 513.780594 258.415259 
" style="fill:none;stroke:#0000ff;stroke-width:0.8;"/>
    <path clip-path="url(#pd043db8d9b)" d="M 542.651881 260.13339 
L 542.651881 258.140148 
" style="fill:none;stroke:#0000ff;stroke-width:0.8;"/>
    <path clip-path="url(#pd043db8d9b)" d="M 571.523168 259.863717 
L 571.523168 258.319372 
" style="fill:none;stroke:#0000ff;stroke-width:0.8;"/>
    <path clip-path="url(#pd043db8d9b)" d="M 600.394455 259.769362 
L 600.394455 258.301756 
" style="fill:none;stroke:#0000ff;stroke-width:0.8;"/>
    <path clip-path="url(#pd043db8d9b)" d="M 629.265743 259.884293 
L 629.265743 258.264045 
" style="fill:none;stroke:#0000ff;stroke-width:0.8;"/>
   </g>
   <g id="line2d_27">
    <path clip-path="url(#pd043db8d9b)" d="M 80.711287 203.527133 
L 109.582574 203.898335 
L 138.453861 203.635503 
L 167.325149 203.757026 
L 196.196436 203.782061 
L 225.067723 203.820827 
L 253.93901 203.792765 
L 282.810297 203.605571 
L 311.681584 203.874188 
L 340.552871 203.922528 
L 369.424158 203.687793 
L 398.295446 203.767952 
L 427.166733 204.017325 
L 456.03802 203.701528 
L 484.909307 203.735513 
L 513.780594 203.83205 
L 542.651881 203.843154 
L 571.523168 203.819654 
L 600.394455 203.929753 
L 629.265743 203.833997 
" style="fill:none;stroke:#000000;stroke-linecap:square;stroke-width:0.8;"/>
    <defs>
     <path d="M 0 3 
C 0.795609 3 1.55874 2.683901 2.12132 2.12132 
C 2.683901 1.55874 3 0.795609 3 0 
C 3 -0.795609 2.683901 -1.55874 2.12132 -2.12132 
C 1.55874 -2.683901 0.795609 -3 0 -3 
C -0.795609 -3 -1.55874 -2.683901 -2.12132 -2.12132 
C -2.683901 -1.55874 -3 -0.795609 -3 0 
C -3 0.795609 -2.683901 1.55874 -2.12132 2.12132 
C -1.55874 2.683901 -0.795609 3 0 3 
z
" id="m66cb316356" style="stroke:#000000;"/>
    </defs>
    <g clip-path="url(#pd043db8d9b)">
     <use style="fill-opacity:0;stroke:#000000;" x="80.711287" xlink:href="#m66cb316356" y="203.527133"/>
     <use style="fill-opacity:0;stroke:#000000;" x="109.582574" xlink:href="#m66cb316356" y="203.898335"/>
     <use style="fill-opacity:0;stroke:#000000;" x="138.453861" xlink:href="#m66cb316356" y="203.635503"/>
     <use style="fill-opacity:0;stroke:#000000;" x="167.325149" xlink:href="#m66cb316356" y="203.757026"/>
     <use style="fill-opacity:0;stroke:#000000;" x="196.196436" xlink:href="#m66cb316356" y="203.782061"/>
     <use style="fill-opacity:0;stroke:#000000;" x="225.067723" xlink:href="#m66cb316356" y="203.820827"/>
     <use style="fill-opacity:0;stroke:#000000;" x="253.93901" xlink:href="#m66cb316356" y="203.792765"/>
     <use style="fill-opacity:0;stroke:#000000;" x="282.810297" xlink:href="#m66cb316356" y="203.605571"/>
     <use style="fill-opacity:0;stroke:#000000;" x="311.681584" xlink:href="#m66cb316356" y="203.874188"/>
     <use style="fill-opacity:0;stroke:#000000;" x="340.552871" xlink:href="#m66cb316356" y="203.922528"/>
     <use style="fill-opacity:0;stroke:#000000;" x="369.424158" xlink:href="#m66cb316356" y="203.687793"/>
     <use style="fill-opacity:0;stroke:#000000;" x="398.295446" xlink:href="#m66cb316356" y="203.767952"/>
     <use style="fill-opacity:0;stroke:#000000;" x="427.166733" xlink:href="#m66cb316356" y="204.017325"/>
     <use style="fill-opacity:0;stroke:#000000;" x="456.03802" xlink:href="#m66cb316356" y="203.701528"/>
     <use style="fill-opacity:0;stroke:#000000;" x="484.909307" xlink:href="#m66cb316356" y="203.735513"/>
     <use style="fill-opacity:0;stroke:#000000;" x="513.780594" xlink:href="#m66cb316356" y="203.83205"/>
     <use style="fill-opacity:0;stroke:#000000;" x="542.651881" xlink:href="#m66cb316356" y="203.843154"/>
     <use style="fill-opacity:0;stroke:#000000;" x="571.523168" xlink:href="#m66cb316356" y="203.819654"/>
     <use style="fill-opacity:0;stroke:#000000;" x="600.394455" xlink:href="#m66cb316356" y="203.929753"/>
     <use style="fill-opacity:0;stroke:#000000;" x="629.265743" xlink:href="#m66cb316356" y="203.833997"/>
    </g>
   </g>
   <g id="line2d_28">
    <path clip-path="url(#pd043db8d9b)" d="M 80.711287 223.75008 
L 109.582574 223.568832 
L 138.453861 223.461653 
L 167.325149 223.858418 
L 196.196436 223.720939 
L 225.067723 223.672653 
L 253.93901 223.814216 
L 282.810297 223.644434 
L 311.681584 223.783982 
L 340.552871 223.941805 
L 369.424158 223.763369 
L 398.295446 223.650269 
L 427.166733 223.471262 
L 456.03802 223.725571 
L 484.909307 223.925582 
L 513.780594 223.640703 
L 542.651881 226.736099 
L 571.523168 226.386653 
L 600.394455 223.76997 
L 629.265743 223.878317 
" style="fill:none;stroke:#000000;stroke-linecap:square;stroke-width:0.8;"/>
    <defs>
     <path d="M -3 3 
L 3 3 
L 3 -3 
L -3 -3 
z
" id="m5af2999c96" style="stroke:#000000;stroke-linejoin:miter;"/>
    </defs>
    <g clip-path="url(#pd043db8d9b)">
     <use style="fill-opacity:0;stroke:#000000;stroke-linejoin:miter;" x="80.711287" xlink:href="#m5af2999c96" y="223.75008"/>
     <use style="fill-opacity:0;stroke:#000000;stroke-linejoin:miter;" x="109.582574" xlink:href="#m5af2999c96" y="223.568832"/>
     <use style="fill-opacity:0;stroke:#000000;stroke-linejoin:miter;" x="138.453861" xlink:href="#m5af2999c96" y="223.461653"/>
     <use style="fill-opacity:0;stroke:#000000;stroke-linejoin:miter;" x="167.325149" xlink:href="#m5af2999c96" y="223.858418"/>
     <use style="fill-opacity:0;stroke:#000000;stroke-linejoin:miter;" x="196.196436" xlink:href="#m5af2999c96" y="223.720939"/>
     <use style="fill-opacity:0;stroke:#000000;stroke-linejoin:miter;" x="225.067723" xlink:href="#m5af2999c96" y="223.672653"/>
     <use style="fill-opacity:0;stroke:#000000;stroke-linejoin:miter;" x="253.93901" xlink:href="#m5af2999c96" y="223.814216"/>
     <use style="fill-opacity:0;stroke:#000000;stroke-linejoin:miter;" x="282.810297" xlink:href="#m5af2999c96" y="223.644434"/>
     <use style="fill-opacity:0;stroke:#000000;stroke-linejoin:miter;" x="311.681584" xlink:href="#m5af2999c96" y="223.783982"/>
     <use style="fill-opacity:0;stroke:#000000;stroke-linejoin:miter;" x="340.552871" xlink:href="#m5af2999c96" y="223.941805"/>
     <use style="fill-opacity:0;stroke:#000000;stroke-linejoin:miter;" x="369.424158" xlink:href="#m5af2999c96" y="223.763369"/>
     <use style="fill-opacity:0;stroke:#000000;stroke-linejoin:miter;" x="398.295446" xlink:href="#m5af2999c96" y="223.650269"/>
     <use style="fill-opacity:0;stroke:#000000;stroke-linejoin:miter;" x="427.166733" xlink:href="#m5af2999c96" y="223.471262"/>
     <use style="fill-opacity:0;stroke:#000000;stroke-linejoin:miter;" x="456.03802" xlink:href="#m5af2999c96" y="223.725571"/>
     <use style="fill-opacity:0;stroke:#000000;stroke-linejoin:miter;" x="484.909307" xlink:href="#m5af2999c96" y="223.925582"/>
     <use style="fill-opacity:0;stroke:#000000;stroke-linejoin:miter;" x="513.780594" xlink:href="#m5af2999c96" y="223.640703"/>
     <use style="fill-opacity:0;stroke:#000000;stroke-linejoin:miter;" x="542.651881" xlink:href="#m5af2999c96" y="226.736099"/>
     <use style="fill-opacity:0;stroke:#000000;stroke-linejoin:miter;" x="571.523168" xlink:href="#m5af2999c96" y="226.386653"/>
     <use style="fill-opacity:0;stroke:#000000;stroke-linejoin:miter;" x="600.394455" xlink:href="#m5af2999c96" y="223.76997"/>
     <use style="fill-opacity:0;stroke:#000000;stroke-linejoin:miter;" x="629.265743" xlink:href="#m5af2999c96" y="223.878317"/>
    </g>
   </g>
   <g id="line2d_29">
    <path clip-path="url(#pd043db8d9b)" d="M 80.711287 260.596141 
L 109.582574 259.379564 
L 138.453861 260.690272 
L 167.325149 259.596754 
L 196.196436 259.520228 
L 225.067723 260.651527 
L 253.93901 259.507318 
L 282.810297 259.397014 
L 311.681584 259.400751 
L 340.552871 259.443461 
L 369.424158 260.577705 
L 398.295446 259.478334 
L 427.166733 260.545712 
L 456.03802 261.275044 
L 484.909307 260.462 
L 513.780594 260.693108 
L 542.651881 259.479127 
L 571.523168 259.375193 
L 600.394455 259.334967 
L 629.265743 259.408507 
" style="fill:none;stroke:#000000;stroke-linecap:square;stroke-width:0.8;"/>
    <defs>
     <path d="M -3 3 
L 3 -3 
M -3 -3 
L 3 3 
" id="md36d1b98c6" style="stroke:#000000;"/>
    </defs>
    <g clip-path="url(#pd043db8d9b)">
     <use style="fill-opacity:0;stroke:#000000;" x="80.711287" xlink:href="#md36d1b98c6" y="260.596141"/>
     <use style="fill-opacity:0;stroke:#000000;" x="109.582574" xlink:href="#md36d1b98c6" y="259.379564"/>
     <use style="fill-opacity:0;stroke:#000000;" x="138.453861" xlink:href="#md36d1b98c6" y="260.690272"/>
     <use style="fill-opacity:0;stroke:#000000;" x="167.325149" xlink:href="#md36d1b98c6" y="259.596754"/>
     <use style="fill-opacity:0;stroke:#000000;" x="196.196436" xlink:href="#md36d1b98c6" y="259.520228"/>
     <use style="fill-opacity:0;stroke:#000000;" x="225.067723" xlink:href="#md36d1b98c6" y="260.651527"/>
     <use style="fill-opacity:0;stroke:#000000;" x="253.93901" xlink:href="#md36d1b98c6" y="259.507318"/>
     <use style="fill-opacity:0;stroke:#000000;" x="282.810297" xlink:href="#md36d1b98c6" y="259.397014"/>
     <use style="fill-opacity:0;stroke:#000000;" x="311.681584" xlink:href="#md36d1b98c6" y="259.400751"/>
     <use style="fill-opacity:0;stroke:#000000;" x="340.552871" xlink:href="#md36d1b98c6" y="259.443461"/>
     <use style="fill-opacity:0;stroke:#000000;" x="369.424158" xlink:href="#md36d1b98c6" y="260.577705"/>
     <use style="fill-opacity:0;stroke:#000000;" x="398.295446" xlink:href="#md36d1b98c6" y="259.478334"/>
     <use style="fill-opacity:0;stroke:#000000;" x="427.166733" xlink:href="#md36d1b98c6" y="260.545712"/>
     <use style="fill-opacity:0;stroke:#000000;" x="456.03802" xlink:href="#md36d1b98c6" y="261.275044"/>
     <use style="fill-opacity:0;stroke:#000000;" x="484.909307" xlink:href="#md36d1b98c6" y="260.462"/>
     <use style="fill-opacity:0;stroke:#000000;" x="513.780594" xlink:href="#md36d1b98c6" y="260.693108"/>
     <use style="fill-opacity:0;stroke:#000000;" x="542.651881" xlink:href="#md36d1b98c6" y="259.479127"/>
     <use style="fill-opacity:0;stroke:#000000;" x="571.523168" xlink:href="#md36d1b98c6" y="259.375193"/>
     <use style="fill-opacity:0;stroke:#000000;" x="600.394455" xlink:href="#md36d1b98c6" y="259.334967"/>
     <use style="fill-opacity:0;stroke:#000000;" x="629.265743" xlink:href="#md36d1b98c6" y="259.408507"/>
    </g>
   </g>
   <g id="line2d_30">
    <path clip-path="url(#pd043db8d9b)" d="M 80.711287 203.378493 
L 109.582574 203.687172 
L 138.453861 203.442492 
L 167.325149 203.37373 
L 196.196436 203.794589 
L 225.067723 203.803636 
L 253.93901 203.567492 
L 282.810297 203.932775 
L 311.681584 204.005447 
L 340.552871 204.244183 
L 369.424158 204.017335 
L 398.295446 203.430755 
L 427.166733 203.258127 
L 456.03802 203.871317 
L 484.909307 203.306031 
L 513.780594 203.966949 
L 542.651881 204.194129 
L 571.523168 204.529558 
L 600.394455 204.246044 
L 629.265743 203.18164 
" style="fill:none;stroke:#0000ff;stroke-linecap:square;stroke-width:0.8;"/>
    <defs>
     <path d="M 0 3 
C 0.795609 3 1.55874 2.683901 2.12132 2.12132 
C 2.683901 1.55874 3 0.795609 3 0 
C 3 -0.795609 2.683901 -1.55874 2.12132 -2.12132 
C 1.55874 -2.683901 0.795609 -3 0 -3 
C -0.795609 -3 -1.55874 -2.683901 -2.12132 -2.12132 
C -2.683901 -1.55874 -3 -0.795609 -3 0 
C -3 0.795609 -2.683901 1.55874 -2.12132 2.12132 
C -1.55874 2.683901 -0.795609 3 0 3 
z
" id="me6d0db9896" style="stroke:#0000ff;"/>
    </defs>
    <g clip-path="url(#pd043db8d9b)">
     <use style="fill-opacity:0;stroke:#0000ff;" x="80.711287" xlink:href="#me6d0db9896" y="203.378493"/>
     <use style="fill-opacity:0;stroke:#0000ff;" x="109.582574" xlink:href="#me6d0db9896" y="203.687172"/>
     <use style="fill-opacity:0;stroke:#0000ff;" x="138.453861" xlink:href="#me6d0db9896" y="203.442492"/>
     <use style="fill-opacity:0;stroke:#0000ff;" x="167.325149" xlink:href="#me6d0db9896" y="203.37373"/>
     <use style="fill-opacity:0;stroke:#0000ff;" x="196.196436" xlink:href="#me6d0db9896" y="203.794589"/>
     <use style="fill-opacity:0;stroke:#0000ff;" x="225.067723" xlink:href="#me6d0db9896" y="203.803636"/>
     <use style="fill-opacity:0;stroke:#0000ff;" x="253.93901" xlink:href="#me6d0db9896" y="203.567492"/>
     <use style="fill-opacity:0;stroke:#0000ff;" x="282.810297" xlink:href="#me6d0db9896" y="203.932775"/>
     <use style="fill-opacity:0;stroke:#0000ff;" x="311.681584" xlink:href="#me6d0db9896" y="204.005447"/>
     <use style="fill-opacity:0;stroke:#0000ff;" x="340.552871" xlink:href="#me6d0db9896" y="204.244183"/>
     <use style="fill-opacity:0;stroke:#0000ff;" x="369.424158" xlink:href="#me6d0db9896" y="204.017335"/>
     <use style="fill-opacity:0;stroke:#0000ff;" x="398.295446" xlink:href="#me6d0db9896" y="203.430755"/>
     <use style="fill-opacity:0;stroke:#0000ff;" x="427.166733" xlink:href="#me6d0db9896" y="203.258127"/>
     <use style="fill-opacity:0;stroke:#0000ff;" x="456.03802" xlink:href="#me6d0db9896" y="203.871317"/>
     <use style="fill-opacity:0;stroke:#0000ff;" x="484.909307" xlink:href="#me6d0db9896" y="203.306031"/>
     <use style="fill-opacity:0;stroke:#0000ff;" x="513.780594" xlink:href="#me6d0db9896" y="203.966949"/>
     <use style="fill-opacity:0;stroke:#0000ff;" x="542.651881" xlink:href="#me6d0db9896" y="204.194129"/>
     <use style="fill-opacity:0;stroke:#0000ff;" x="571.523168" xlink:href="#me6d0db9896" y="204.529558"/>
     <use style="fill-opacity:0;stroke:#0000ff;" x="600.394455" xlink:href="#me6d0db9896" y="204.246044"/>
     <use style="fill-opacity:0;stroke:#0000ff;" x="629.265743" xlink:href="#me6d0db9896" y="203.18164"/>
    </g>
   </g>
   <g id="line2d_31">
    <path clip-path="url(#pd043db8d9b)" d="M 80.711287 222.36634 
L 109.582574 222.122834 
L 138.453861 222.488697 
L 167.325149 222.547719 
L 196.196436 222.663038 
L 225.067723 222.321683 
L 253.93901 222.94744 
L 282.810297 222.821253 
L 311.681584 222.876388 
L 340.552871 222.878222 
L 369.424158 222.777472 
L 398.295446 222.721828 
L 427.166733 222.583193 
L 456.03802 222.521865 
L 484.909307 223.012487 
L 513.780594 222.561872 
L 542.651881 222.613557 
L 571.523168 222.791644 
L 600.394455 222.962813 
L 629.265743 222.707122 
" style="fill:none;stroke:#0000ff;stroke-linecap:square;stroke-width:0.8;"/>
    <defs>
     <path d="M -3 3 
L 3 3 
L 3 -3 
L -3 -3 
z
" id="m628db37010" style="stroke:#0000ff;stroke-linejoin:miter;"/>
    </defs>
    <g clip-path="url(#pd043db8d9b)">
     <use style="fill-opacity:0;stroke:#0000ff;stroke-linejoin:miter;" x="80.711287" xlink:href="#m628db37010" y="222.36634"/>
     <use style="fill-opacity:0;stroke:#0000ff;stroke-linejoin:miter;" x="109.582574" xlink:href="#m628db37010" y="222.122834"/>
     <use style="fill-opacity:0;stroke:#0000ff;stroke-linejoin:miter;" x="138.453861" xlink:href="#m628db37010" y="222.488697"/>
     <use style="fill-opacity:0;stroke:#0000ff;stroke-linejoin:miter;" x="167.325149" xlink:href="#m628db37010" y="222.547719"/>
     <use style="fill-opacity:0;stroke:#0000ff;stroke-linejoin:miter;" x="196.196436" xlink:href="#m628db37010" y="222.663038"/>
     <use style="fill-opacity:0;stroke:#0000ff;stroke-linejoin:miter;" x="225.067723" xlink:href="#m628db37010" y="222.321683"/>
     <use style="fill-opacity:0;stroke:#0000ff;stroke-linejoin:miter;" x="253.93901" xlink:href="#m628db37010" y="222.94744"/>
     <use style="fill-opacity:0;stroke:#0000ff;stroke-linejoin:miter;" x="282.810297" xlink:href="#m628db37010" y="222.821253"/>
     <use style="fill-opacity:0;stroke:#0000ff;stroke-linejoin:miter;" x="311.681584" xlink:href="#m628db37010" y="222.876388"/>
     <use style="fill-opacity:0;stroke:#0000ff;stroke-linejoin:miter;" x="340.552871" xlink:href="#m628db37010" y="222.878222"/>
     <use style="fill-opacity:0;stroke:#0000ff;stroke-linejoin:miter;" x="369.424158" xlink:href="#m628db37010" y="222.777472"/>
     <use style="fill-opacity:0;stroke:#0000ff;stroke-linejoin:miter;" x="398.295446" xlink:href="#m628db37010" y="222.721828"/>
     <use style="fill-opacity:0;stroke:#0000ff;stroke-linejoin:miter;" x="427.166733" xlink:href="#m628db37010" y="222.583193"/>
     <use style="fill-opacity:0;stroke:#0000ff;stroke-linejoin:miter;" x="456.03802" xlink:href="#m628db37010" y="222.521865"/>
     <use style="fill-opacity:0;stroke:#0000ff;stroke-linejoin:miter;" x="484.909307" xlink:href="#m628db37010" y="223.012487"/>
     <use style="fill-opacity:0;stroke:#0000ff;stroke-linejoin:miter;" x="513.780594" xlink:href="#m628db37010" y="222.561872"/>
     <use style="fill-opacity:0;stroke:#0000ff;stroke-linejoin:miter;" x="542.651881" xlink:href="#m628db37010" y="222.613557"/>
     <use style="fill-opacity:0;stroke:#0000ff;stroke-linejoin:miter;" x="571.523168" xlink:href="#m628db37010" y="222.791644"/>
     <use style="fill-opacity:0;stroke:#0000ff;stroke-linejoin:miter;" x="600.394455" xlink:href="#m628db37010" y="222.962813"/>
     <use style="fill-opacity:0;stroke:#0000ff;stroke-linejoin:miter;" x="629.265743" xlink:href="#m628db37010" y="222.707122"/>
    </g>
   </g>
   <g id="line2d_32">
    <path clip-path="url(#pd043db8d9b)" d="M 80.711287 258.967702 
L 109.582574 259.040835 
L 138.453861 259.042051 
L 167.325149 258.927485 
L 196.196436 259.118444 
L 225.067723 259.088535 
L 253.93901 259.120495 
L 282.810297 258.914569 
L 311.681584 259.050395 
L 340.552871 259.081512 
L 369.424158 258.916478 
L 398.295446 259.013564 
L 427.166733 259.063775 
L 456.03802 259.062431 
L 484.909307 259.128872 
L 513.780594 259.061842 
L 542.651881 259.136769 
L 571.523168 259.091544 
L 600.394455 259.035559 
L 629.265743 259.074169 
" style="fill:none;stroke:#0000ff;stroke-linecap:square;stroke-width:0.8;"/>
    <defs>
     <path d="M -3 3 
L 3 -3 
M -3 -3 
L 3 3 
" id="m2028fbcc4b" style="stroke:#0000ff;"/>
    </defs>
    <g clip-path="url(#pd043db8d9b)">
     <use style="fill-opacity:0;stroke:#0000ff;" x="80.711287" xlink:href="#m2028fbcc4b" y="258.967702"/>
     <use style="fill-opacity:0;stroke:#0000ff;" x="109.582574" xlink:href="#m2028fbcc4b" y="259.040835"/>
     <use style="fill-opacity:0;stroke:#0000ff;" x="138.453861" xlink:href="#m2028fbcc4b" y="259.042051"/>
     <use style="fill-opacity:0;stroke:#0000ff;" x="167.325149" xlink:href="#m2028fbcc4b" y="258.927485"/>
     <use style="fill-opacity:0;stroke:#0000ff;" x="196.196436" xlink:href="#m2028fbcc4b" y="259.118444"/>
     <use style="fill-opacity:0;stroke:#0000ff;" x="225.067723" xlink:href="#m2028fbcc4b" y="259.088535"/>
     <use style="fill-opacity:0;stroke:#0000ff;" x="253.93901" xlink:href="#m2028fbcc4b" y="259.120495"/>
     <use style="fill-opacity:0;stroke:#0000ff;" x="282.810297" xlink:href="#m2028fbcc4b" y="258.914569"/>
     <use style="fill-opacity:0;stroke:#0000ff;" x="311.681584" xlink:href="#m2028fbcc4b" y="259.050395"/>
     <use style="fill-opacity:0;stroke:#0000ff;" x="340.552871" xlink:href="#m2028fbcc4b" y="259.081512"/>
     <use style="fill-opacity:0;stroke:#0000ff;" x="369.424158" xlink:href="#m2028fbcc4b" y="258.916478"/>
     <use style="fill-opacity:0;stroke:#0000ff;" x="398.295446" xlink:href="#m2028fbcc4b" y="259.013564"/>
     <use style="fill-opacity:0;stroke:#0000ff;" x="427.166733" xlink:href="#m2028fbcc4b" y="259.063775"/>
     <use style="fill-opacity:0;stroke:#0000ff;" x="456.03802" xlink:href="#m2028fbcc4b" y="259.062431"/>
     <use style="fill-opacity:0;stroke:#0000ff;" x="484.909307" xlink:href="#m2028fbcc4b" y="259.128872"/>
     <use style="fill-opacity:0;stroke:#0000ff;" x="513.780594" xlink:href="#m2028fbcc4b" y="259.061842"/>
     <use style="fill-opacity:0;stroke:#0000ff;" x="542.651881" xlink:href="#m2028fbcc4b" y="259.136769"/>
     <use style="fill-opacity:0;stroke:#0000ff;" x="571.523168" xlink:href="#m2028fbcc4b" y="259.091544"/>
     <use style="fill-opacity:0;stroke:#0000ff;" x="600.394455" xlink:href="#m2028fbcc4b" y="259.035559"/>
     <use style="fill-opacity:0;stroke:#0000ff;" x="629.265743" xlink:href="#m2028fbcc4b" y="259.074169"/>
    </g>
   </g>
   <g id="line2d_33">
    <path clip-path="url(#pd043db8d9b)" d="M 80.711287 203.527133 
L 109.582574 203.898335 
L 138.453861 203.635503 
L 167.325149 203.757026 
L 196.196436 203.782061 
L 225.067723 203.820827 
L 253.93901 203.792765 
L 282.810297 203.605571 
L 311.681584 203.874188 
L 340.552871 203.922528 
L 369.424158 203.687793 
L 398.295446 203.767952 
L 427.166733 204.017325 
L 456.03802 203.701528 
L 484.909307 203.735513 
L 513.780594 203.83205 
L 542.651881 203.843154 
L 571.523168 203.819654 
L 600.394455 203.929753 
L 629.265743 203.833997 
" style="fill:none;stroke:#000000;stroke-linecap:square;stroke-width:0.8;"/>
   </g>
   <g id="line2d_34">
    <path clip-path="url(#pd043db8d9b)" d="M 80.711287 223.75008 
L 109.582574 223.568832 
L 138.453861 223.461653 
L 167.325149 223.858418 
L 196.196436 223.720939 
L 225.067723 223.672653 
L 253.93901 223.814216 
L 282.810297 223.644434 
L 311.681584 223.783982 
L 340.552871 223.941805 
L 369.424158 223.763369 
L 398.295446 223.650269 
L 427.166733 223.471262 
L 456.03802 223.725571 
L 484.909307 223.925582 
L 513.780594 223.640703 
L 542.651881 226.736099 
L 571.523168 226.386653 
L 600.394455 223.76997 
L 629.265743 223.878317 
" style="fill:none;stroke:#000000;stroke-linecap:square;stroke-width:0.8;"/>
   </g>
   <g id="line2d_35">
    <path clip-path="url(#pd043db8d9b)" d="M 80.711287 260.596141 
L 109.582574 259.379564 
L 138.453861 260.690272 
L 167.325149 259.596754 
L 196.196436 259.520228 
L 225.067723 260.651527 
L 253.93901 259.507318 
L 282.810297 259.397014 
L 311.681584 259.400751 
L 340.552871 259.443461 
L 369.424158 260.577705 
L 398.295446 259.478334 
L 427.166733 260.545712 
L 456.03802 261.275044 
L 484.909307 260.462 
L 513.780594 260.693108 
L 542.651881 259.479127 
L 571.523168 259.375193 
L 600.394455 259.334967 
L 629.265743 259.408507 
" style="fill:none;stroke:#000000;stroke-linecap:square;stroke-width:0.8;"/>
   </g>
   <g id="line2d_36">
    <path clip-path="url(#pd043db8d9b)" d="M 80.711287 203.378493 
L 109.582574 203.687172 
L 138.453861 203.442492 
L 167.325149 203.37373 
L 196.196436 203.794589 
L 225.067723 203.803636 
L 253.93901 203.567492 
L 282.810297 203.932775 
L 311.681584 204.005447 
L 340.552871 204.244183 
L 369.424158 204.017335 
L 398.295446 203.430755 
L 427.166733 203.258127 
L 456.03802 203.871317 
L 484.909307 203.306031 
L 513.780594 203.966949 
L 542.651881 204.194129 
L 571.523168 204.529558 
L 600.394455 204.246044 
L 629.265743 203.18164 
" style="fill:none;stroke:#0000ff;stroke-linecap:square;stroke-width:0.8;"/>
   </g>
   <g id="line2d_37">
    <path clip-path="url(#pd043db8d9b)" d="M 80.711287 222.36634 
L 109.582574 222.122834 
L 138.453861 222.488697 
L 167.325149 222.547719 
L 196.196436 222.663038 
L 225.067723 222.321683 
L 253.93901 222.94744 
L 282.810297 222.821253 
L 311.681584 222.876388 
L 340.552871 222.878222 
L 369.424158 222.777472 
L 398.295446 222.721828 
L 427.166733 222.583193 
L 456.03802 222.521865 
L 484.909307 223.012487 
L 513.780594 222.561872 
L 542.651881 222.613557 
L 571.523168 222.791644 
L 600.394455 222.962813 
L 629.265743 222.707122 
" style="fill:none;stroke:#0000ff;stroke-linecap:square;stroke-width:0.8;"/>
   </g>
   <g id="line2d_38">
    <path clip-path="url(#pd043db8d9b)" d="M 80.711287 258.967702 
L 109.582574 259.040835 
L 138.453861 259.042051 
L 167.325149 258.927485 
L 196.196436 259.118444 
L 225.067723 259.088535 
L 253.93901 259.120495 
L 282.810297 258.914569 
L 311.681584 259.050395 
L 340.552871 259.081512 
L 369.424158 258.916478 
L 398.295446 259.013564 
L 427.166733 259.063775 
L 456.03802 259.062431 
L 484.909307 259.128872 
L 513.780594 259.061842 
L 542.651881 259.136769 
L 571.523168 259.091544 
L 600.394455 259.035559 
L 629.265743 259.074169 
" style="fill:none;stroke:#0000ff;stroke-linecap:square;stroke-width:0.8;"/>
   </g>
   <g id="patch_3">
    <path d="M 51.84 401.76 
L 51.84 4.32 
" style="fill:none;stroke:#000000;stroke-linecap:square;stroke-linejoin:miter;stroke-width:0.8;"/>
   </g>
   <g id="patch_4">
    <path d="M 635.04 401.76 
L 635.04 4.32 
" style="fill:none;stroke:#000000;stroke-linecap:square;stroke-linejoin:miter;stroke-width:0.8;"/>
   </g>
   <g id="patch_5">
    <path d="M 51.84 401.76 
L 635.04 401.76 
" style="fill:none;stroke:#000000;stroke-linecap:square;stroke-linejoin:miter;stroke-width:0.8;"/>
   </g>
   <g id="patch_6">
    <path d="M 51.84 4.32 
L 635.04 4.32 
" style="fill:none;stroke:#000000;stroke-linecap:square;stroke-linejoin:miter;stroke-width:0.8;"/>
   </g>
   <g id="legend_1">
    <g id="patch_7">
     <path d="M 58.84 56.354375 
L 303.482188 56.354375 
Q 305.482188 56.354375 305.482188 54.354375 
L 305.482188 11.32 
Q 305.482188 9.32 303.482188 9.32 
L 58.84 9.32 
Q 56.84 9.32 56.84 11.32 
L 56.84 54.354375 
Q 56.84 56.354375 58.84 56.354375 
z
" style="fill:#ffffff;opacity:0.8;stroke:#cccccc;stroke-linejoin:miter;"/>
    </g>
    <g id="line2d_39">
     <path d="M 60.84 17.418437 
L 80.84 17.418437 
" style="fill:none;stroke:#000000;stroke-linecap:square;stroke-width:0.8;"/>
    </g>
    <g id="line2d_40">
     <g>
      <use style="fill-opacity:0;stroke:#000000;" x="70.84" xlink:href="#m66cb316356" y="17.418437"/>
     </g>
    </g>
    <g id="text_16">
     <!-- FastICA n=4 -->
     <defs>
      <path d="M 9.8125 72.90625 
L 51.703125 72.90625 
L 51.703125 64.59375 
L 19.671875 64.59375 
L 19.671875 43.109375 
L 48.578125 43.109375 
L 48.578125 34.8125 
L 19.671875 34.8125 
L 19.671875 0 
L 9.8125 0 
z
" id="DejaVuSans-70"/>
      <path d="M 34.28125 27.484375 
Q 23.390625 27.484375 19.1875 25 
Q 14.984375 22.515625 14.984375 16.5 
Q 14.984375 11.71875 18.140625 8.90625 
Q 21.296875 6.109375 26.703125 6.109375 
Q 34.1875 6.109375 38.703125 11.40625 
Q 43.21875 16.703125 43.21875 25.484375 
L 43.21875 27.484375 
z
M 52.203125 31.203125 
L 52.203125 0 
L 43.21875 0 
L 43.21875 8.296875 
Q 40.140625 3.328125 35.546875 0.953125 
Q 30.953125 -1.421875 24.3125 -1.421875 
Q 15.921875 -1.421875 10.953125 3.296875 
Q 6 8.015625 6 15.921875 
Q 6 25.140625 12.171875 29.828125 
Q 18.359375 34.515625 30.609375 34.515625 
L 43.21875 34.515625 
L 43.21875 35.40625 
Q 43.21875 41.609375 39.140625 45 
Q 35.0625 48.390625 27.6875 48.390625 
Q 23 48.390625 18.546875 47.265625 
Q 14.109375 46.140625 10.015625 43.890625 
L 10.015625 52.203125 
Q 14.9375 54.109375 19.578125 55.046875 
Q 24.21875 56 28.609375 56 
Q 40.484375 56 46.34375 49.84375 
Q 52.203125 43.703125 52.203125 31.203125 
z
" id="DejaVuSans-97"/>
      <path d="M 44.28125 53.078125 
L 44.28125 44.578125 
Q 40.484375 46.53125 36.375 47.5 
Q 32.28125 48.484375 27.875 48.484375 
Q 21.1875 48.484375 17.84375 46.4375 
Q 14.5 44.390625 14.5 40.28125 
Q 14.5 37.15625 16.890625 35.375 
Q 19.28125 33.59375 26.515625 31.984375 
L 29.59375 31.296875 
Q 39.15625 29.25 43.1875 25.515625 
Q 47.21875 21.78125 47.21875 15.09375 
Q 47.21875 7.46875 41.1875 3.015625 
Q 35.15625 -1.421875 24.609375 -1.421875 
Q 20.21875 -1.421875 15.453125 -0.5625 
Q 10.6875 0.296875 5.421875 2 
L 5.421875 11.28125 
Q 10.40625 8.6875 15.234375 7.390625 
Q 20.0625 6.109375 24.8125 6.109375 
Q 31.15625 6.109375 34.5625 8.28125 
Q 37.984375 10.453125 37.984375 14.40625 
Q 37.984375 18.0625 35.515625 20.015625 
Q 33.0625 21.96875 24.703125 23.78125 
L 21.578125 24.515625 
Q 13.234375 26.265625 9.515625 29.90625 
Q 5.8125 33.546875 5.8125 39.890625 
Q 5.8125 47.609375 11.28125 51.796875 
Q 16.75 56 26.8125 56 
Q 31.78125 56 36.171875 55.265625 
Q 40.578125 54.546875 44.28125 53.078125 
z
" id="DejaVuSans-115"/>
      <path d="M 18.3125 70.21875 
L 18.3125 54.6875 
L 36.8125 54.6875 
L 36.8125 47.703125 
L 18.3125 47.703125 
L 18.3125 18.015625 
Q 18.3125 11.328125 20.140625 9.421875 
Q 21.96875 7.515625 27.59375 7.515625 
L 36.8125 7.515625 
L 36.8125 0 
L 27.59375 0 
Q 17.1875 0 13.234375 3.875 
Q 9.28125 7.765625 9.28125 18.015625 
L 9.28125 47.703125 
L 2.6875 47.703125 
L 2.6875 54.6875 
L 9.28125 54.6875 
L 9.28125 70.21875 
z
" id="DejaVuSans-116"/>
      <path d="M 9.8125 72.90625 
L 19.671875 72.90625 
L 19.671875 0 
L 9.8125 0 
z
" id="DejaVuSans-73"/>
      <path d="M 64.40625 67.28125 
L 64.40625 56.890625 
Q 59.421875 61.53125 53.78125 63.8125 
Q 48.140625 66.109375 41.796875 66.109375 
Q 29.296875 66.109375 22.65625 58.46875 
Q 16.015625 50.828125 16.015625 36.375 
Q 16.015625 21.96875 22.65625 14.328125 
Q 29.296875 6.6875 41.796875 6.6875 
Q 48.140625 6.6875 53.78125 8.984375 
Q 59.421875 11.28125 64.40625 15.921875 
L 64.40625 5.609375 
Q 59.234375 2.09375 53.4375 0.328125 
Q 47.65625 -1.421875 41.21875 -1.421875 
Q 24.65625 -1.421875 15.125 8.703125 
Q 5.609375 18.84375 5.609375 36.375 
Q 5.609375 53.953125 15.125 64.078125 
Q 24.65625 74.21875 41.21875 74.21875 
Q 47.75 74.21875 53.53125 72.484375 
Q 59.328125 70.75 64.40625 67.28125 
z
" id="DejaVuSans-67"/>
      <path d="M 34.1875 63.1875 
L 20.796875 26.90625 
L 47.609375 26.90625 
z
M 28.609375 72.90625 
L 39.796875 72.90625 
L 67.578125 0 
L 57.328125 0 
L 50.6875 18.703125 
L 17.828125 18.703125 
L 11.1875 0 
L 0.78125 0 
z
" id="DejaVuSans-65"/>
      <path id="DejaVuSans-32"/>
      <path d="M 54.890625 33.015625 
L 54.890625 0 
L 45.90625 0 
L 45.90625 32.71875 
Q 45.90625 40.484375 42.875 44.328125 
Q 39.84375 48.1875 33.796875 48.1875 
Q 26.515625 48.1875 22.3125 43.546875 
Q 18.109375 38.921875 18.109375 30.90625 
L 18.109375 0 
L 9.078125 0 
L 9.078125 54.6875 
L 18.109375 54.6875 
L 18.109375 46.1875 
Q 21.34375 51.125 25.703125 53.5625 
Q 30.078125 56 35.796875 56 
Q 45.21875 56 50.046875 50.171875 
Q 54.890625 44.34375 54.890625 33.015625 
z
" id="DejaVuSans-110"/>
      <path d="M 10.59375 45.40625 
L 73.1875 45.40625 
L 73.1875 37.203125 
L 10.59375 37.203125 
z
M 10.59375 25.484375 
L 73.1875 25.484375 
L 73.1875 17.1875 
L 10.59375 17.1875 
z
" id="DejaVuSans-61"/>
     </defs>
     <g transform="translate(88.84 20.918437)scale(0.1 -0.1)">
      <use xlink:href="#DejaVuSans-70"/>
      <use x="57.378906" xlink:href="#DejaVuSans-97"/>
      <use x="118.658203" xlink:href="#DejaVuSans-115"/>
      <use x="170.757812" xlink:href="#DejaVuSans-116"/>
      <use x="209.966797" xlink:href="#DejaVuSans-73"/>
      <use x="239.458984" xlink:href="#DejaVuSans-67"/>
      <use x="309.283203" xlink:href="#DejaVuSans-65"/>
      <use x="377.691406" xlink:href="#DejaVuSans-32"/>
      <use x="409.478516" xlink:href="#DejaVuSans-110"/>
      <use x="472.857422" xlink:href="#DejaVuSans-61"/>
      <use x="556.646484" xlink:href="#DejaVuSans-52"/>
     </g>
    </g>
    <g id="line2d_41">
     <path d="M 60.84 32.096563 
L 80.84 32.096563 
" style="fill:none;stroke:#000000;stroke-linecap:square;stroke-width:0.8;"/>
    </g>
    <g id="line2d_42">
     <g>
      <use style="fill-opacity:0;stroke:#000000;stroke-linejoin:miter;" x="70.84" xlink:href="#m5af2999c96" y="32.096563"/>
     </g>
    </g>
    <g id="text_17">
     <!-- FastICA n=8 -->
     <g transform="translate(88.84 35.596563)scale(0.1 -0.1)">
      <use xlink:href="#DejaVuSans-70"/>
      <use x="57.378906" xlink:href="#DejaVuSans-97"/>
      <use x="118.658203" xlink:href="#DejaVuSans-115"/>
      <use x="170.757812" xlink:href="#DejaVuSans-116"/>
      <use x="209.966797" xlink:href="#DejaVuSans-73"/>
      <use x="239.458984" xlink:href="#DejaVuSans-67"/>
      <use x="309.283203" xlink:href="#DejaVuSans-65"/>
      <use x="377.691406" xlink:href="#DejaVuSans-32"/>
      <use x="409.478516" xlink:href="#DejaVuSans-110"/>
      <use x="472.857422" xlink:href="#DejaVuSans-61"/>
      <use x="556.646484" xlink:href="#DejaVuSans-56"/>
     </g>
    </g>
    <g id="line2d_43">
     <path d="M 60.84 46.774687 
L 80.84 46.774687 
" style="fill:none;stroke:#000000;stroke-linecap:square;stroke-width:0.8;"/>
    </g>
    <g id="line2d_44">
     <g>
      <use style="fill-opacity:0;stroke:#000000;" x="70.84" xlink:href="#md36d1b98c6" y="46.774687"/>
     </g>
    </g>
    <g id="text_18">
     <!-- FastICA n=16 -->
     <g transform="translate(88.84 50.274687)scale(0.1 -0.1)">
      <use xlink:href="#DejaVuSans-70"/>
      <use x="57.378906" xlink:href="#DejaVuSans-97"/>
      <use x="118.658203" xlink:href="#DejaVuSans-115"/>
      <use x="170.757812" xlink:href="#DejaVuSans-116"/>
      <use x="209.966797" xlink:href="#DejaVuSans-73"/>
      <use x="239.458984" xlink:href="#DejaVuSans-67"/>
      <use x="309.283203" xlink:href="#DejaVuSans-65"/>
      <use x="377.691406" xlink:href="#DejaVuSans-32"/>
      <use x="409.478516" xlink:href="#DejaVuSans-110"/>
      <use x="472.857422" xlink:href="#DejaVuSans-61"/>
      <use x="556.646484" xlink:href="#DejaVuSans-49"/>
      <use x="620.269531" xlink:href="#DejaVuSans-54"/>
     </g>
    </g>
    <g id="line2d_45">
     <path d="M 177.229062 17.418437 
L 197.229062 17.418437 
" style="fill:none;stroke:#0000ff;stroke-linecap:square;stroke-width:0.8;"/>
    </g>
    <g id="line2d_46">
     <g>
      <use style="fill-opacity:0;stroke:#0000ff;" x="187.229062" xlink:href="#me6d0db9896" y="17.418437"/>
     </g>
    </g>
    <g id="text_19">
     <!-- Ultra-FastICA n=4 -->
     <defs>
      <path d="M 8.6875 72.90625 
L 18.609375 72.90625 
L 18.609375 28.609375 
Q 18.609375 16.890625 22.84375 11.734375 
Q 27.09375 6.59375 36.625 6.59375 
Q 46.09375 6.59375 50.34375 11.734375 
Q 54.59375 16.890625 54.59375 28.609375 
L 54.59375 72.90625 
L 64.5 72.90625 
L 64.5 27.390625 
Q 64.5 13.140625 57.4375 5.859375 
Q 50.390625 -1.421875 36.625 -1.421875 
Q 22.796875 -1.421875 15.734375 5.859375 
Q 8.6875 13.140625 8.6875 27.390625 
z
" id="DejaVuSans-85"/>
      <path d="M 9.421875 75.984375 
L 18.40625 75.984375 
L 18.40625 0 
L 9.421875 0 
z
" id="DejaVuSans-108"/>
      <path d="M 41.109375 46.296875 
Q 39.59375 47.171875 37.8125 47.578125 
Q 36.03125 48 33.890625 48 
Q 26.265625 48 22.1875 43.046875 
Q 18.109375 38.09375 18.109375 28.8125 
L 18.109375 0 
L 9.078125 0 
L 9.078125 54.6875 
L 18.109375 54.6875 
L 18.109375 46.1875 
Q 20.953125 51.171875 25.484375 53.578125 
Q 30.03125 56 36.53125 56 
Q 37.453125 56 38.578125 55.875 
Q 39.703125 55.765625 41.0625 55.515625 
z
" id="DejaVuSans-114"/>
      <path d="M 4.890625 31.390625 
L 31.203125 31.390625 
L 31.203125 23.390625 
L 4.890625 23.390625 
z
" id="DejaVuSans-45"/>
     </defs>
     <g transform="translate(205.229062 20.918437)scale(0.1 -0.1)">
      <use xlink:href="#DejaVuSans-85"/>
      <use x="73.193359" xlink:href="#DejaVuSans-108"/>
      <use x="100.976562" xlink:href="#DejaVuSans-116"/>
      <use x="140.185547" xlink:href="#DejaVuSans-114"/>
      <use x="181.298828" xlink:href="#DejaVuSans-97"/>
      <use x="242.578125" xlink:href="#DejaVuSans-45"/>
      <use x="278.662109" xlink:href="#DejaVuSans-70"/>
      <use x="336.041016" xlink:href="#DejaVuSans-97"/>
      <use x="397.320312" xlink:href="#DejaVuSans-115"/>
      <use x="449.419922" xlink:href="#DejaVuSans-116"/>
      <use x="488.628906" xlink:href="#DejaVuSans-73"/>
      <use x="518.121094" xlink:href="#DejaVuSans-67"/>
      <use x="587.945312" xlink:href="#DejaVuSans-65"/>
      <use x="656.353516" xlink:href="#DejaVuSans-32"/>
      <use x="688.140625" xlink:href="#DejaVuSans-110"/>
      <use x="751.519531" xlink:href="#DejaVuSans-61"/>
      <use x="835.308594" xlink:href="#DejaVuSans-52"/>
     </g>
    </g>
    <g id="line2d_47">
     <path d="M 177.229062 32.096563 
L 197.229062 32.096563 
" style="fill:none;stroke:#0000ff;stroke-linecap:square;stroke-width:0.8;"/>
    </g>
    <g id="line2d_48">
     <g>
      <use style="fill-opacity:0;stroke:#0000ff;stroke-linejoin:miter;" x="187.229062" xlink:href="#m628db37010" y="32.096563"/>
     </g>
    </g>
    <g id="text_20">
     <!-- Ultra-FastICA n=8 -->
     <g transform="translate(205.229062 35.596563)scale(0.1 -0.1)">
      <use xlink:href="#DejaVuSans-85"/>
      <use x="73.193359" xlink:href="#DejaVuSans-108"/>
      <use x="100.976562" xlink:href="#DejaVuSans-116"/>
      <use x="140.185547" xlink:href="#DejaVuSans-114"/>
      <use x="181.298828" xlink:href="#DejaVuSans-97"/>
      <use x="242.578125" xlink:href="#DejaVuSans-45"/>
      <use x="278.662109" xlink:href="#DejaVuSans-70"/>
      <use x="336.041016" xlink:href="#DejaVuSans-97"/>
      <use x="397.320312" xlink:href="#DejaVuSans-115"/>
      <use x="449.419922" xlink:href="#DejaVuSans-116"/>
      <use x="488.628906" xlink:href="#DejaVuSans-73"/>
      <use x="518.121094" xlink:href="#DejaVuSans-67"/>
      <use x="587.945312" xlink:href="#DejaVuSans-65"/>
      <use x="656.353516" xlink:href="#DejaVuSans-32"/>
      <use x="688.140625" xlink:href="#DejaVuSans-110"/>
      <use x="751.519531" xlink:href="#DejaVuSans-61"/>
      <use x="835.308594" xlink:href="#DejaVuSans-56"/>
     </g>
    </g>
    <g id="line2d_49">
     <path d="M 177.229062 46.774687 
L 197.229062 46.774687 
" style="fill:none;stroke:#0000ff;stroke-linecap:square;stroke-width:0.8;"/>
    </g>
    <g id="line2d_50">
     <g>
      <use style="fill-opacity:0;stroke:#0000ff;" x="187.229062" xlink:href="#m2028fbcc4b" y="46.774687"/>
     </g>
    </g>
    <g id="text_21">
     <!-- Ultra-FastICA n=16 -->
     <g transform="translate(205.229062 50.274687)scale(0.1 -0.1)">
      <use xlink:href="#DejaVuSans-85"/>
      <use x="73.193359" xlink:href="#DejaVuSans-108"/>
      <use x="100.976562" xlink:href="#DejaVuSans-116"/>
      <use x="140.185547" xlink:href="#DejaVuSans-114"/>
      <use x="181.298828" xlink:href="#DejaVuSans-97"/>
      <use x="242.578125" xlink:href="#DejaVuSans-45"/>
      <use x="278.662109" xlink:href="#DejaVuSans-70"/>
      <use x="336.041016" xlink:href="#DejaVuSans-97"/>
      <use x="397.320312" xlink:href="#DejaVuSans-115"/>
      <use x="449.419922" xlink:href="#DejaVuSans-116"/>
      <use x="488.628906" xlink:href="#DejaVuSans-73"/>
      <use x="518.121094" xlink:href="#DejaVuSans-67"/>
      <use x="587.945312" xlink:href="#DejaVuSans-65"/>
      <use x="656.353516" xlink:href="#DejaVuSans-32"/>
      <use x="688.140625" xlink:href="#DejaVuSans-110"/>
      <use x="751.519531" xlink:href="#DejaVuSans-61"/>
      <use x="835.308594" xlink:href="#DejaVuSans-49"/>
      <use x="898.931641" xlink:href="#DejaVuSans-54"/>
     </g>
    </g>
   </g>
  </g>
 </g>
 <defs>
  <clipPath id="pd043db8d9b">
   <rect height="397.44" width="583.2" x="51.84" y="4.32"/>
  </clipPath>
 </defs>
</svg>
