<?xml version="1.0" encoding="utf-8" standalone="no"?>
<!DOCTYPE svg PUBLIC "-//W3C//DTD SVG 1.1//EN"
  "http://www.w3.org/Graphics/SVG/1.1/DTD/svg11.dtd">
<!-- Created with matplotlib (https://matplotlib.org/) -->
<svg height="432pt" version="1.1" viewBox="0 0 648 432" width="648pt" xmlns="http://www.w3.org/2000/svg" xmlns:xlink="http://www.w3.org/1999/xlink">
 <defs>
  <style type="text/css">
*{stroke-linecap:butt;stroke-linejoin:round;white-space:pre;}
  </style>
 </defs>
 <g id="figure_1">
  <g id="patch_1">
   <path d="M 0 432 
L 648 432 
L 648 0 
L 0 0 
z
" style="fill:#ffffff;"/>
  </g>
  <g id="axes_1">
   <g id="patch_2">
    <path d="M 51.84 401.76 
L 635.04 401.76 
L 635.04 4.32 
L 51.84 4.32 
z
" style="fill:#ffffff;"/>
   </g>
   <g id="matplotlib.axis_1">
    <g id="xtick_1">
     <g id="line2d_1">
      <path clip-path="url(#p9d642a364a)" d="M 51.84 401.76 
L 51.84 4.32 
" style="fill:none;stroke:#b0b0b0;stroke-dasharray:0.8,1.32;stroke-dashoffset:0;stroke-width:0.8;"/>
     </g>
     <g id="line2d_2">
      <defs>
       <path d="M 0 0 
L 0 3.5 
" id="m596dd518b9" style="stroke:#000000;stroke-width:0.8;"/>
      </defs>
      <g>
       <use style="stroke:#000000;stroke-width:0.8;" x="51.84" xlink:href="#m596dd518b9" y="401.76"/>
      </g>
     </g>
     <g id="text_1">
      <!-- 0 -->
      <defs>
       <path d="M 31.78125 66.40625 
Q 24.171875 66.40625 20.328125 58.90625 
Q 16.5 51.421875 16.5 36.375 
Q 16.5 21.390625 20.328125 13.890625 
Q 24.171875 6.390625 31.78125 6.390625 
Q 39.453125 6.390625 43.28125 13.890625 
Q 47.125 21.390625 47.125 36.375 
Q 47.125 51.421875 43.28125 58.90625 
Q 39.453125 66.40625 31.78125 66.40625 
z
M 31.78125 74.21875 
Q 44.046875 74.21875 50.515625 64.515625 
Q 56.984375 54.828125 56.984375 36.375 
Q 56.984375 17.96875 50.515625 8.265625 
Q 44.046875 -1.421875 31.78125 -1.421875 
Q 19.53125 -1.421875 13.0625 8.265625 
Q 6.59375 17.96875 6.59375 36.375 
Q 6.59375 54.828125 13.0625 64.515625 
Q 19.53125 74.21875 31.78125 74.21875 
z
" id="DejaVuSans-48"/>
      </defs>
      <g transform="translate(48.65875 416.358437)scale(0.1 -0.1)">
       <use xlink:href="#DejaVuSans-48"/>
      </g>
     </g>
    </g>
    <g id="xtick_2">
     <g id="line2d_3">
      <path clip-path="url(#p9d642a364a)" d="M 167.325149 401.76 
L 167.325149 4.32 
" style="fill:none;stroke:#b0b0b0;stroke-dasharray:0.8,1.32;stroke-dashoffset:0;stroke-width:0.8;"/>
     </g>
     <g id="line2d_4">
      <g>
       <use style="stroke:#000000;stroke-width:0.8;" x="167.325149" xlink:href="#m596dd518b9" y="401.76"/>
      </g>
     </g>
     <g id="text_2">
      <!-- 20 -->
      <defs>
       <path d="M 19.1875 8.296875 
L 53.609375 8.296875 
L 53.609375 0 
L 7.328125 0 
L 7.328125 8.296875 
Q 12.9375 14.109375 22.625 23.890625 
Q 32.328125 33.6875 34.8125 36.53125 
Q 39.546875 41.84375 41.421875 45.53125 
Q 43.3125 49.21875 43.3125 52.78125 
Q 43.3125 58.59375 39.234375 62.25 
Q 35.15625 65.921875 28.609375 65.921875 
Q 23.96875 65.921875 18.8125 64.3125 
Q 13.671875 62.703125 7.8125 59.421875 
L 7.8125 69.390625 
Q 13.765625 71.78125 18.9375 73 
Q 24.125 74.21875 28.421875 74.21875 
Q 39.75 74.21875 46.484375 68.546875 
Q 53.21875 62.890625 53.21875 53.421875 
Q 53.21875 48.921875 51.53125 44.890625 
Q 49.859375 40.875 45.40625 35.40625 
Q 44.1875 33.984375 37.640625 27.21875 
Q 31.109375 20.453125 19.1875 8.296875 
z
" id="DejaVuSans-50"/>
      </defs>
      <g transform="translate(160.962649 416.358437)scale(0.1 -0.1)">
       <use xlink:href="#DejaVuSans-50"/>
       <use x="63.623047" xlink:href="#DejaVuSans-48"/>
      </g>
     </g>
    </g>
    <g id="xtick_3">
     <g id="line2d_5">
      <path clip-path="url(#p9d642a364a)" d="M 282.810297 401.76 
L 282.810297 4.32 
" style="fill:none;stroke:#b0b0b0;stroke-dasharray:0.8,1.32;stroke-dashoffset:0;stroke-width:0.8;"/>
     </g>
     <g id="line2d_6">
      <g>
       <use style="stroke:#000000;stroke-width:0.8;" x="282.810297" xlink:href="#m596dd518b9" y="401.76"/>
      </g>
     </g>
     <g id="text_3">
      <!-- 40 -->
      <defs>
       <path d="M 37.796875 64.3125 
L 12.890625 25.390625 
L 37.796875 25.390625 
z
M 35.203125 72.90625 
L 47.609375 72.90625 
L 47.609375 25.390625 
L 58.015625 25.390625 
L 58.015625 17.1875 
L 47.609375 17.1875 
L 47.609375 0 
L 37.796875 0 
L 37.796875 17.1875 
L 4.890625 17.1875 
L 4.890625 26.703125 
z
" id="DejaVuSans-52"/>
      </defs>
      <g transform="translate(276.447797 416.358437)scale(0.1 -0.1)">
       <use xlink:href="#DejaVuSans-52"/>
       <use x="63.623047" xlink:href="#DejaVuSans-48"/>
      </g>
     </g>
    </g>
    <g id="xtick_4">
     <g id="line2d_7">
      <path clip-path="url(#p9d642a364a)" d="M 398.295446 401.76 
L 398.295446 4.32 
" style="fill:none;stroke:#b0b0b0;stroke-dasharray:0.8,1.32;stroke-dashoffset:0;stroke-width:0.8;"/>
     </g>
     <g id="line2d_8">
      <g>
       <use style="stroke:#000000;stroke-width:0.8;" x="398.295446" xlink:href="#m596dd518b9" y="401.76"/>
      </g>
     </g>
     <g id="text_4">
      <!-- 60 -->
      <defs>
       <path d="M 33.015625 40.375 
Q 26.375 40.375 22.484375 35.828125 
Q 18.609375 31.296875 18.609375 23.390625 
Q 18.609375 15.53125 22.484375 10.953125 
Q 26.375 6.390625 33.015625 6.390625 
Q 39.65625 6.390625 43.53125 10.953125 
Q 47.40625 15.53125 47.40625 23.390625 
Q 47.40625 31.296875 43.53125 35.828125 
Q 39.65625 40.375 33.015625 40.375 
z
M 52.59375 71.296875 
L 52.59375 62.3125 
Q 48.875 64.0625 45.09375 64.984375 
Q 41.3125 65.921875 37.59375 65.921875 
Q 27.828125 65.921875 22.671875 59.328125 
Q 17.53125 52.734375 16.796875 39.40625 
Q 19.671875 43.65625 24.015625 45.921875 
Q 28.375 48.1875 33.59375 48.1875 
Q 44.578125 48.1875 50.953125 41.515625 
Q 57.328125 34.859375 57.328125 23.390625 
Q 57.328125 12.15625 50.6875 5.359375 
Q 44.046875 -1.421875 33.015625 -1.421875 
Q 20.359375 -1.421875 13.671875 8.265625 
Q 6.984375 17.96875 6.984375 36.375 
Q 6.984375 53.65625 15.1875 63.9375 
Q 23.390625 74.21875 37.203125 74.21875 
Q 40.921875 74.21875 44.703125 73.484375 
Q 48.484375 72.75 52.59375 71.296875 
z
" id="DejaVuSans-54"/>
      </defs>
      <g transform="translate(391.932946 416.358437)scale(0.1 -0.1)">
       <use xlink:href="#DejaVuSans-54"/>
       <use x="63.623047" xlink:href="#DejaVuSans-48"/>
      </g>
     </g>
    </g>
    <g id="xtick_5">
     <g id="line2d_9">
      <path clip-path="url(#p9d642a364a)" d="M 513.780594 401.76 
L 513.780594 4.32 
" style="fill:none;stroke:#b0b0b0;stroke-dasharray:0.8,1.32;stroke-dashoffset:0;stroke-width:0.8;"/>
     </g>
     <g id="line2d_10">
      <g>
       <use style="stroke:#000000;stroke-width:0.8;" x="513.780594" xlink:href="#m596dd518b9" y="401.76"/>
      </g>
     </g>
     <g id="text_5">
      <!-- 80 -->
      <defs>
       <path d="M 31.78125 34.625 
Q 24.75 34.625 20.71875 30.859375 
Q 16.703125 27.09375 16.703125 20.515625 
Q 16.703125 13.921875 20.71875 10.15625 
Q 24.75 6.390625 31.78125 6.390625 
Q 38.8125 6.390625 42.859375 10.171875 
Q 46.921875 13.96875 46.921875 20.515625 
Q 46.921875 27.09375 42.890625 30.859375 
Q 38.875 34.625 31.78125 34.625 
z
M 21.921875 38.8125 
Q 15.578125 40.375 12.03125 44.71875 
Q 8.5 49.078125 8.5 55.328125 
Q 8.5 64.0625 14.71875 69.140625 
Q 20.953125 74.21875 31.78125 74.21875 
Q 42.671875 74.21875 48.875 69.140625 
Q 55.078125 64.0625 55.078125 55.328125 
Q 55.078125 49.078125 51.53125 44.71875 
Q 48 40.375 41.703125 38.8125 
Q 48.828125 37.15625 52.796875 32.3125 
Q 56.78125 27.484375 56.78125 20.515625 
Q 56.78125 9.90625 50.3125 4.234375 
Q 43.84375 -1.421875 31.78125 -1.421875 
Q 19.734375 -1.421875 13.25 4.234375 
Q 6.78125 9.90625 6.78125 20.515625 
Q 6.78125 27.484375 10.78125 32.3125 
Q 14.796875 37.15625 21.921875 38.8125 
z
M 18.3125 54.390625 
Q 18.3125 48.734375 21.84375 45.5625 
Q 25.390625 42.390625 31.78125 42.390625 
Q 38.140625 42.390625 41.71875 45.5625 
Q 45.3125 48.734375 45.3125 54.390625 
Q 45.3125 60.0625 41.71875 63.234375 
Q 38.140625 66.40625 31.78125 66.40625 
Q 25.390625 66.40625 21.84375 63.234375 
Q 18.3125 60.0625 18.3125 54.390625 
z
" id="DejaVuSans-56"/>
      </defs>
      <g transform="translate(507.418094 416.358437)scale(0.1 -0.1)">
       <use xlink:href="#DejaVuSans-56"/>
       <use x="63.623047" xlink:href="#DejaVuSans-48"/>
      </g>
     </g>
    </g>
    <g id="xtick_6">
     <g id="line2d_11">
      <path clip-path="url(#p9d642a364a)" d="M 629.265743 401.76 
L 629.265743 4.32 
" style="fill:none;stroke:#b0b0b0;stroke-dasharray:0.8,1.32;stroke-dashoffset:0;stroke-width:0.8;"/>
     </g>
     <g id="line2d_12">
      <g>
       <use style="stroke:#000000;stroke-width:0.8;" x="629.265743" xlink:href="#m596dd518b9" y="401.76"/>
      </g>
     </g>
     <g id="text_6">
      <!-- 100 -->
      <defs>
       <path d="M 12.40625 8.296875 
L 28.515625 8.296875 
L 28.515625 63.921875 
L 10.984375 60.40625 
L 10.984375 69.390625 
L 28.421875 72.90625 
L 38.28125 72.90625 
L 38.28125 8.296875 
L 54.390625 8.296875 
L 54.390625 0 
L 12.40625 0 
z
" id="DejaVuSans-49"/>
      </defs>
      <g transform="translate(619.721993 416.358437)scale(0.1 -0.1)">
       <use xlink:href="#DejaVuSans-49"/>
       <use x="63.623047" xlink:href="#DejaVuSans-48"/>
       <use x="127.246094" xlink:href="#DejaVuSans-48"/>
      </g>
     </g>
    </g>
    <g id="text_7">
     <!-- $\Lambda\ /\ \%$ -->
     <defs>
      <path d="M 11.1875 0 
L 0.78125 0 
L 28.609375 72.90625 
L 39.796875 72.90625 
L 67.578125 0 
L 57.328125 0 
L 34.1875 63.1875 
z
" id="DejaVuSans-923"/>
      <path d="M 25.390625 72.90625 
L 33.6875 72.90625 
L 8.296875 -9.28125 
L 0 -9.28125 
z
" id="DejaVuSans-47"/>
      <path d="M 72.703125 32.078125 
Q 68.453125 32.078125 66.03125 28.46875 
Q 63.625 24.859375 63.625 18.40625 
Q 63.625 12.0625 66.03125 8.421875 
Q 68.453125 4.78125 72.703125 4.78125 
Q 76.859375 4.78125 79.265625 8.421875 
Q 81.6875 12.0625 81.6875 18.40625 
Q 81.6875 24.8125 79.265625 28.4375 
Q 76.859375 32.078125 72.703125 32.078125 
z
M 72.703125 38.28125 
Q 80.421875 38.28125 84.953125 32.90625 
Q 89.5 27.546875 89.5 18.40625 
Q 89.5 9.28125 84.9375 3.921875 
Q 80.375 -1.421875 72.703125 -1.421875 
Q 64.890625 -1.421875 60.34375 3.921875 
Q 55.8125 9.28125 55.8125 18.40625 
Q 55.8125 27.59375 60.375 32.9375 
Q 64.9375 38.28125 72.703125 38.28125 
z
M 22.3125 68.015625 
Q 18.109375 68.015625 15.6875 64.375 
Q 13.28125 60.75 13.28125 54.390625 
Q 13.28125 47.953125 15.671875 44.328125 
Q 18.0625 40.71875 22.3125 40.71875 
Q 26.5625 40.71875 28.96875 44.328125 
Q 31.390625 47.953125 31.390625 54.390625 
Q 31.390625 60.6875 28.953125 64.34375 
Q 26.515625 68.015625 22.3125 68.015625 
z
M 66.40625 74.21875 
L 74.21875 74.21875 
L 28.609375 -1.421875 
L 20.796875 -1.421875 
z
M 22.3125 74.21875 
Q 30.03125 74.21875 34.609375 68.875 
Q 39.203125 63.53125 39.203125 54.390625 
Q 39.203125 45.171875 34.640625 39.84375 
Q 30.078125 34.515625 22.3125 34.515625 
Q 14.546875 34.515625 10.03125 39.859375 
Q 5.515625 45.21875 5.515625 54.390625 
Q 5.515625 63.484375 10.046875 68.84375 
Q 14.59375 74.21875 22.3125 74.21875 
z
" id="DejaVuSans-37"/>
     </defs>
     <g transform="translate(330.29 430.036563)scale(0.1 -0.1)">
      <use transform="translate(0 0.78125)" xlink:href="#DejaVuSans-923"/>
      <use transform="translate(100.878582 0.78125)" xlink:href="#DejaVuSans-47"/>
      <use transform="translate(167.040366 0.78125)" xlink:href="#DejaVuSans-37"/>
     </g>
    </g>
   </g>
   <g id="matplotlib.axis_2">
    <g id="ytick_1">
     <g id="line2d_13">
      <path clip-path="url(#p9d642a364a)" d="M 51.84 401.76 
L 635.04 401.76 
" style="fill:none;stroke:#b0b0b0;stroke-dasharray:0.8,1.32;stroke-dashoffset:0;stroke-width:0.8;"/>
     </g>
     <g id="line2d_14">
      <defs>
       <path d="M 0 0 
L -3.5 0 
" id="m81e4ba6a17" style="stroke:#000000;stroke-width:0.8;"/>
      </defs>
      <g>
       <use style="stroke:#000000;stroke-width:0.8;" x="51.84" xlink:href="#m81e4ba6a17" y="401.76"/>
      </g>
     </g>
     <g id="text_8">
      <!-- 0 -->
      <g transform="translate(38.4775 405.559219)scale(0.1 -0.1)">
       <use xlink:href="#DejaVuSans-48"/>
      </g>
     </g>
    </g>
    <g id="ytick_2">
     <g id="line2d_15">
      <path clip-path="url(#p9d642a364a)" d="M 51.84 342.88 
L 635.04 342.88 
" style="fill:none;stroke:#b0b0b0;stroke-dasharray:0.8,1.32;stroke-dashoffset:0;stroke-width:0.8;"/>
     </g>
     <g id="line2d_16">
      <g>
       <use style="stroke:#000000;stroke-width:0.8;" x="51.84" xlink:href="#m81e4ba6a17" y="342.88"/>
      </g>
     </g>
     <g id="text_9">
      <!-- 200 -->
      <g transform="translate(25.7525 346.679219)scale(0.1 -0.1)">
       <use xlink:href="#DejaVuSans-50"/>
       <use x="63.623047" xlink:href="#DejaVuSans-48"/>
       <use x="127.246094" xlink:href="#DejaVuSans-48"/>
      </g>
     </g>
    </g>
    <g id="ytick_3">
     <g id="line2d_17">
      <path clip-path="url(#p9d642a364a)" d="M 51.84 284 
L 635.04 284 
" style="fill:none;stroke:#b0b0b0;stroke-dasharray:0.8,1.32;stroke-dashoffset:0;stroke-width:0.8;"/>
     </g>
     <g id="line2d_18">
      <g>
       <use style="stroke:#000000;stroke-width:0.8;" x="51.84" xlink:href="#m81e4ba6a17" y="284"/>
      </g>
     </g>
     <g id="text_10">
      <!-- 400 -->
      <g transform="translate(25.7525 287.799219)scale(0.1 -0.1)">
       <use xlink:href="#DejaVuSans-52"/>
       <use x="63.623047" xlink:href="#DejaVuSans-48"/>
       <use x="127.246094" xlink:href="#DejaVuSans-48"/>
      </g>
     </g>
    </g>
    <g id="ytick_4">
     <g id="line2d_19">
      <path clip-path="url(#p9d642a364a)" d="M 51.84 225.12 
L 635.04 225.12 
" style="fill:none;stroke:#b0b0b0;stroke-dasharray:0.8,1.32;stroke-dashoffset:0;stroke-width:0.8;"/>
     </g>
     <g id="line2d_20">
      <g>
       <use style="stroke:#000000;stroke-width:0.8;" x="51.84" xlink:href="#m81e4ba6a17" y="225.12"/>
      </g>
     </g>
     <g id="text_11">
      <!-- 600 -->
      <g transform="translate(25.7525 228.919219)scale(0.1 -0.1)">
       <use xlink:href="#DejaVuSans-54"/>
       <use x="63.623047" xlink:href="#DejaVuSans-48"/>
       <use x="127.246094" xlink:href="#DejaVuSans-48"/>
      </g>
     </g>
    </g>
    <g id="ytick_5">
     <g id="line2d_21">
      <path clip-path="url(#p9d642a364a)" d="M 51.84 166.24 
L 635.04 166.24 
" style="fill:none;stroke:#b0b0b0;stroke-dasharray:0.8,1.32;stroke-dashoffset:0;stroke-width:0.8;"/>
     </g>
     <g id="line2d_22">
      <g>
       <use style="stroke:#000000;stroke-width:0.8;" x="51.84" xlink:href="#m81e4ba6a17" y="166.24"/>
      </g>
     </g>
     <g id="text_12">
      <!-- 800 -->
      <g transform="translate(25.7525 170.039219)scale(0.1 -0.1)">
       <use xlink:href="#DejaVuSans-56"/>
       <use x="63.623047" xlink:href="#DejaVuSans-48"/>
       <use x="127.246094" xlink:href="#DejaVuSans-48"/>
      </g>
     </g>
    </g>
    <g id="ytick_6">
     <g id="line2d_23">
      <path clip-path="url(#p9d642a364a)" d="M 51.84 107.36 
L 635.04 107.36 
" style="fill:none;stroke:#b0b0b0;stroke-dasharray:0.8,1.32;stroke-dashoffset:0;stroke-width:0.8;"/>
     </g>
     <g id="line2d_24">
      <g>
       <use style="stroke:#000000;stroke-width:0.8;" x="51.84" xlink:href="#m81e4ba6a17" y="107.36"/>
      </g>
     </g>
     <g id="text_13">
      <!-- 1000 -->
      <g transform="translate(19.39 111.159219)scale(0.1 -0.1)">
       <use xlink:href="#DejaVuSans-49"/>
       <use x="63.623047" xlink:href="#DejaVuSans-48"/>
       <use x="127.246094" xlink:href="#DejaVuSans-48"/>
       <use x="190.869141" xlink:href="#DejaVuSans-48"/>
      </g>
     </g>
    </g>
    <g id="ytick_7">
     <g id="line2d_25">
      <path clip-path="url(#p9d642a364a)" d="M 51.84 48.48 
L 635.04 48.48 
" style="fill:none;stroke:#b0b0b0;stroke-dasharray:0.8,1.32;stroke-dashoffset:0;stroke-width:0.8;"/>
     </g>
     <g id="line2d_26">
      <g>
       <use style="stroke:#000000;stroke-width:0.8;" x="51.84" xlink:href="#m81e4ba6a17" y="48.48"/>
      </g>
     </g>
     <g id="text_14">
      <!-- 1200 -->
      <g transform="translate(19.39 52.279219)scale(0.1 -0.1)">
       <use xlink:href="#DejaVuSans-49"/>
       <use x="63.623047" xlink:href="#DejaVuSans-50"/>
       <use x="127.246094" xlink:href="#DejaVuSans-48"/>
       <use x="190.869141" xlink:href="#DejaVuSans-48"/>
      </g>
     </g>
    </g>
    <g id="text_15">
     <!-- $T\ /\ ms$ -->
     <defs>
      <path d="M 5.90625 72.90625 
L 67.578125 72.90625 
L 66.015625 64.59375 
L 39.984375 64.59375 
L 27.484375 0 
L 17.578125 0 
L 30.078125 64.59375 
L 4.296875 64.59375 
z
" id="DejaVuSans-Oblique-84"/>
      <path d="M 89.796875 33.015625 
L 83.40625 0 
L 74.421875 0 
L 80.71875 32.71875 
Q 81.109375 34.8125 81.296875 36.328125 
Q 81.5 37.84375 81.5 38.921875 
Q 81.5 43.3125 79.046875 45.75 
Q 76.609375 48.1875 72.21875 48.1875 
Q 65.671875 48.1875 60.546875 43.28125 
Q 55.421875 38.375 53.90625 30.515625 
L 47.90625 0 
L 38.921875 0 
L 45.3125 32.71875 
Q 45.703125 34.515625 45.890625 36.046875 
Q 46.09375 37.59375 46.09375 38.8125 
Q 46.09375 43.265625 43.65625 45.71875 
Q 41.21875 48.1875 36.921875 48.1875 
Q 30.28125 48.1875 25.140625 43.28125 
Q 20.015625 38.375 18.5 30.515625 
L 12.5 0 
L 3.515625 0 
L 14.203125 54.6875 
L 23.1875 54.6875 
L 21.484375 46.1875 
Q 25.140625 50.984375 30.046875 53.484375 
Q 34.96875 56 40.578125 56 
Q 46.53125 56 50.359375 52.875 
Q 54.203125 49.75 54.984375 44.1875 
Q 59.078125 49.953125 64.46875 52.96875 
Q 69.875 56 75.875 56 
Q 82.90625 56 86.734375 51.953125 
Q 90.578125 47.90625 90.578125 40.484375 
Q 90.578125 38.875 90.375 36.9375 
Q 90.1875 35.015625 89.796875 33.015625 
z
" id="DejaVuSans-Oblique-109"/>
      <path d="M 50 53.078125 
L 48.296875 44.578125 
Q 44.734375 46.53125 40.765625 47.5 
Q 36.8125 48.484375 32.625 48.484375 
Q 25.53125 48.484375 21.453125 46.0625 
Q 17.390625 43.65625 17.390625 39.5 
Q 17.390625 34.671875 26.859375 32.078125 
Q 27.59375 31.890625 27.9375 31.78125 
L 30.8125 30.90625 
Q 39.796875 28.421875 42.796875 25.6875 
Q 45.796875 22.953125 45.796875 18.21875 
Q 45.796875 9.515625 38.890625 4.046875 
Q 31.984375 -1.421875 20.796875 -1.421875 
Q 16.453125 -1.421875 11.671875 -0.578125 
Q 6.890625 0.25 1.125 2 
L 2.875 11.28125 
Q 7.8125 8.734375 12.59375 7.421875 
Q 17.390625 6.109375 21.78125 6.109375 
Q 28.375 6.109375 32.5 8.9375 
Q 36.625 11.765625 36.625 16.109375 
Q 36.625 20.796875 25.78125 23.6875 
L 24.859375 23.921875 
L 21.78125 24.703125 
Q 14.9375 26.515625 11.765625 29.46875 
Q 8.59375 32.421875 8.59375 37.015625 
Q 8.59375 45.75 15.15625 50.875 
Q 21.734375 56 33.015625 56 
Q 37.453125 56 41.671875 55.265625 
Q 45.90625 54.546875 50 53.078125 
z
" id="DejaVuSans-Oblique-115"/>
     </defs>
     <g transform="translate(13.310312 218.54)rotate(-90)scale(0.1 -0.1)">
      <use transform="translate(0 0.09375)" xlink:href="#DejaVuSans-Oblique-84"/>
      <use transform="translate(93.554363 0.09375)" xlink:href="#DejaVuSans-47"/>
      <use transform="translate(159.716147 0.09375)" xlink:href="#DejaVuSans-Oblique-109"/>
      <use transform="translate(257.128257 0.09375)" xlink:href="#DejaVuSans-Oblique-115"/>
     </g>
    </g>
   </g>
   <g id="LineCollection_1">
    <path clip-path="url(#p9d642a364a)" d="M 80.711287 377.706088 
L 80.711287 377.706088 
" style="fill:none;stroke:#000000;stroke-width:0.8;"/>
    <path clip-path="url(#p9d642a364a)" d="M 109.582574 381.855087 
L 109.582574 381.855087 
" style="fill:none;stroke:#000000;stroke-width:0.8;"/>
    <path clip-path="url(#p9d642a364a)" d="M 138.453861 382.478347 
L 138.453861 382.478347 
" style="fill:none;stroke:#000000;stroke-width:0.8;"/>
    <path clip-path="url(#p9d642a364a)" d="M 167.325149 381.862485 
L 167.325149 381.862485 
" style="fill:none;stroke:#000000;stroke-width:0.8;"/>
    <path clip-path="url(#p9d642a364a)" d="M 196.196436 382.140699 
L 196.196436 382.140699 
" style="fill:none;stroke:#000000;stroke-width:0.8;"/>
    <path clip-path="url(#p9d642a364a)" d="M 225.067723 383.715636 
L 225.067723 383.715636 
" style="fill:none;stroke:#000000;stroke-width:0.8;"/>
    <path clip-path="url(#p9d642a364a)" d="M 253.93901 382.429752 
L 253.93901 382.429752 
" style="fill:none;stroke:#000000;stroke-width:0.8;"/>
    <path clip-path="url(#p9d642a364a)" d="M 282.810297 382.520384 
L 282.810297 382.520384 
" style="fill:none;stroke:#000000;stroke-width:0.8;"/>
    <path clip-path="url(#p9d642a364a)" d="M 311.681584 381.00393 
L 311.681584 381.00393 
" style="fill:none;stroke:#000000;stroke-width:0.8;"/>
    <path clip-path="url(#p9d642a364a)" d="M 340.552871 381.771282 
L 340.552871 381.771282 
" style="fill:none;stroke:#000000;stroke-width:0.8;"/>
    <path clip-path="url(#p9d642a364a)" d="M 369.424158 381.413837 
L 369.424158 381.413837 
" style="fill:none;stroke:#000000;stroke-width:0.8;"/>
    <path clip-path="url(#p9d642a364a)" d="M 398.295446 382.840032 
L 398.295446 382.840032 
" style="fill:none;stroke:#000000;stroke-width:0.8;"/>
    <path clip-path="url(#p9d642a364a)" d="M 427.166733 384.485897 
L 427.166733 384.485897 
" style="fill:none;stroke:#000000;stroke-width:0.8;"/>
    <path clip-path="url(#p9d642a364a)" d="M 456.03802 382.205697 
L 456.03802 382.205697 
" style="fill:none;stroke:#000000;stroke-width:0.8;"/>
    <path clip-path="url(#p9d642a364a)" d="M 484.909307 380.874271 
L 484.909307 380.874271 
" style="fill:none;stroke:#000000;stroke-width:0.8;"/>
    <path clip-path="url(#p9d642a364a)" d="M 513.780594 382.260373 
L 513.780594 382.260373 
" style="fill:none;stroke:#000000;stroke-width:0.8;"/>
    <path clip-path="url(#p9d642a364a)" d="M 542.651881 383.173214 
L 542.651881 383.173214 
" style="fill:none;stroke:#000000;stroke-width:0.8;"/>
    <path clip-path="url(#p9d642a364a)" d="M 571.523168 382.801673 
L 571.523168 382.801673 
" style="fill:none;stroke:#000000;stroke-width:0.8;"/>
    <path clip-path="url(#p9d642a364a)" d="M 600.394455 383.334177 
L 600.394455 383.334177 
" style="fill:none;stroke:#000000;stroke-width:0.8;"/>
    <path clip-path="url(#p9d642a364a)" d="M 629.265743 382.831246 
L 629.265743 382.831246 
" style="fill:none;stroke:#000000;stroke-width:0.8;"/>
   </g>
   <g id="LineCollection_2">
    <path clip-path="url(#p9d642a364a)" d="M 80.711287 392.611607 
L 80.711287 362.800569 
" style="fill:none;stroke:#000000;stroke-width:0.8;"/>
    <path clip-path="url(#p9d642a364a)" d="M 109.582574 394.011016 
L 109.582574 369.699157 
" style="fill:none;stroke:#000000;stroke-width:0.8;"/>
    <path clip-path="url(#p9d642a364a)" d="M 138.453861 394.408409 
L 138.453861 370.548286 
" style="fill:none;stroke:#000000;stroke-width:0.8;"/>
    <path clip-path="url(#p9d642a364a)" d="M 167.325149 395.263322 
L 167.325149 368.461648 
" style="fill:none;stroke:#000000;stroke-width:0.8;"/>
    <path clip-path="url(#p9d642a364a)" d="M 196.196436 394.834491 
L 196.196436 369.446906 
" style="fill:none;stroke:#000000;stroke-width:0.8;"/>
    <path clip-path="url(#p9d642a364a)" d="M 225.067723 392.681841 
L 225.067723 374.749431 
" style="fill:none;stroke:#000000;stroke-width:0.8;"/>
    <path clip-path="url(#p9d642a364a)" d="M 253.93901 390.284768 
L 253.93901 374.574736 
" style="fill:none;stroke:#000000;stroke-width:0.8;"/>
    <path clip-path="url(#p9d642a364a)" d="M 282.810297 392.348604 
L 282.810297 372.692165 
" style="fill:none;stroke:#000000;stroke-width:0.8;"/>
    <path clip-path="url(#p9d642a364a)" d="M 311.681584 393.072356 
L 311.681584 368.935503 
" style="fill:none;stroke:#000000;stroke-width:0.8;"/>
    <path clip-path="url(#p9d642a364a)" d="M 340.552871 390.638782 
L 340.552871 372.903781 
" style="fill:none;stroke:#000000;stroke-width:0.8;"/>
    <path clip-path="url(#p9d642a364a)" d="M 369.424158 392.314384 
L 369.424158 370.51329 
" style="fill:none;stroke:#000000;stroke-width:0.8;"/>
    <path clip-path="url(#p9d642a364a)" d="M 398.295446 391.459124 
L 398.295446 374.22094 
" style="fill:none;stroke:#000000;stroke-width:0.8;"/>
    <path clip-path="url(#p9d642a364a)" d="M 427.166733 393.831345 
L 427.166733 375.140448 
" style="fill:none;stroke:#000000;stroke-width:0.8;"/>
    <path clip-path="url(#p9d642a364a)" d="M 456.03802 393.459115 
L 456.03802 370.95228 
" style="fill:none;stroke:#000000;stroke-width:0.8;"/>
    <path clip-path="url(#p9d642a364a)" d="M 484.909307 393.771352 
L 484.909307 367.977191 
" style="fill:none;stroke:#000000;stroke-width:0.8;"/>
    <path clip-path="url(#p9d642a364a)" d="M 513.780594 391.877573 
L 513.780594 372.643174 
" style="fill:none;stroke:#000000;stroke-width:0.8;"/>
    <path clip-path="url(#p9d642a364a)" d="M 542.651881 391.126459 
L 542.651881 375.219969 
" style="fill:none;stroke:#000000;stroke-width:0.8;"/>
    <path clip-path="url(#p9d642a364a)" d="M 571.523168 392.135707 
L 571.523168 373.467639 
" style="fill:none;stroke:#000000;stroke-width:0.8;"/>
    <path clip-path="url(#p9d642a364a)" d="M 600.394455 391.682901 
L 600.394455 374.985452 
" style="fill:none;stroke:#000000;stroke-width:0.8;"/>
    <path clip-path="url(#p9d642a364a)" d="M 629.265743 393.253989 
L 629.265743 372.408503 
" style="fill:none;stroke:#000000;stroke-width:0.8;"/>
   </g>
   <g id="LineCollection_3">
    <path clip-path="url(#p9d642a364a)" d="M 80.711287 340.77531 
L 80.711287 340.77531 
" style="fill:none;stroke:#000000;stroke-width:0.8;"/>
    <path clip-path="url(#p9d642a364a)" d="M 109.582574 335.19583 
L 109.582574 335.19583 
" style="fill:none;stroke:#000000;stroke-width:0.8;"/>
    <path clip-path="url(#p9d642a364a)" d="M 138.453861 341.402129 
L 138.453861 341.402129 
" style="fill:none;stroke:#000000;stroke-width:0.8;"/>
    <path clip-path="url(#p9d642a364a)" d="M 167.325149 338.425624 
L 167.325149 338.425624 
" style="fill:none;stroke:#000000;stroke-width:0.8;"/>
    <path clip-path="url(#p9d642a364a)" d="M 196.196436 340.225447 
L 196.196436 340.225447 
" style="fill:none;stroke:#000000;stroke-width:0.8;"/>
    <path clip-path="url(#p9d642a364a)" d="M 225.067723 335.636996 
L 225.067723 335.636996 
" style="fill:none;stroke:#000000;stroke-width:0.8;"/>
    <path clip-path="url(#p9d642a364a)" d="M 253.93901 340.316344 
L 253.93901 340.316344 
" style="fill:none;stroke:#000000;stroke-width:0.8;"/>
    <path clip-path="url(#p9d642a364a)" d="M 282.810297 337.732536 
L 282.810297 337.732536 
" style="fill:none;stroke:#000000;stroke-width:0.8;"/>
    <path clip-path="url(#p9d642a364a)" d="M 311.681584 337.692101 
L 311.681584 337.692101 
" style="fill:none;stroke:#000000;stroke-width:0.8;"/>
    <path clip-path="url(#p9d642a364a)" d="M 340.552871 341.634967 
L 340.552871 341.634967 
" style="fill:none;stroke:#000000;stroke-width:0.8;"/>
    <path clip-path="url(#p9d642a364a)" d="M 369.424158 343.109958 
L 369.424158 343.109958 
" style="fill:none;stroke:#000000;stroke-width:0.8;"/>
    <path clip-path="url(#p9d642a364a)" d="M 398.295446 332.756388 
L 398.295446 332.756388 
" style="fill:none;stroke:#000000;stroke-width:0.8;"/>
    <path clip-path="url(#p9d642a364a)" d="M 427.166733 339.647583 
L 427.166733 339.647583 
" style="fill:none;stroke:#000000;stroke-width:0.8;"/>
    <path clip-path="url(#p9d642a364a)" d="M 456.03802 336.412074 
L 456.03802 336.412074 
" style="fill:none;stroke:#000000;stroke-width:0.8;"/>
    <path clip-path="url(#p9d642a364a)" d="M 484.909307 339.591885 
L 484.909307 339.591885 
" style="fill:none;stroke:#000000;stroke-width:0.8;"/>
    <path clip-path="url(#p9d642a364a)" d="M 513.780594 335.248167 
L 513.780594 335.248167 
" style="fill:none;stroke:#000000;stroke-width:0.8;"/>
    <path clip-path="url(#p9d642a364a)" d="M 542.651881 337.740565 
L 542.651881 337.740565 
" style="fill:none;stroke:#000000;stroke-width:0.8;"/>
    <path clip-path="url(#p9d642a364a)" d="M 571.523168 340.076306 
L 571.523168 340.076306 
" style="fill:none;stroke:#000000;stroke-width:0.8;"/>
    <path clip-path="url(#p9d642a364a)" d="M 600.394455 338.123719 
L 600.394455 338.123719 
" style="fill:none;stroke:#000000;stroke-width:0.8;"/>
    <path clip-path="url(#p9d642a364a)" d="M 629.265743 335.392057 
L 629.265743 335.392057 
" style="fill:none;stroke:#000000;stroke-width:0.8;"/>
   </g>
   <g id="LineCollection_4">
    <path clip-path="url(#p9d642a364a)" d="M 80.711287 366.203848 
L 80.711287 315.346771 
" style="fill:none;stroke:#000000;stroke-width:0.8;"/>
    <path clip-path="url(#p9d642a364a)" d="M 109.582574 363.428269 
L 109.582574 306.963391 
" style="fill:none;stroke:#000000;stroke-width:0.8;"/>
    <path clip-path="url(#p9d642a364a)" d="M 138.453861 372.282236 
L 138.453861 310.522022 
" style="fill:none;stroke:#000000;stroke-width:0.8;"/>
    <path clip-path="url(#p9d642a364a)" d="M 167.325149 358.814373 
L 167.325149 318.036875 
" style="fill:none;stroke:#000000;stroke-width:0.8;"/>
    <path clip-path="url(#p9d642a364a)" d="M 196.196436 363.474383 
L 196.196436 316.976511 
" style="fill:none;stroke:#000000;stroke-width:0.8;"/>
    <path clip-path="url(#p9d642a364a)" d="M 225.067723 362.866588 
L 225.067723 308.407404 
" style="fill:none;stroke:#000000;stroke-width:0.8;"/>
    <path clip-path="url(#p9d642a364a)" d="M 253.93901 361.535961 
L 253.93901 319.096727 
" style="fill:none;stroke:#000000;stroke-width:0.8;"/>
    <path clip-path="url(#p9d642a364a)" d="M 282.810297 367.182141 
L 282.810297 308.282931 
" style="fill:none;stroke:#000000;stroke-width:0.8;"/>
    <path clip-path="url(#p9d642a364a)" d="M 311.681584 370.832971 
L 311.681584 304.551232 
" style="fill:none;stroke:#000000;stroke-width:0.8;"/>
    <path clip-path="url(#p9d642a364a)" d="M 340.552871 370.632145 
L 340.552871 312.637789 
" style="fill:none;stroke:#000000;stroke-width:0.8;"/>
    <path clip-path="url(#p9d642a364a)" d="M 369.424158 367.28886 
L 369.424158 318.931056 
" style="fill:none;stroke:#000000;stroke-width:0.8;"/>
    <path clip-path="url(#p9d642a364a)" d="M 398.295446 361.65965 
L 398.295446 303.853125 
" style="fill:none;stroke:#000000;stroke-width:0.8;"/>
    <path clip-path="url(#p9d642a364a)" d="M 427.166733 370.749989 
L 427.166733 308.545178 
" style="fill:none;stroke:#000000;stroke-width:0.8;"/>
    <path clip-path="url(#p9d642a364a)" d="M 456.03802 373.466813 
L 456.03802 299.357335 
" style="fill:none;stroke:#000000;stroke-width:0.8;"/>
    <path clip-path="url(#p9d642a364a)" d="M 484.909307 364.568279 
L 484.909307 314.61549 
" style="fill:none;stroke:#000000;stroke-width:0.8;"/>
    <path clip-path="url(#p9d642a364a)" d="M 513.780594 366.432637 
L 513.780594 304.063696 
" style="fill:none;stroke:#000000;stroke-width:0.8;"/>
    <path clip-path="url(#p9d642a364a)" d="M 542.651881 364.510023 
L 542.651881 310.971108 
" style="fill:none;stroke:#000000;stroke-width:0.8;"/>
    <path clip-path="url(#p9d642a364a)" d="M 571.523168 363.505661 
L 571.523168 316.646952 
" style="fill:none;stroke:#000000;stroke-width:0.8;"/>
    <path clip-path="url(#p9d642a364a)" d="M 600.394455 367.133625 
L 600.394455 309.113812 
" style="fill:none;stroke:#000000;stroke-width:0.8;"/>
    <path clip-path="url(#p9d642a364a)" d="M 629.265743 365.474505 
L 629.265743 305.309609 
" style="fill:none;stroke:#000000;stroke-width:0.8;"/>
   </g>
   <g id="LineCollection_5">
    <path clip-path="url(#p9d642a364a)" d="M 80.711287 216.607176 
L 80.711287 216.607176 
" style="fill:none;stroke:#000000;stroke-width:0.8;"/>
    <path clip-path="url(#p9d642a364a)" d="M 109.582574 203.982426 
L 109.582574 203.982426 
" style="fill:none;stroke:#000000;stroke-width:0.8;"/>
    <path clip-path="url(#p9d642a364a)" d="M 138.453861 200.078404 
L 138.453861 200.078404 
" style="fill:none;stroke:#000000;stroke-width:0.8;"/>
    <path clip-path="url(#p9d642a364a)" d="M 167.325149 201.007961 
L 167.325149 201.007961 
" style="fill:none;stroke:#000000;stroke-width:0.8;"/>
    <path clip-path="url(#p9d642a364a)" d="M 196.196436 203.699416 
L 196.196436 203.699416 
" style="fill:none;stroke:#000000;stroke-width:0.8;"/>
    <path clip-path="url(#p9d642a364a)" d="M 225.067723 203.584732 
L 225.067723 203.584732 
" style="fill:none;stroke:#000000;stroke-width:0.8;"/>
    <path clip-path="url(#p9d642a364a)" d="M 253.93901 205.064662 
L 253.93901 205.064662 
" style="fill:none;stroke:#000000;stroke-width:0.8;"/>
    <path clip-path="url(#p9d642a364a)" d="M 282.810297 205.436453 
L 282.810297 205.436453 
" style="fill:none;stroke:#000000;stroke-width:0.8;"/>
    <path clip-path="url(#p9d642a364a)" d="M 311.681584 203.54561 
L 311.681584 203.54561 
" style="fill:none;stroke:#000000;stroke-width:0.8;"/>
    <path clip-path="url(#p9d642a364a)" d="M 340.552871 216.87645 
L 340.552871 216.87645 
" style="fill:none;stroke:#000000;stroke-width:0.8;"/>
    <path clip-path="url(#p9d642a364a)" d="M 369.424158 211.994638 
L 369.424158 211.994638 
" style="fill:none;stroke:#000000;stroke-width:0.8;"/>
    <path clip-path="url(#p9d642a364a)" d="M 398.295446 199.701352 
L 398.295446 199.701352 
" style="fill:none;stroke:#000000;stroke-width:0.8;"/>
    <path clip-path="url(#p9d642a364a)" d="M 427.166733 199.066695 
L 427.166733 199.066695 
" style="fill:none;stroke:#000000;stroke-width:0.8;"/>
    <path clip-path="url(#p9d642a364a)" d="M 456.03802 198.165333 
L 456.03802 198.165333 
" style="fill:none;stroke:#000000;stroke-width:0.8;"/>
    <path clip-path="url(#p9d642a364a)" d="M 484.909307 205.879107 
L 484.909307 205.879107 
" style="fill:none;stroke:#000000;stroke-width:0.8;"/>
    <path clip-path="url(#p9d642a364a)" d="M 513.780594 198.522932 
L 513.780594 198.522932 
" style="fill:none;stroke:#000000;stroke-width:0.8;"/>
    <path clip-path="url(#p9d642a364a)" d="M 542.651881 207.559251 
L 542.651881 207.559251 
" style="fill:none;stroke:#000000;stroke-width:0.8;"/>
    <path clip-path="url(#p9d642a364a)" d="M 571.523168 193.699037 
L 571.523168 193.699037 
" style="fill:none;stroke:#000000;stroke-width:0.8;"/>
    <path clip-path="url(#p9d642a364a)" d="M 600.394455 203.751871 
L 600.394455 203.751871 
" style="fill:none;stroke:#000000;stroke-width:0.8;"/>
    <path clip-path="url(#p9d642a364a)" d="M 629.265743 207.880412 
L 629.265743 207.880412 
" style="fill:none;stroke:#000000;stroke-width:0.8;"/>
   </g>
   <g id="LineCollection_6">
    <path clip-path="url(#p9d642a364a)" d="M 80.711287 271.161712 
L 80.711287 162.05264 
" style="fill:none;stroke:#000000;stroke-width:0.8;"/>
    <path clip-path="url(#p9d642a364a)" d="M 109.582574 278.571685 
L 109.582574 129.393166 
" style="fill:none;stroke:#000000;stroke-width:0.8;"/>
    <path clip-path="url(#p9d642a364a)" d="M 138.453861 267.718995 
L 138.453861 132.437812 
" style="fill:none;stroke:#000000;stroke-width:0.8;"/>
    <path clip-path="url(#p9d642a364a)" d="M 167.325149 290.719819 
L 167.325149 111.296104 
" style="fill:none;stroke:#000000;stroke-width:0.8;"/>
    <path clip-path="url(#p9d642a364a)" d="M 196.196436 275.195267 
L 196.196436 132.203564 
" style="fill:none;stroke:#000000;stroke-width:0.8;"/>
    <path clip-path="url(#p9d642a364a)" d="M 225.067723 286.301083 
L 225.067723 120.86838 
" style="fill:none;stroke:#000000;stroke-width:0.8;"/>
    <path clip-path="url(#p9d642a364a)" d="M 253.93901 271.607054 
L 253.93901 138.522269 
" style="fill:none;stroke:#000000;stroke-width:0.8;"/>
    <path clip-path="url(#p9d642a364a)" d="M 282.810297 288.58396 
L 282.810297 122.288947 
" style="fill:none;stroke:#000000;stroke-width:0.8;"/>
    <path clip-path="url(#p9d642a364a)" d="M 311.681584 271.18534 
L 311.681584 135.90588 
" style="fill:none;stroke:#000000;stroke-width:0.8;"/>
    <path clip-path="url(#p9d642a364a)" d="M 340.552871 279.360171 
L 340.552871 154.392728 
" style="fill:none;stroke:#000000;stroke-width:0.8;"/>
    <path clip-path="url(#p9d642a364a)" d="M 369.424158 267.945222 
L 369.424158 156.044053 
" style="fill:none;stroke:#000000;stroke-width:0.8;"/>
    <path clip-path="url(#p9d642a364a)" d="M 398.295446 315.513608 
L 398.295446 83.889097 
" style="fill:none;stroke:#000000;stroke-width:0.8;"/>
    <path clip-path="url(#p9d642a364a)" d="M 427.166733 286.596175 
L 427.166733 111.537216 
" style="fill:none;stroke:#000000;stroke-width:0.8;"/>
    <path clip-path="url(#p9d642a364a)" d="M 456.03802 279.767983 
L 456.03802 116.562683 
" style="fill:none;stroke:#000000;stroke-width:0.8;"/>
    <path clip-path="url(#p9d642a364a)" d="M 484.909307 279.011426 
L 484.909307 132.746788 
" style="fill:none;stroke:#000000;stroke-width:0.8;"/>
    <path clip-path="url(#p9d642a364a)" d="M 513.780594 276.881423 
L 513.780594 120.164442 
" style="fill:none;stroke:#000000;stroke-width:0.8;"/>
    <path clip-path="url(#p9d642a364a)" d="M 542.651881 280.242923 
L 542.651881 134.875578 
" style="fill:none;stroke:#000000;stroke-width:0.8;"/>
    <path clip-path="url(#p9d642a364a)" d="M 571.523168 288.878391 
L 571.523168 98.519682 
" style="fill:none;stroke:#000000;stroke-width:0.8;"/>
    <path clip-path="url(#p9d642a364a)" d="M 600.394455 290.947119 
L 600.394455 116.556624 
" style="fill:none;stroke:#000000;stroke-width:0.8;"/>
    <path clip-path="url(#p9d642a364a)" d="M 629.265743 277.065537 
L 629.265743 138.695286 
" style="fill:none;stroke:#000000;stroke-width:0.8;"/>
   </g>
   <g id="LineCollection_7">
    <path clip-path="url(#p9d642a364a)" d="M 80.711287 397.757019 
L 80.711287 397.757019 
" style="fill:none;stroke:#0000ff;stroke-width:0.8;"/>
    <path clip-path="url(#p9d642a364a)" d="M 109.582574 398.64624 
L 109.582574 398.64624 
" style="fill:none;stroke:#0000ff;stroke-width:0.8;"/>
    <path clip-path="url(#p9d642a364a)" d="M 138.453861 398.217653 
L 138.453861 398.217653 
" style="fill:none;stroke:#0000ff;stroke-width:0.8;"/>
    <path clip-path="url(#p9d642a364a)" d="M 167.325149 398.628187 
L 167.325149 398.628187 
" style="fill:none;stroke:#0000ff;stroke-width:0.8;"/>
    <path clip-path="url(#p9d642a364a)" d="M 196.196436 399.16429 
L 196.196436 399.16429 
" style="fill:none;stroke:#0000ff;stroke-width:0.8;"/>
    <path clip-path="url(#p9d642a364a)" d="M 225.067723 398.184829 
L 225.067723 398.184829 
" style="fill:none;stroke:#0000ff;stroke-width:0.8;"/>
    <path clip-path="url(#p9d642a364a)" d="M 253.93901 398.932465 
L 253.93901 398.932465 
" style="fill:none;stroke:#0000ff;stroke-width:0.8;"/>
    <path clip-path="url(#p9d642a364a)" d="M 282.810297 398.929461 
L 282.810297 398.929461 
" style="fill:none;stroke:#0000ff;stroke-width:0.8;"/>
    <path clip-path="url(#p9d642a364a)" d="M 311.681584 398.021487 
L 311.681584 398.021487 
" style="fill:none;stroke:#0000ff;stroke-width:0.8;"/>
    <path clip-path="url(#p9d642a364a)" d="M 340.552871 398.24918 
L 340.552871 398.24918 
" style="fill:none;stroke:#0000ff;stroke-width:0.8;"/>
    <path clip-path="url(#p9d642a364a)" d="M 369.424158 398.069099 
L 369.424158 398.069099 
" style="fill:none;stroke:#0000ff;stroke-width:0.8;"/>
    <path clip-path="url(#p9d642a364a)" d="M 398.295446 398.117645 
L 398.295446 398.117645 
" style="fill:none;stroke:#0000ff;stroke-width:0.8;"/>
    <path clip-path="url(#p9d642a364a)" d="M 427.166733 398.528192 
L 427.166733 398.528192 
" style="fill:none;stroke:#0000ff;stroke-width:0.8;"/>
    <path clip-path="url(#p9d642a364a)" d="M 456.03802 398.422473 
L 456.03802 398.422473 
" style="fill:none;stroke:#0000ff;stroke-width:0.8;"/>
    <path clip-path="url(#p9d642a364a)" d="M 484.909307 397.894183 
L 484.909307 397.894183 
" style="fill:none;stroke:#0000ff;stroke-width:0.8;"/>
    <path clip-path="url(#p9d642a364a)" d="M 513.780594 398.148288 
L 513.780594 398.148288 
" style="fill:none;stroke:#0000ff;stroke-width:0.8;"/>
    <path clip-path="url(#p9d642a364a)" d="M 542.651881 398.304733 
L 542.651881 398.304733 
" style="fill:none;stroke:#0000ff;stroke-width:0.8;"/>
    <path clip-path="url(#p9d642a364a)" d="M 571.523168 398.397846 
L 571.523168 398.397846 
" style="fill:none;stroke:#0000ff;stroke-width:0.8;"/>
    <path clip-path="url(#p9d642a364a)" d="M 600.394455 398.499584 
L 600.394455 398.499584 
" style="fill:none;stroke:#0000ff;stroke-width:0.8;"/>
    <path clip-path="url(#p9d642a364a)" d="M 629.265743 398.315957 
L 629.265743 398.315957 
" style="fill:none;stroke:#0000ff;stroke-width:0.8;"/>
   </g>
   <g id="LineCollection_8">
    <path clip-path="url(#p9d642a364a)" d="M 80.711287 400.116686 
L 80.711287 395.397351 
" style="fill:none;stroke:#0000ff;stroke-width:0.8;"/>
    <path clip-path="url(#p9d642a364a)" d="M 109.582574 401.085422 
L 109.582574 396.207059 
" style="fill:none;stroke:#0000ff;stroke-width:0.8;"/>
    <path clip-path="url(#p9d642a364a)" d="M 138.453861 400.991294 
L 138.453861 395.444011 
" style="fill:none;stroke:#0000ff;stroke-width:0.8;"/>
    <path clip-path="url(#p9d642a364a)" d="M 167.325149 400.808883 
L 167.325149 396.447491 
" style="fill:none;stroke:#0000ff;stroke-width:0.8;"/>
    <path clip-path="url(#p9d642a364a)" d="M 196.196436 400.401301 
L 196.196436 397.92728 
" style="fill:none;stroke:#0000ff;stroke-width:0.8;"/>
    <path clip-path="url(#p9d642a364a)" d="M 225.067723 400.753776 
L 225.067723 395.615882 
" style="fill:none;stroke:#0000ff;stroke-width:0.8;"/>
    <path clip-path="url(#p9d642a364a)" d="M 253.93901 400.539103 
L 253.93901 397.325828 
" style="fill:none;stroke:#0000ff;stroke-width:0.8;"/>
    <path clip-path="url(#p9d642a364a)" d="M 282.810297 400.715288 
L 282.810297 397.143634 
" style="fill:none;stroke:#0000ff;stroke-width:0.8;"/>
    <path clip-path="url(#p9d642a364a)" d="M 311.681584 400.357825 
L 311.681584 395.685149 
" style="fill:none;stroke:#0000ff;stroke-width:0.8;"/>
    <path clip-path="url(#p9d642a364a)" d="M 340.552871 400.850518 
L 340.552871 395.647842 
" style="fill:none;stroke:#0000ff;stroke-width:0.8;"/>
    <path clip-path="url(#p9d642a364a)" d="M 369.424158 400.439175 
L 369.424158 395.699024 
" style="fill:none;stroke:#0000ff;stroke-width:0.8;"/>
    <path clip-path="url(#p9d642a364a)" d="M 398.295446 400.597939 
L 398.295446 395.637352 
" style="fill:none;stroke:#0000ff;stroke-width:0.8;"/>
    <path clip-path="url(#p9d642a364a)" d="M 427.166733 400.828973 
L 427.166733 396.22741 
" style="fill:none;stroke:#0000ff;stroke-width:0.8;"/>
    <path clip-path="url(#p9d642a364a)" d="M 456.03802 400.628184 
L 456.03802 396.216762 
" style="fill:none;stroke:#0000ff;stroke-width:0.8;"/>
    <path clip-path="url(#p9d642a364a)" d="M 484.909307 400.432521 
L 484.909307 395.355844 
" style="fill:none;stroke:#0000ff;stroke-width:0.8;"/>
    <path clip-path="url(#p9d642a364a)" d="M 513.780594 400.776847 
L 513.780594 395.51973 
" style="fill:none;stroke:#0000ff;stroke-width:0.8;"/>
    <path clip-path="url(#p9d642a364a)" d="M 542.651881 400.661834 
L 542.651881 395.947633 
" style="fill:none;stroke:#0000ff;stroke-width:0.8;"/>
    <path clip-path="url(#p9d642a364a)" d="M 571.523168 400.922495 
L 571.523168 395.873197 
" style="fill:none;stroke:#0000ff;stroke-width:0.8;"/>
    <path clip-path="url(#p9d642a364a)" d="M 600.394455 401.039774 
L 600.394455 395.959395 
" style="fill:none;stroke:#0000ff;stroke-width:0.8;"/>
    <path clip-path="url(#p9d642a364a)" d="M 629.265743 400.160012 
L 629.265743 396.471902 
" style="fill:none;stroke:#0000ff;stroke-width:0.8;"/>
   </g>
   <g id="LineCollection_9">
    <path clip-path="url(#p9d642a364a)" d="M 80.711287 392.184888 
L 80.711287 392.184888 
" style="fill:none;stroke:#0000ff;stroke-width:0.8;"/>
    <path clip-path="url(#p9d642a364a)" d="M 109.582574 391.982574 
L 109.582574 391.982574 
" style="fill:none;stroke:#0000ff;stroke-width:0.8;"/>
    <path clip-path="url(#p9d642a364a)" d="M 138.453861 391.554632 
L 138.453861 391.554632 
" style="fill:none;stroke:#0000ff;stroke-width:0.8;"/>
    <path clip-path="url(#p9d642a364a)" d="M 167.325149 392.173672 
L 167.325149 392.173672 
" style="fill:none;stroke:#0000ff;stroke-width:0.8;"/>
    <path clip-path="url(#p9d642a364a)" d="M 196.196436 392.853782 
L 196.196436 392.853782 
" style="fill:none;stroke:#0000ff;stroke-width:0.8;"/>
    <path clip-path="url(#p9d642a364a)" d="M 225.067723 391.796447 
L 225.067723 391.796447 
" style="fill:none;stroke:#0000ff;stroke-width:0.8;"/>
    <path clip-path="url(#p9d642a364a)" d="M 253.93901 392.276917 
L 253.93901 392.276917 
" style="fill:none;stroke:#0000ff;stroke-width:0.8;"/>
    <path clip-path="url(#p9d642a364a)" d="M 282.810297 391.640463 
L 282.810297 391.640463 
" style="fill:none;stroke:#0000ff;stroke-width:0.8;"/>
    <path clip-path="url(#p9d642a364a)" d="M 311.681584 392.008511 
L 311.681584 392.008511 
" style="fill:none;stroke:#0000ff;stroke-width:0.8;"/>
    <path clip-path="url(#p9d642a364a)" d="M 340.552871 391.620328 
L 340.552871 391.620328 
" style="fill:none;stroke:#0000ff;stroke-width:0.8;"/>
    <path clip-path="url(#p9d642a364a)" d="M 369.424158 391.346241 
L 369.424158 391.346241 
" style="fill:none;stroke:#0000ff;stroke-width:0.8;"/>
    <path clip-path="url(#p9d642a364a)" d="M 398.295446 391.816669 
L 398.295446 391.816669 
" style="fill:none;stroke:#0000ff;stroke-width:0.8;"/>
    <path clip-path="url(#p9d642a364a)" d="M 427.166733 391.640318 
L 427.166733 391.640318 
" style="fill:none;stroke:#0000ff;stroke-width:0.8;"/>
    <path clip-path="url(#p9d642a364a)" d="M 456.03802 392.355692 
L 456.03802 392.355692 
" style="fill:none;stroke:#0000ff;stroke-width:0.8;"/>
    <path clip-path="url(#p9d642a364a)" d="M 484.909307 391.816251 
L 484.909307 391.816251 
" style="fill:none;stroke:#0000ff;stroke-width:0.8;"/>
    <path clip-path="url(#p9d642a364a)" d="M 513.780594 391.850602 
L 513.780594 391.850602 
" style="fill:none;stroke:#0000ff;stroke-width:0.8;"/>
    <path clip-path="url(#p9d642a364a)" d="M 542.651881 392.680196 
L 542.651881 392.680196 
" style="fill:none;stroke:#0000ff;stroke-width:0.8;"/>
    <path clip-path="url(#p9d642a364a)" d="M 571.523168 391.313912 
L 571.523168 391.313912 
" style="fill:none;stroke:#0000ff;stroke-width:0.8;"/>
    <path clip-path="url(#p9d642a364a)" d="M 600.394455 392.430496 
L 600.394455 392.430496 
" style="fill:none;stroke:#0000ff;stroke-width:0.8;"/>
    <path clip-path="url(#p9d642a364a)" d="M 629.265743 392.138991 
L 629.265743 392.138991 
" style="fill:none;stroke:#0000ff;stroke-width:0.8;"/>
   </g>
   <g id="LineCollection_10">
    <path clip-path="url(#p9d642a364a)" d="M 80.711287 396.883783 
L 80.711287 387.485993 
" style="fill:none;stroke:#0000ff;stroke-width:0.8;"/>
    <path clip-path="url(#p9d642a364a)" d="M 109.582574 396.083387 
L 109.582574 387.881761 
" style="fill:none;stroke:#0000ff;stroke-width:0.8;"/>
    <path clip-path="url(#p9d642a364a)" d="M 138.453861 395.996388 
L 138.453861 387.112876 
" style="fill:none;stroke:#0000ff;stroke-width:0.8;"/>
    <path clip-path="url(#p9d642a364a)" d="M 167.325149 396.72038 
L 167.325149 387.626964 
" style="fill:none;stroke:#0000ff;stroke-width:0.8;"/>
    <path clip-path="url(#p9d642a364a)" d="M 196.196436 397.039515 
L 196.196436 388.668049 
" style="fill:none;stroke:#0000ff;stroke-width:0.8;"/>
    <path clip-path="url(#p9d642a364a)" d="M 225.067723 395.534732 
L 225.067723 388.058163 
" style="fill:none;stroke:#0000ff;stroke-width:0.8;"/>
    <path clip-path="url(#p9d642a364a)" d="M 253.93901 395.923936 
L 253.93901 388.629899 
" style="fill:none;stroke:#0000ff;stroke-width:0.8;"/>
    <path clip-path="url(#p9d642a364a)" d="M 282.810297 395.250259 
L 282.810297 388.030668 
" style="fill:none;stroke:#0000ff;stroke-width:0.8;"/>
    <path clip-path="url(#p9d642a364a)" d="M 311.681584 395.366665 
L 311.681584 388.650358 
" style="fill:none;stroke:#0000ff;stroke-width:0.8;"/>
    <path clip-path="url(#p9d642a364a)" d="M 340.552871 396.031824 
L 340.552871 387.208832 
" style="fill:none;stroke:#0000ff;stroke-width:0.8;"/>
    <path clip-path="url(#p9d642a364a)" d="M 369.424158 394.844572 
L 369.424158 387.847911 
" style="fill:none;stroke:#0000ff;stroke-width:0.8;"/>
    <path clip-path="url(#p9d642a364a)" d="M 398.295446 395.433869 
L 398.295446 388.19947 
" style="fill:none;stroke:#0000ff;stroke-width:0.8;"/>
    <path clip-path="url(#p9d642a364a)" d="M 427.166733 396.288228 
L 427.166733 386.992409 
" style="fill:none;stroke:#0000ff;stroke-width:0.8;"/>
    <path clip-path="url(#p9d642a364a)" d="M 456.03802 396.206806 
L 456.03802 388.504579 
" style="fill:none;stroke:#0000ff;stroke-width:0.8;"/>
    <path clip-path="url(#p9d642a364a)" d="M 484.909307 395.607927 
L 484.909307 388.024574 
" style="fill:none;stroke:#0000ff;stroke-width:0.8;"/>
    <path clip-path="url(#p9d642a364a)" d="M 513.780594 395.621645 
L 513.780594 388.079559 
" style="fill:none;stroke:#0000ff;stroke-width:0.8;"/>
    <path clip-path="url(#p9d642a364a)" d="M 542.651881 396.180943 
L 542.651881 389.17945 
" style="fill:none;stroke:#0000ff;stroke-width:0.8;"/>
    <path clip-path="url(#p9d642a364a)" d="M 571.523168 394.418889 
L 571.523168 388.208934 
" style="fill:none;stroke:#0000ff;stroke-width:0.8;"/>
    <path clip-path="url(#p9d642a364a)" d="M 600.394455 396.205083 
L 600.394455 388.65591 
" style="fill:none;stroke:#0000ff;stroke-width:0.8;"/>
    <path clip-path="url(#p9d642a364a)" d="M 629.265743 395.887169 
L 629.265743 388.390813 
" style="fill:none;stroke:#0000ff;stroke-width:0.8;"/>
   </g>
   <g id="LineCollection_11">
    <path clip-path="url(#p9d642a364a)" d="M 80.711287 376.253306 
L 80.711287 376.253306 
" style="fill:none;stroke:#0000ff;stroke-width:0.8;"/>
    <path clip-path="url(#p9d642a364a)" d="M 109.582574 377.497751 
L 109.582574 377.497751 
" style="fill:none;stroke:#0000ff;stroke-width:0.8;"/>
    <path clip-path="url(#p9d642a364a)" d="M 138.453861 376.265437 
L 138.453861 376.265437 
" style="fill:none;stroke:#0000ff;stroke-width:0.8;"/>
    <path clip-path="url(#p9d642a364a)" d="M 167.325149 377.928655 
L 167.325149 377.928655 
" style="fill:none;stroke:#0000ff;stroke-width:0.8;"/>
    <path clip-path="url(#p9d642a364a)" d="M 196.196436 377.483912 
L 196.196436 377.483912 
" style="fill:none;stroke:#0000ff;stroke-width:0.8;"/>
    <path clip-path="url(#p9d642a364a)" d="M 225.067723 377.535385 
L 225.067723 377.535385 
" style="fill:none;stroke:#0000ff;stroke-width:0.8;"/>
    <path clip-path="url(#p9d642a364a)" d="M 253.93901 375.751304 
L 253.93901 375.751304 
" style="fill:none;stroke:#0000ff;stroke-width:0.8;"/>
    <path clip-path="url(#p9d642a364a)" d="M 282.810297 377.592972 
L 282.810297 377.592972 
" style="fill:none;stroke:#0000ff;stroke-width:0.8;"/>
    <path clip-path="url(#p9d642a364a)" d="M 311.681584 376.577756 
L 311.681584 376.577756 
" style="fill:none;stroke:#0000ff;stroke-width:0.8;"/>
    <path clip-path="url(#p9d642a364a)" d="M 340.552871 375.9047 
L 340.552871 375.9047 
" style="fill:none;stroke:#0000ff;stroke-width:0.8;"/>
    <path clip-path="url(#p9d642a364a)" d="M 369.424158 376.645679 
L 369.424158 376.645679 
" style="fill:none;stroke:#0000ff;stroke-width:0.8;"/>
    <path clip-path="url(#p9d642a364a)" d="M 398.295446 377.301885 
L 398.295446 377.301885 
" style="fill:none;stroke:#0000ff;stroke-width:0.8;"/>
    <path clip-path="url(#p9d642a364a)" d="M 427.166733 377.761857 
L 427.166733 377.761857 
" style="fill:none;stroke:#0000ff;stroke-width:0.8;"/>
    <path clip-path="url(#p9d642a364a)" d="M 456.03802 376.409215 
L 456.03802 376.409215 
" style="fill:none;stroke:#0000ff;stroke-width:0.8;"/>
    <path clip-path="url(#p9d642a364a)" d="M 484.909307 376.239831 
L 484.909307 376.239831 
" style="fill:none;stroke:#0000ff;stroke-width:0.8;"/>
    <path clip-path="url(#p9d642a364a)" d="M 513.780594 376.612999 
L 513.780594 376.612999 
" style="fill:none;stroke:#0000ff;stroke-width:0.8;"/>
    <path clip-path="url(#p9d642a364a)" d="M 542.651881 376.616527 
L 542.651881 376.616527 
" style="fill:none;stroke:#0000ff;stroke-width:0.8;"/>
    <path clip-path="url(#p9d642a364a)" d="M 571.523168 375.500356 
L 571.523168 375.500356 
" style="fill:none;stroke:#0000ff;stroke-width:0.8;"/>
    <path clip-path="url(#p9d642a364a)" d="M 600.394455 375.472191 
L 600.394455 375.472191 
" style="fill:none;stroke:#0000ff;stroke-width:0.8;"/>
    <path clip-path="url(#p9d642a364a)" d="M 629.265743 374.738283 
L 629.265743 374.738283 
" style="fill:none;stroke:#0000ff;stroke-width:0.8;"/>
   </g>
   <g id="LineCollection_12">
    <path clip-path="url(#p9d642a364a)" d="M 80.711287 381.134338 
L 80.711287 371.372273 
" style="fill:none;stroke:#0000ff;stroke-width:0.8;"/>
    <path clip-path="url(#p9d642a364a)" d="M 109.582574 383.576326 
L 109.582574 371.419177 
" style="fill:none;stroke:#0000ff;stroke-width:0.8;"/>
    <path clip-path="url(#p9d642a364a)" d="M 138.453861 384.655491 
L 138.453861 367.875382 
" style="fill:none;stroke:#0000ff;stroke-width:0.8;"/>
    <path clip-path="url(#p9d642a364a)" d="M 167.325149 384.559745 
L 167.325149 371.297566 
" style="fill:none;stroke:#0000ff;stroke-width:0.8;"/>
    <path clip-path="url(#p9d642a364a)" d="M 196.196436 385.239894 
L 196.196436 369.727931 
" style="fill:none;stroke:#0000ff;stroke-width:0.8;"/>
    <path clip-path="url(#p9d642a364a)" d="M 225.067723 384.726222 
L 225.067723 370.344548 
" style="fill:none;stroke:#0000ff;stroke-width:0.8;"/>
    <path clip-path="url(#p9d642a364a)" d="M 253.93901 384.573404 
L 253.93901 366.929203 
" style="fill:none;stroke:#0000ff;stroke-width:0.8;"/>
    <path clip-path="url(#p9d642a364a)" d="M 282.810297 384.830682 
L 282.810297 370.355261 
" style="fill:none;stroke:#0000ff;stroke-width:0.8;"/>
    <path clip-path="url(#p9d642a364a)" d="M 311.681584 384.618552 
L 311.681584 368.53696 
" style="fill:none;stroke:#0000ff;stroke-width:0.8;"/>
    <path clip-path="url(#p9d642a364a)" d="M 340.552871 383.583661 
L 340.552871 368.22574 
" style="fill:none;stroke:#0000ff;stroke-width:0.8;"/>
    <path clip-path="url(#p9d642a364a)" d="M 369.424158 386.026771 
L 369.424158 367.264588 
" style="fill:none;stroke:#0000ff;stroke-width:0.8;"/>
    <path clip-path="url(#p9d642a364a)" d="M 398.295446 385.049441 
L 398.295446 369.554329 
" style="fill:none;stroke:#0000ff;stroke-width:0.8;"/>
    <path clip-path="url(#p9d642a364a)" d="M 427.166733 384.238945 
L 427.166733 371.284769 
" style="fill:none;stroke:#0000ff;stroke-width:0.8;"/>
    <path clip-path="url(#p9d642a364a)" d="M 456.03802 383.28651 
L 456.03802 369.531919 
" style="fill:none;stroke:#0000ff;stroke-width:0.8;"/>
    <path clip-path="url(#p9d642a364a)" d="M 484.909307 384.053769 
L 484.909307 368.425894 
" style="fill:none;stroke:#0000ff;stroke-width:0.8;"/>
    <path clip-path="url(#p9d642a364a)" d="M 513.780594 384.22495 
L 513.780594 369.001047 
" style="fill:none;stroke:#0000ff;stroke-width:0.8;"/>
    <path clip-path="url(#p9d642a364a)" d="M 542.651881 384.903862 
L 542.651881 368.329192 
" style="fill:none;stroke:#0000ff;stroke-width:0.8;"/>
    <path clip-path="url(#p9d642a364a)" d="M 571.523168 384.281805 
L 571.523168 366.718907 
" style="fill:none;stroke:#0000ff;stroke-width:0.8;"/>
    <path clip-path="url(#p9d642a364a)" d="M 600.394455 383.60999 
L 600.394455 367.334393 
" style="fill:none;stroke:#0000ff;stroke-width:0.8;"/>
    <path clip-path="url(#p9d642a364a)" d="M 629.265743 384.083714 
L 629.265743 365.392851 
" style="fill:none;stroke:#0000ff;stroke-width:0.8;"/>
   </g>
   <g id="line2d_27">
    <path clip-path="url(#p9d642a364a)" d="M 80.711287 377.706088 
L 109.582574 381.855087 
L 138.453861 382.478347 
L 167.325149 381.862485 
L 196.196436 382.140699 
L 225.067723 383.715636 
L 253.93901 382.429752 
L 282.810297 382.520384 
L 311.681584 381.00393 
L 340.552871 381.771282 
L 369.424158 381.413837 
L 398.295446 382.840032 
L 427.166733 384.485897 
L 456.03802 382.205697 
L 484.909307 380.874271 
L 513.780594 382.260373 
L 542.651881 383.173214 
L 571.523168 382.801673 
L 600.394455 383.334177 
L 629.265743 382.831246 
" style="fill:none;stroke:#000000;stroke-linecap:square;stroke-width:0.8;"/>
    <defs>
     <path d="M 0 3 
C 0.795609 3 1.55874 2.683901 2.12132 2.12132 
C 2.683901 1.55874 3 0.795609 3 0 
C 3 -0.795609 2.683901 -1.55874 2.12132 -2.12132 
C 1.55874 -2.683901 0.795609 -3 0 -3 
C -0.795609 -3 -1.55874 -2.683901 -2.12132 -2.12132 
C -2.683901 -1.55874 -3 -0.795609 -3 0 
C -3 0.795609 -2.683901 1.55874 -2.12132 2.12132 
C -1.55874 2.683901 -0.795609 3 0 3 
z
" id="mc4bc6dad9d" style="stroke:#000000;"/>
    </defs>
    <g clip-path="url(#p9d642a364a)">
     <use style="fill-opacity:0;stroke:#000000;" x="80.711287" xlink:href="#mc4bc6dad9d" y="377.706088"/>
     <use style="fill-opacity:0;stroke:#000000;" x="109.582574" xlink:href="#mc4bc6dad9d" y="381.855087"/>
     <use style="fill-opacity:0;stroke:#000000;" x="138.453861" xlink:href="#mc4bc6dad9d" y="382.478347"/>
     <use style="fill-opacity:0;stroke:#000000;" x="167.325149" xlink:href="#mc4bc6dad9d" y="381.862485"/>
     <use style="fill-opacity:0;stroke:#000000;" x="196.196436" xlink:href="#mc4bc6dad9d" y="382.140699"/>
     <use style="fill-opacity:0;stroke:#000000;" x="225.067723" xlink:href="#mc4bc6dad9d" y="383.715636"/>
     <use style="fill-opacity:0;stroke:#000000;" x="253.93901" xlink:href="#mc4bc6dad9d" y="382.429752"/>
     <use style="fill-opacity:0;stroke:#000000;" x="282.810297" xlink:href="#mc4bc6dad9d" y="382.520384"/>
     <use style="fill-opacity:0;stroke:#000000;" x="311.681584" xlink:href="#mc4bc6dad9d" y="381.00393"/>
     <use style="fill-opacity:0;stroke:#000000;" x="340.552871" xlink:href="#mc4bc6dad9d" y="381.771282"/>
     <use style="fill-opacity:0;stroke:#000000;" x="369.424158" xlink:href="#mc4bc6dad9d" y="381.413837"/>
     <use style="fill-opacity:0;stroke:#000000;" x="398.295446" xlink:href="#mc4bc6dad9d" y="382.840032"/>
     <use style="fill-opacity:0;stroke:#000000;" x="427.166733" xlink:href="#mc4bc6dad9d" y="384.485897"/>
     <use style="fill-opacity:0;stroke:#000000;" x="456.03802" xlink:href="#mc4bc6dad9d" y="382.205697"/>
     <use style="fill-opacity:0;stroke:#000000;" x="484.909307" xlink:href="#mc4bc6dad9d" y="380.874271"/>
     <use style="fill-opacity:0;stroke:#000000;" x="513.780594" xlink:href="#mc4bc6dad9d" y="382.260373"/>
     <use style="fill-opacity:0;stroke:#000000;" x="542.651881" xlink:href="#mc4bc6dad9d" y="383.173214"/>
     <use style="fill-opacity:0;stroke:#000000;" x="571.523168" xlink:href="#mc4bc6dad9d" y="382.801673"/>
     <use style="fill-opacity:0;stroke:#000000;" x="600.394455" xlink:href="#mc4bc6dad9d" y="383.334177"/>
     <use style="fill-opacity:0;stroke:#000000;" x="629.265743" xlink:href="#mc4bc6dad9d" y="382.831246"/>
    </g>
   </g>
   <g id="line2d_28">
    <path clip-path="url(#p9d642a364a)" d="M 80.711287 340.77531 
L 109.582574 335.19583 
L 138.453861 341.402129 
L 167.325149 338.425624 
L 196.196436 340.225447 
L 225.067723 335.636996 
L 253.93901 340.316344 
L 282.810297 337.732536 
L 311.681584 337.692101 
L 340.552871 341.634967 
L 369.424158 343.109958 
L 398.295446 332.756388 
L 427.166733 339.647583 
L 456.03802 336.412074 
L 484.909307 339.591885 
L 513.780594 335.248167 
L 542.651881 337.740565 
L 571.523168 340.076306 
L 600.394455 338.123719 
L 629.265743 335.392057 
" style="fill:none;stroke:#000000;stroke-linecap:square;stroke-width:0.8;"/>
    <defs>
     <path d="M -3 3 
L 3 3 
L 3 -3 
L -3 -3 
z
" id="m2ae033c090" style="stroke:#000000;stroke-linejoin:miter;"/>
    </defs>
    <g clip-path="url(#p9d642a364a)">
     <use style="fill-opacity:0;stroke:#000000;stroke-linejoin:miter;" x="80.711287" xlink:href="#m2ae033c090" y="340.77531"/>
     <use style="fill-opacity:0;stroke:#000000;stroke-linejoin:miter;" x="109.582574" xlink:href="#m2ae033c090" y="335.19583"/>
     <use style="fill-opacity:0;stroke:#000000;stroke-linejoin:miter;" x="138.453861" xlink:href="#m2ae033c090" y="341.402129"/>
     <use style="fill-opacity:0;stroke:#000000;stroke-linejoin:miter;" x="167.325149" xlink:href="#m2ae033c090" y="338.425624"/>
     <use style="fill-opacity:0;stroke:#000000;stroke-linejoin:miter;" x="196.196436" xlink:href="#m2ae033c090" y="340.225447"/>
     <use style="fill-opacity:0;stroke:#000000;stroke-linejoin:miter;" x="225.067723" xlink:href="#m2ae033c090" y="335.636996"/>
     <use style="fill-opacity:0;stroke:#000000;stroke-linejoin:miter;" x="253.93901" xlink:href="#m2ae033c090" y="340.316344"/>
     <use style="fill-opacity:0;stroke:#000000;stroke-linejoin:miter;" x="282.810297" xlink:href="#m2ae033c090" y="337.732536"/>
     <use style="fill-opacity:0;stroke:#000000;stroke-linejoin:miter;" x="311.681584" xlink:href="#m2ae033c090" y="337.692101"/>
     <use style="fill-opacity:0;stroke:#000000;stroke-linejoin:miter;" x="340.552871" xlink:href="#m2ae033c090" y="341.634967"/>
     <use style="fill-opacity:0;stroke:#000000;stroke-linejoin:miter;" x="369.424158" xlink:href="#m2ae033c090" y="343.109958"/>
     <use style="fill-opacity:0;stroke:#000000;stroke-linejoin:miter;" x="398.295446" xlink:href="#m2ae033c090" y="332.756388"/>
     <use style="fill-opacity:0;stroke:#000000;stroke-linejoin:miter;" x="427.166733" xlink:href="#m2ae033c090" y="339.647583"/>
     <use style="fill-opacity:0;stroke:#000000;stroke-linejoin:miter;" x="456.03802" xlink:href="#m2ae033c090" y="336.412074"/>
     <use style="fill-opacity:0;stroke:#000000;stroke-linejoin:miter;" x="484.909307" xlink:href="#m2ae033c090" y="339.591885"/>
     <use style="fill-opacity:0;stroke:#000000;stroke-linejoin:miter;" x="513.780594" xlink:href="#m2ae033c090" y="335.248167"/>
     <use style="fill-opacity:0;stroke:#000000;stroke-linejoin:miter;" x="542.651881" xlink:href="#m2ae033c090" y="337.740565"/>
     <use style="fill-opacity:0;stroke:#000000;stroke-linejoin:miter;" x="571.523168" xlink:href="#m2ae033c090" y="340.076306"/>
     <use style="fill-opacity:0;stroke:#000000;stroke-linejoin:miter;" x="600.394455" xlink:href="#m2ae033c090" y="338.123719"/>
     <use style="fill-opacity:0;stroke:#000000;stroke-linejoin:miter;" x="629.265743" xlink:href="#m2ae033c090" y="335.392057"/>
    </g>
   </g>
   <g id="line2d_29">
    <path clip-path="url(#p9d642a364a)" d="M 80.711287 216.607176 
L 109.582574 203.982426 
L 138.453861 200.078404 
L 167.325149 201.007961 
L 196.196436 203.699416 
L 225.067723 203.584732 
L 253.93901 205.064662 
L 282.810297 205.436453 
L 311.681584 203.54561 
L 340.552871 216.87645 
L 369.424158 211.994638 
L 398.295446 199.701352 
L 427.166733 199.066695 
L 456.03802 198.165333 
L 484.909307 205.879107 
L 513.780594 198.522932 
L 542.651881 207.559251 
L 571.523168 193.699037 
L 600.394455 203.751871 
L 629.265743 207.880412 
" style="fill:none;stroke:#000000;stroke-linecap:square;stroke-width:0.8;"/>
    <defs>
     <path d="M -3 3 
L 3 -3 
M -3 -3 
L 3 3 
" id="m98600a47d8" style="stroke:#000000;"/>
    </defs>
    <g clip-path="url(#p9d642a364a)">
     <use style="fill-opacity:0;stroke:#000000;" x="80.711287" xlink:href="#m98600a47d8" y="216.607176"/>
     <use style="fill-opacity:0;stroke:#000000;" x="109.582574" xlink:href="#m98600a47d8" y="203.982426"/>
     <use style="fill-opacity:0;stroke:#000000;" x="138.453861" xlink:href="#m98600a47d8" y="200.078404"/>
     <use style="fill-opacity:0;stroke:#000000;" x="167.325149" xlink:href="#m98600a47d8" y="201.007961"/>
     <use style="fill-opacity:0;stroke:#000000;" x="196.196436" xlink:href="#m98600a47d8" y="203.699416"/>
     <use style="fill-opacity:0;stroke:#000000;" x="225.067723" xlink:href="#m98600a47d8" y="203.584732"/>
     <use style="fill-opacity:0;stroke:#000000;" x="253.93901" xlink:href="#m98600a47d8" y="205.064662"/>
     <use style="fill-opacity:0;stroke:#000000;" x="282.810297" xlink:href="#m98600a47d8" y="205.436453"/>
     <use style="fill-opacity:0;stroke:#000000;" x="311.681584" xlink:href="#m98600a47d8" y="203.54561"/>
     <use style="fill-opacity:0;stroke:#000000;" x="340.552871" xlink:href="#m98600a47d8" y="216.87645"/>
     <use style="fill-opacity:0;stroke:#000000;" x="369.424158" xlink:href="#m98600a47d8" y="211.994638"/>
     <use style="fill-opacity:0;stroke:#000000;" x="398.295446" xlink:href="#m98600a47d8" y="199.701352"/>
     <use style="fill-opacity:0;stroke:#000000;" x="427.166733" xlink:href="#m98600a47d8" y="199.066695"/>
     <use style="fill-opacity:0;stroke:#000000;" x="456.03802" xlink:href="#m98600a47d8" y="198.165333"/>
     <use style="fill-opacity:0;stroke:#000000;" x="484.909307" xlink:href="#m98600a47d8" y="205.879107"/>
     <use style="fill-opacity:0;stroke:#000000;" x="513.780594" xlink:href="#m98600a47d8" y="198.522932"/>
     <use style="fill-opacity:0;stroke:#000000;" x="542.651881" xlink:href="#m98600a47d8" y="207.559251"/>
     <use style="fill-opacity:0;stroke:#000000;" x="571.523168" xlink:href="#m98600a47d8" y="193.699037"/>
     <use style="fill-opacity:0;stroke:#000000;" x="600.394455" xlink:href="#m98600a47d8" y="203.751871"/>
     <use style="fill-opacity:0;stroke:#000000;" x="629.265743" xlink:href="#m98600a47d8" y="207.880412"/>
    </g>
   </g>
   <g id="line2d_30">
    <path clip-path="url(#p9d642a364a)" d="M 80.711287 397.757019 
L 109.582574 398.64624 
L 138.453861 398.217653 
L 167.325149 398.628187 
L 196.196436 399.16429 
L 225.067723 398.184829 
L 253.93901 398.932465 
L 282.810297 398.929461 
L 311.681584 398.021487 
L 340.552871 398.24918 
L 369.424158 398.069099 
L 398.295446 398.117645 
L 427.166733 398.528192 
L 456.03802 398.422473 
L 484.909307 397.894183 
L 513.780594 398.148288 
L 542.651881 398.304733 
L 571.523168 398.397846 
L 600.394455 398.499584 
L 629.265743 398.315957 
" style="fill:none;stroke:#0000ff;stroke-linecap:square;stroke-width:0.8;"/>
    <defs>
     <path d="M 0 3 
C 0.795609 3 1.55874 2.683901 2.12132 2.12132 
C 2.683901 1.55874 3 0.795609 3 0 
C 3 -0.795609 2.683901 -1.55874 2.12132 -2.12132 
C 1.55874 -2.683901 0.795609 -3 0 -3 
C -0.795609 -3 -1.55874 -2.683901 -2.12132 -2.12132 
C -2.683901 -1.55874 -3 -0.795609 -3 0 
C -3 0.795609 -2.683901 1.55874 -2.12132 2.12132 
C -1.55874 2.683901 -0.795609 3 0 3 
z
" id="mbb3d6c3c67" style="stroke:#0000ff;"/>
    </defs>
    <g clip-path="url(#p9d642a364a)">
     <use style="fill-opacity:0;stroke:#0000ff;" x="80.711287" xlink:href="#mbb3d6c3c67" y="397.757019"/>
     <use style="fill-opacity:0;stroke:#0000ff;" x="109.582574" xlink:href="#mbb3d6c3c67" y="398.64624"/>
     <use style="fill-opacity:0;stroke:#0000ff;" x="138.453861" xlink:href="#mbb3d6c3c67" y="398.217653"/>
     <use style="fill-opacity:0;stroke:#0000ff;" x="167.325149" xlink:href="#mbb3d6c3c67" y="398.628187"/>
     <use style="fill-opacity:0;stroke:#0000ff;" x="196.196436" xlink:href="#mbb3d6c3c67" y="399.16429"/>
     <use style="fill-opacity:0;stroke:#0000ff;" x="225.067723" xlink:href="#mbb3d6c3c67" y="398.184829"/>
     <use style="fill-opacity:0;stroke:#0000ff;" x="253.93901" xlink:href="#mbb3d6c3c67" y="398.932465"/>
     <use style="fill-opacity:0;stroke:#0000ff;" x="282.810297" xlink:href="#mbb3d6c3c67" y="398.929461"/>
     <use style="fill-opacity:0;stroke:#0000ff;" x="311.681584" xlink:href="#mbb3d6c3c67" y="398.021487"/>
     <use style="fill-opacity:0;stroke:#0000ff;" x="340.552871" xlink:href="#mbb3d6c3c67" y="398.24918"/>
     <use style="fill-opacity:0;stroke:#0000ff;" x="369.424158" xlink:href="#mbb3d6c3c67" y="398.069099"/>
     <use style="fill-opacity:0;stroke:#0000ff;" x="398.295446" xlink:href="#mbb3d6c3c67" y="398.117645"/>
     <use style="fill-opacity:0;stroke:#0000ff;" x="427.166733" xlink:href="#mbb3d6c3c67" y="398.528192"/>
     <use style="fill-opacity:0;stroke:#0000ff;" x="456.03802" xlink:href="#mbb3d6c3c67" y="398.422473"/>
     <use style="fill-opacity:0;stroke:#0000ff;" x="484.909307" xlink:href="#mbb3d6c3c67" y="397.894183"/>
     <use style="fill-opacity:0;stroke:#0000ff;" x="513.780594" xlink:href="#mbb3d6c3c67" y="398.148288"/>
     <use style="fill-opacity:0;stroke:#0000ff;" x="542.651881" xlink:href="#mbb3d6c3c67" y="398.304733"/>
     <use style="fill-opacity:0;stroke:#0000ff;" x="571.523168" xlink:href="#mbb3d6c3c67" y="398.397846"/>
     <use style="fill-opacity:0;stroke:#0000ff;" x="600.394455" xlink:href="#mbb3d6c3c67" y="398.499584"/>
     <use style="fill-opacity:0;stroke:#0000ff;" x="629.265743" xlink:href="#mbb3d6c3c67" y="398.315957"/>
    </g>
   </g>
   <g id="line2d_31">
    <path clip-path="url(#p9d642a364a)" d="M 80.711287 392.184888 
L 109.582574 391.982574 
L 138.453861 391.554632 
L 167.325149 392.173672 
L 196.196436 392.853782 
L 225.067723 391.796447 
L 253.93901 392.276917 
L 282.810297 391.640463 
L 311.681584 392.008511 
L 340.552871 391.620328 
L 369.424158 391.346241 
L 398.295446 391.816669 
L 427.166733 391.640318 
L 456.03802 392.355692 
L 484.909307 391.816251 
L 513.780594 391.850602 
L 542.651881 392.680196 
L 571.523168 391.313912 
L 600.394455 392.430496 
L 629.265743 392.138991 
" style="fill:none;stroke:#0000ff;stroke-linecap:square;stroke-width:0.8;"/>
    <defs>
     <path d="M -3 3 
L 3 3 
L 3 -3 
L -3 -3 
z
" id="m226c86b292" style="stroke:#0000ff;stroke-linejoin:miter;"/>
    </defs>
    <g clip-path="url(#p9d642a364a)">
     <use style="fill-opacity:0;stroke:#0000ff;stroke-linejoin:miter;" x="80.711287" xlink:href="#m226c86b292" y="392.184888"/>
     <use style="fill-opacity:0;stroke:#0000ff;stroke-linejoin:miter;" x="109.582574" xlink:href="#m226c86b292" y="391.982574"/>
     <use style="fill-opacity:0;stroke:#0000ff;stroke-linejoin:miter;" x="138.453861" xlink:href="#m226c86b292" y="391.554632"/>
     <use style="fill-opacity:0;stroke:#0000ff;stroke-linejoin:miter;" x="167.325149" xlink:href="#m226c86b292" y="392.173672"/>
     <use style="fill-opacity:0;stroke:#0000ff;stroke-linejoin:miter;" x="196.196436" xlink:href="#m226c86b292" y="392.853782"/>
     <use style="fill-opacity:0;stroke:#0000ff;stroke-linejoin:miter;" x="225.067723" xlink:href="#m226c86b292" y="391.796447"/>
     <use style="fill-opacity:0;stroke:#0000ff;stroke-linejoin:miter;" x="253.93901" xlink:href="#m226c86b292" y="392.276917"/>
     <use style="fill-opacity:0;stroke:#0000ff;stroke-linejoin:miter;" x="282.810297" xlink:href="#m226c86b292" y="391.640463"/>
     <use style="fill-opacity:0;stroke:#0000ff;stroke-linejoin:miter;" x="311.681584" xlink:href="#m226c86b292" y="392.008511"/>
     <use style="fill-opacity:0;stroke:#0000ff;stroke-linejoin:miter;" x="340.552871" xlink:href="#m226c86b292" y="391.620328"/>
     <use style="fill-opacity:0;stroke:#0000ff;stroke-linejoin:miter;" x="369.424158" xlink:href="#m226c86b292" y="391.346241"/>
     <use style="fill-opacity:0;stroke:#0000ff;stroke-linejoin:miter;" x="398.295446" xlink:href="#m226c86b292" y="391.816669"/>
     <use style="fill-opacity:0;stroke:#0000ff;stroke-linejoin:miter;" x="427.166733" xlink:href="#m226c86b292" y="391.640318"/>
     <use style="fill-opacity:0;stroke:#0000ff;stroke-linejoin:miter;" x="456.03802" xlink:href="#m226c86b292" y="392.355692"/>
     <use style="fill-opacity:0;stroke:#0000ff;stroke-linejoin:miter;" x="484.909307" xlink:href="#m226c86b292" y="391.816251"/>
     <use style="fill-opacity:0;stroke:#0000ff;stroke-linejoin:miter;" x="513.780594" xlink:href="#m226c86b292" y="391.850602"/>
     <use style="fill-opacity:0;stroke:#0000ff;stroke-linejoin:miter;" x="542.651881" xlink:href="#m226c86b292" y="392.680196"/>
     <use style="fill-opacity:0;stroke:#0000ff;stroke-linejoin:miter;" x="571.523168" xlink:href="#m226c86b292" y="391.313912"/>
     <use style="fill-opacity:0;stroke:#0000ff;stroke-linejoin:miter;" x="600.394455" xlink:href="#m226c86b292" y="392.430496"/>
     <use style="fill-opacity:0;stroke:#0000ff;stroke-linejoin:miter;" x="629.265743" xlink:href="#m226c86b292" y="392.138991"/>
    </g>
   </g>
   <g id="line2d_32">
    <path clip-path="url(#p9d642a364a)" d="M 80.711287 376.253306 
L 109.582574 377.497751 
L 138.453861 376.265437 
L 167.325149 377.928655 
L 196.196436 377.483912 
L 225.067723 377.535385 
L 253.93901 375.751304 
L 282.810297 377.592972 
L 311.681584 376.577756 
L 340.552871 375.9047 
L 369.424158 376.645679 
L 398.295446 377.301885 
L 427.166733 377.761857 
L 456.03802 376.409215 
L 484.909307 376.239831 
L 513.780594 376.612999 
L 542.651881 376.616527 
L 571.523168 375.500356 
L 600.394455 375.472191 
L 629.265743 374.738283 
" style="fill:none;stroke:#0000ff;stroke-linecap:square;stroke-width:0.8;"/>
    <defs>
     <path d="M -3 3 
L 3 -3 
M -3 -3 
L 3 3 
" id="mc78e3b2893" style="stroke:#0000ff;"/>
    </defs>
    <g clip-path="url(#p9d642a364a)">
     <use style="fill-opacity:0;stroke:#0000ff;" x="80.711287" xlink:href="#mc78e3b2893" y="376.253306"/>
     <use style="fill-opacity:0;stroke:#0000ff;" x="109.582574" xlink:href="#mc78e3b2893" y="377.497751"/>
     <use style="fill-opacity:0;stroke:#0000ff;" x="138.453861" xlink:href="#mc78e3b2893" y="376.265437"/>
     <use style="fill-opacity:0;stroke:#0000ff;" x="167.325149" xlink:href="#mc78e3b2893" y="377.928655"/>
     <use style="fill-opacity:0;stroke:#0000ff;" x="196.196436" xlink:href="#mc78e3b2893" y="377.483912"/>
     <use style="fill-opacity:0;stroke:#0000ff;" x="225.067723" xlink:href="#mc78e3b2893" y="377.535385"/>
     <use style="fill-opacity:0;stroke:#0000ff;" x="253.93901" xlink:href="#mc78e3b2893" y="375.751304"/>
     <use style="fill-opacity:0;stroke:#0000ff;" x="282.810297" xlink:href="#mc78e3b2893" y="377.592972"/>
     <use style="fill-opacity:0;stroke:#0000ff;" x="311.681584" xlink:href="#mc78e3b2893" y="376.577756"/>
     <use style="fill-opacity:0;stroke:#0000ff;" x="340.552871" xlink:href="#mc78e3b2893" y="375.9047"/>
     <use style="fill-opacity:0;stroke:#0000ff;" x="369.424158" xlink:href="#mc78e3b2893" y="376.645679"/>
     <use style="fill-opacity:0;stroke:#0000ff;" x="398.295446" xlink:href="#mc78e3b2893" y="377.301885"/>
     <use style="fill-opacity:0;stroke:#0000ff;" x="427.166733" xlink:href="#mc78e3b2893" y="377.761857"/>
     <use style="fill-opacity:0;stroke:#0000ff;" x="456.03802" xlink:href="#mc78e3b2893" y="376.409215"/>
     <use style="fill-opacity:0;stroke:#0000ff;" x="484.909307" xlink:href="#mc78e3b2893" y="376.239831"/>
     <use style="fill-opacity:0;stroke:#0000ff;" x="513.780594" xlink:href="#mc78e3b2893" y="376.612999"/>
     <use style="fill-opacity:0;stroke:#0000ff;" x="542.651881" xlink:href="#mc78e3b2893" y="376.616527"/>
     <use style="fill-opacity:0;stroke:#0000ff;" x="571.523168" xlink:href="#mc78e3b2893" y="375.500356"/>
     <use style="fill-opacity:0;stroke:#0000ff;" x="600.394455" xlink:href="#mc78e3b2893" y="375.472191"/>
     <use style="fill-opacity:0;stroke:#0000ff;" x="629.265743" xlink:href="#mc78e3b2893" y="374.738283"/>
    </g>
   </g>
   <g id="line2d_33">
    <path clip-path="url(#p9d642a364a)" d="M 80.711287 377.706088 
L 109.582574 381.855087 
L 138.453861 382.478347 
L 167.325149 381.862485 
L 196.196436 382.140699 
L 225.067723 383.715636 
L 253.93901 382.429752 
L 282.810297 382.520384 
L 311.681584 381.00393 
L 340.552871 381.771282 
L 369.424158 381.413837 
L 398.295446 382.840032 
L 427.166733 384.485897 
L 456.03802 382.205697 
L 484.909307 380.874271 
L 513.780594 382.260373 
L 542.651881 383.173214 
L 571.523168 382.801673 
L 600.394455 383.334177 
L 629.265743 382.831246 
" style="fill:none;stroke:#000000;stroke-linecap:square;stroke-width:0.8;"/>
   </g>
   <g id="line2d_34">
    <path clip-path="url(#p9d642a364a)" d="M 80.711287 340.77531 
L 109.582574 335.19583 
L 138.453861 341.402129 
L 167.325149 338.425624 
L 196.196436 340.225447 
L 225.067723 335.636996 
L 253.93901 340.316344 
L 282.810297 337.732536 
L 311.681584 337.692101 
L 340.552871 341.634967 
L 369.424158 343.109958 
L 398.295446 332.756388 
L 427.166733 339.647583 
L 456.03802 336.412074 
L 484.909307 339.591885 
L 513.780594 335.248167 
L 542.651881 337.740565 
L 571.523168 340.076306 
L 600.394455 338.123719 
L 629.265743 335.392057 
" style="fill:none;stroke:#000000;stroke-linecap:square;stroke-width:0.8;"/>
   </g>
   <g id="line2d_35">
    <path clip-path="url(#p9d642a364a)" d="M 80.711287 216.607176 
L 109.582574 203.982426 
L 138.453861 200.078404 
L 167.325149 201.007961 
L 196.196436 203.699416 
L 225.067723 203.584732 
L 253.93901 205.064662 
L 282.810297 205.436453 
L 311.681584 203.54561 
L 340.552871 216.87645 
L 369.424158 211.994638 
L 398.295446 199.701352 
L 427.166733 199.066695 
L 456.03802 198.165333 
L 484.909307 205.879107 
L 513.780594 198.522932 
L 542.651881 207.559251 
L 571.523168 193.699037 
L 600.394455 203.751871 
L 629.265743 207.880412 
" style="fill:none;stroke:#000000;stroke-linecap:square;stroke-width:0.8;"/>
   </g>
   <g id="line2d_36">
    <path clip-path="url(#p9d642a364a)" d="M 80.711287 397.757019 
L 109.582574 398.64624 
L 138.453861 398.217653 
L 167.325149 398.628187 
L 196.196436 399.16429 
L 225.067723 398.184829 
L 253.93901 398.932465 
L 282.810297 398.929461 
L 311.681584 398.021487 
L 340.552871 398.24918 
L 369.424158 398.069099 
L 398.295446 398.117645 
L 427.166733 398.528192 
L 456.03802 398.422473 
L 484.909307 397.894183 
L 513.780594 398.148288 
L 542.651881 398.304733 
L 571.523168 398.397846 
L 600.394455 398.499584 
L 629.265743 398.315957 
" style="fill:none;stroke:#0000ff;stroke-linecap:square;stroke-width:0.8;"/>
   </g>
   <g id="line2d_37">
    <path clip-path="url(#p9d642a364a)" d="M 80.711287 392.184888 
L 109.582574 391.982574 
L 138.453861 391.554632 
L 167.325149 392.173672 
L 196.196436 392.853782 
L 225.067723 391.796447 
L 253.93901 392.276917 
L 282.810297 391.640463 
L 311.681584 392.008511 
L 340.552871 391.620328 
L 369.424158 391.346241 
L 398.295446 391.816669 
L 427.166733 391.640318 
L 456.03802 392.355692 
L 484.909307 391.816251 
L 513.780594 391.850602 
L 542.651881 392.680196 
L 571.523168 391.313912 
L 600.394455 392.430496 
L 629.265743 392.138991 
" style="fill:none;stroke:#0000ff;stroke-linecap:square;stroke-width:0.8;"/>
   </g>
   <g id="line2d_38">
    <path clip-path="url(#p9d642a364a)" d="M 80.711287 376.253306 
L 109.582574 377.497751 
L 138.453861 376.265437 
L 167.325149 377.928655 
L 196.196436 377.483912 
L 225.067723 377.535385 
L 253.93901 375.751304 
L 282.810297 377.592972 
L 311.681584 376.577756 
L 340.552871 375.9047 
L 369.424158 376.645679 
L 398.295446 377.301885 
L 427.166733 377.761857 
L 456.03802 376.409215 
L 484.909307 376.239831 
L 513.780594 376.612999 
L 542.651881 376.616527 
L 571.523168 375.500356 
L 600.394455 375.472191 
L 629.265743 374.738283 
" style="fill:none;stroke:#0000ff;stroke-linecap:square;stroke-width:0.8;"/>
   </g>
   <g id="patch_3">
    <path d="M 51.84 401.76 
L 51.84 4.32 
" style="fill:none;stroke:#000000;stroke-linecap:square;stroke-linejoin:miter;stroke-width:0.8;"/>
   </g>
   <g id="patch_4">
    <path d="M 635.04 401.76 
L 635.04 4.32 
" style="fill:none;stroke:#000000;stroke-linecap:square;stroke-linejoin:miter;stroke-width:0.8;"/>
   </g>
   <g id="patch_5">
    <path d="M 51.84 401.76 
L 635.04 401.76 
" style="fill:none;stroke:#000000;stroke-linecap:square;stroke-linejoin:miter;stroke-width:0.8;"/>
   </g>
   <g id="patch_6">
    <path d="M 51.84 4.32 
L 635.04 4.32 
" style="fill:none;stroke:#000000;stroke-linecap:square;stroke-linejoin:miter;stroke-width:0.8;"/>
   </g>
   <g id="legend_1">
    <g id="patch_7">
     <path d="M 58.84 56.354375 
L 303.482188 56.354375 
Q 305.482188 56.354375 305.482188 54.354375 
L 305.482188 11.32 
Q 305.482188 9.32 303.482188 9.32 
L 58.84 9.32 
Q 56.84 9.32 56.84 11.32 
L 56.84 54.354375 
Q 56.84 56.354375 58.84 56.354375 
z
" style="fill:#ffffff;opacity:0.8;stroke:#cccccc;stroke-linejoin:miter;"/>
    </g>
    <g id="line2d_39">
     <path d="M 60.84 17.418437 
L 80.84 17.418437 
" style="fill:none;stroke:#000000;stroke-linecap:square;stroke-width:0.8;"/>
    </g>
    <g id="line2d_40">
     <g>
      <use style="fill-opacity:0;stroke:#000000;" x="70.84" xlink:href="#mc4bc6dad9d" y="17.418437"/>
     </g>
    </g>
    <g id="text_16">
     <!-- FastICA n=4 -->
     <defs>
      <path d="M 9.8125 72.90625 
L 51.703125 72.90625 
L 51.703125 64.59375 
L 19.671875 64.59375 
L 19.671875 43.109375 
L 48.578125 43.109375 
L 48.578125 34.8125 
L 19.671875 34.8125 
L 19.671875 0 
L 9.8125 0 
z
" id="DejaVuSans-70"/>
      <path d="M 34.28125 27.484375 
Q 23.390625 27.484375 19.1875 25 
Q 14.984375 22.515625 14.984375 16.5 
Q 14.984375 11.71875 18.140625 8.90625 
Q 21.296875 6.109375 26.703125 6.109375 
Q 34.1875 6.109375 38.703125 11.40625 
Q 43.21875 16.703125 43.21875 25.484375 
L 43.21875 27.484375 
z
M 52.203125 31.203125 
L 52.203125 0 
L 43.21875 0 
L 43.21875 8.296875 
Q 40.140625 3.328125 35.546875 0.953125 
Q 30.953125 -1.421875 24.3125 -1.421875 
Q 15.921875 -1.421875 10.953125 3.296875 
Q 6 8.015625 6 15.921875 
Q 6 25.140625 12.171875 29.828125 
Q 18.359375 34.515625 30.609375 34.515625 
L 43.21875 34.515625 
L 43.21875 35.40625 
Q 43.21875 41.609375 39.140625 45 
Q 35.0625 48.390625 27.6875 48.390625 
Q 23 48.390625 18.546875 47.265625 
Q 14.109375 46.140625 10.015625 43.890625 
L 10.015625 52.203125 
Q 14.9375 54.109375 19.578125 55.046875 
Q 24.21875 56 28.609375 56 
Q 40.484375 56 46.34375 49.84375 
Q 52.203125 43.703125 52.203125 31.203125 
z
" id="DejaVuSans-97"/>
      <path d="M 44.28125 53.078125 
L 44.28125 44.578125 
Q 40.484375 46.53125 36.375 47.5 
Q 32.28125 48.484375 27.875 48.484375 
Q 21.1875 48.484375 17.84375 46.4375 
Q 14.5 44.390625 14.5 40.28125 
Q 14.5 37.15625 16.890625 35.375 
Q 19.28125 33.59375 26.515625 31.984375 
L 29.59375 31.296875 
Q 39.15625 29.25 43.1875 25.515625 
Q 47.21875 21.78125 47.21875 15.09375 
Q 47.21875 7.46875 41.1875 3.015625 
Q 35.15625 -1.421875 24.609375 -1.421875 
Q 20.21875 -1.421875 15.453125 -0.5625 
Q 10.6875 0.296875 5.421875 2 
L 5.421875 11.28125 
Q 10.40625 8.6875 15.234375 7.390625 
Q 20.0625 6.109375 24.8125 6.109375 
Q 31.15625 6.109375 34.5625 8.28125 
Q 37.984375 10.453125 37.984375 14.40625 
Q 37.984375 18.0625 35.515625 20.015625 
Q 33.0625 21.96875 24.703125 23.78125 
L 21.578125 24.515625 
Q 13.234375 26.265625 9.515625 29.90625 
Q 5.8125 33.546875 5.8125 39.890625 
Q 5.8125 47.609375 11.28125 51.796875 
Q 16.75 56 26.8125 56 
Q 31.78125 56 36.171875 55.265625 
Q 40.578125 54.546875 44.28125 53.078125 
z
" id="DejaVuSans-115"/>
      <path d="M 18.3125 70.21875 
L 18.3125 54.6875 
L 36.8125 54.6875 
L 36.8125 47.703125 
L 18.3125 47.703125 
L 18.3125 18.015625 
Q 18.3125 11.328125 20.140625 9.421875 
Q 21.96875 7.515625 27.59375 7.515625 
L 36.8125 7.515625 
L 36.8125 0 
L 27.59375 0 
Q 17.1875 0 13.234375 3.875 
Q 9.28125 7.765625 9.28125 18.015625 
L 9.28125 47.703125 
L 2.6875 47.703125 
L 2.6875 54.6875 
L 9.28125 54.6875 
L 9.28125 70.21875 
z
" id="DejaVuSans-116"/>
      <path d="M 9.8125 72.90625 
L 19.671875 72.90625 
L 19.671875 0 
L 9.8125 0 
z
" id="DejaVuSans-73"/>
      <path d="M 64.40625 67.28125 
L 64.40625 56.890625 
Q 59.421875 61.53125 53.78125 63.8125 
Q 48.140625 66.109375 41.796875 66.109375 
Q 29.296875 66.109375 22.65625 58.46875 
Q 16.015625 50.828125 16.015625 36.375 
Q 16.015625 21.96875 22.65625 14.328125 
Q 29.296875 6.6875 41.796875 6.6875 
Q 48.140625 6.6875 53.78125 8.984375 
Q 59.421875 11.28125 64.40625 15.921875 
L 64.40625 5.609375 
Q 59.234375 2.09375 53.4375 0.328125 
Q 47.65625 -1.421875 41.21875 -1.421875 
Q 24.65625 -1.421875 15.125 8.703125 
Q 5.609375 18.84375 5.609375 36.375 
Q 5.609375 53.953125 15.125 64.078125 
Q 24.65625 74.21875 41.21875 74.21875 
Q 47.75 74.21875 53.53125 72.484375 
Q 59.328125 70.75 64.40625 67.28125 
z
" id="DejaVuSans-67"/>
      <path d="M 34.1875 63.1875 
L 20.796875 26.90625 
L 47.609375 26.90625 
z
M 28.609375 72.90625 
L 39.796875 72.90625 
L 67.578125 0 
L 57.328125 0 
L 50.6875 18.703125 
L 17.828125 18.703125 
L 11.1875 0 
L 0.78125 0 
z
" id="DejaVuSans-65"/>
      <path id="DejaVuSans-32"/>
      <path d="M 54.890625 33.015625 
L 54.890625 0 
L 45.90625 0 
L 45.90625 32.71875 
Q 45.90625 40.484375 42.875 44.328125 
Q 39.84375 48.1875 33.796875 48.1875 
Q 26.515625 48.1875 22.3125 43.546875 
Q 18.109375 38.921875 18.109375 30.90625 
L 18.109375 0 
L 9.078125 0 
L 9.078125 54.6875 
L 18.109375 54.6875 
L 18.109375 46.1875 
Q 21.34375 51.125 25.703125 53.5625 
Q 30.078125 56 35.796875 56 
Q 45.21875 56 50.046875 50.171875 
Q 54.890625 44.34375 54.890625 33.015625 
z
" id="DejaVuSans-110"/>
      <path d="M 10.59375 45.40625 
L 73.1875 45.40625 
L 73.1875 37.203125 
L 10.59375 37.203125 
z
M 10.59375 25.484375 
L 73.1875 25.484375 
L 73.1875 17.1875 
L 10.59375 17.1875 
z
" id="DejaVuSans-61"/>
     </defs>
     <g transform="translate(88.84 20.918437)scale(0.1 -0.1)">
      <use xlink:href="#DejaVuSans-70"/>
      <use x="57.378906" xlink:href="#DejaVuSans-97"/>
      <use x="118.658203" xlink:href="#DejaVuSans-115"/>
      <use x="170.757812" xlink:href="#DejaVuSans-116"/>
      <use x="209.966797" xlink:href="#DejaVuSans-73"/>
      <use x="239.458984" xlink:href="#DejaVuSans-67"/>
      <use x="309.283203" xlink:href="#DejaVuSans-65"/>
      <use x="377.691406" xlink:href="#DejaVuSans-32"/>
      <use x="409.478516" xlink:href="#DejaVuSans-110"/>
      <use x="472.857422" xlink:href="#DejaVuSans-61"/>
      <use x="556.646484" xlink:href="#DejaVuSans-52"/>
     </g>
    </g>
    <g id="line2d_41">
     <path d="M 60.84 32.096563 
L 80.84 32.096563 
" style="fill:none;stroke:#000000;stroke-linecap:square;stroke-width:0.8;"/>
    </g>
    <g id="line2d_42">
     <g>
      <use style="fill-opacity:0;stroke:#000000;stroke-linejoin:miter;" x="70.84" xlink:href="#m2ae033c090" y="32.096563"/>
     </g>
    </g>
    <g id="text_17">
     <!-- FastICA n=8 -->
     <g transform="translate(88.84 35.596563)scale(0.1 -0.1)">
      <use xlink:href="#DejaVuSans-70"/>
      <use x="57.378906" xlink:href="#DejaVuSans-97"/>
      <use x="118.658203" xlink:href="#DejaVuSans-115"/>
      <use x="170.757812" xlink:href="#DejaVuSans-116"/>
      <use x="209.966797" xlink:href="#DejaVuSans-73"/>
      <use x="239.458984" xlink:href="#DejaVuSans-67"/>
      <use x="309.283203" xlink:href="#DejaVuSans-65"/>
      <use x="377.691406" xlink:href="#DejaVuSans-32"/>
      <use x="409.478516" xlink:href="#DejaVuSans-110"/>
      <use x="472.857422" xlink:href="#DejaVuSans-61"/>
      <use x="556.646484" xlink:href="#DejaVuSans-56"/>
     </g>
    </g>
    <g id="line2d_43">
     <path d="M 60.84 46.774687 
L 80.84 46.774687 
" style="fill:none;stroke:#000000;stroke-linecap:square;stroke-width:0.8;"/>
    </g>
    <g id="line2d_44">
     <g>
      <use style="fill-opacity:0;stroke:#000000;" x="70.84" xlink:href="#m98600a47d8" y="46.774687"/>
     </g>
    </g>
    <g id="text_18">
     <!-- FastICA n=16 -->
     <g transform="translate(88.84 50.274687)scale(0.1 -0.1)">
      <use xlink:href="#DejaVuSans-70"/>
      <use x="57.378906" xlink:href="#DejaVuSans-97"/>
      <use x="118.658203" xlink:href="#DejaVuSans-115"/>
      <use x="170.757812" xlink:href="#DejaVuSans-116"/>
      <use x="209.966797" xlink:href="#DejaVuSans-73"/>
      <use x="239.458984" xlink:href="#DejaVuSans-67"/>
      <use x="309.283203" xlink:href="#DejaVuSans-65"/>
      <use x="377.691406" xlink:href="#DejaVuSans-32"/>
      <use x="409.478516" xlink:href="#DejaVuSans-110"/>
      <use x="472.857422" xlink:href="#DejaVuSans-61"/>
      <use x="556.646484" xlink:href="#DejaVuSans-49"/>
      <use x="620.269531" xlink:href="#DejaVuSans-54"/>
     </g>
    </g>
    <g id="line2d_45">
     <path d="M 177.229062 17.418437 
L 197.229062 17.418437 
" style="fill:none;stroke:#0000ff;stroke-linecap:square;stroke-width:0.8;"/>
    </g>
    <g id="line2d_46">
     <g>
      <use style="fill-opacity:0;stroke:#0000ff;" x="187.229062" xlink:href="#mbb3d6c3c67" y="17.418437"/>
     </g>
    </g>
    <g id="text_19">
     <!-- Ultra-FastICA n=4 -->
     <defs>
      <path d="M 8.6875 72.90625 
L 18.609375 72.90625 
L 18.609375 28.609375 
Q 18.609375 16.890625 22.84375 11.734375 
Q 27.09375 6.59375 36.625 6.59375 
Q 46.09375 6.59375 50.34375 11.734375 
Q 54.59375 16.890625 54.59375 28.609375 
L 54.59375 72.90625 
L 64.5 72.90625 
L 64.5 27.390625 
Q 64.5 13.140625 57.4375 5.859375 
Q 50.390625 -1.421875 36.625 -1.421875 
Q 22.796875 -1.421875 15.734375 5.859375 
Q 8.6875 13.140625 8.6875 27.390625 
z
" id="DejaVuSans-85"/>
      <path d="M 9.421875 75.984375 
L 18.40625 75.984375 
L 18.40625 0 
L 9.421875 0 
z
" id="DejaVuSans-108"/>
      <path d="M 41.109375 46.296875 
Q 39.59375 47.171875 37.8125 47.578125 
Q 36.03125 48 33.890625 48 
Q 26.265625 48 22.1875 43.046875 
Q 18.109375 38.09375 18.109375 28.8125 
L 18.109375 0 
L 9.078125 0 
L 9.078125 54.6875 
L 18.109375 54.6875 
L 18.109375 46.1875 
Q 20.953125 51.171875 25.484375 53.578125 
Q 30.03125 56 36.53125 56 
Q 37.453125 56 38.578125 55.875 
Q 39.703125 55.765625 41.0625 55.515625 
z
" id="DejaVuSans-114"/>
      <path d="M 4.890625 31.390625 
L 31.203125 31.390625 
L 31.203125 23.390625 
L 4.890625 23.390625 
z
" id="DejaVuSans-45"/>
     </defs>
     <g transform="translate(205.229062 20.918437)scale(0.1 -0.1)">
      <use xlink:href="#DejaVuSans-85"/>
      <use x="73.193359" xlink:href="#DejaVuSans-108"/>
      <use x="100.976562" xlink:href="#DejaVuSans-116"/>
      <use x="140.185547" xlink:href="#DejaVuSans-114"/>
      <use x="181.298828" xlink:href="#DejaVuSans-97"/>
      <use x="242.578125" xlink:href="#DejaVuSans-45"/>
      <use x="278.662109" xlink:href="#DejaVuSans-70"/>
      <use x="336.041016" xlink:href="#DejaVuSans-97"/>
      <use x="397.320312" xlink:href="#DejaVuSans-115"/>
      <use x="449.419922" xlink:href="#DejaVuSans-116"/>
      <use x="488.628906" xlink:href="#DejaVuSans-73"/>
      <use x="518.121094" xlink:href="#DejaVuSans-67"/>
      <use x="587.945312" xlink:href="#DejaVuSans-65"/>
      <use x="656.353516" xlink:href="#DejaVuSans-32"/>
      <use x="688.140625" xlink:href="#DejaVuSans-110"/>
      <use x="751.519531" xlink:href="#DejaVuSans-61"/>
      <use x="835.308594" xlink:href="#DejaVuSans-52"/>
     </g>
    </g>
    <g id="line2d_47">
     <path d="M 177.229062 32.096563 
L 197.229062 32.096563 
" style="fill:none;stroke:#0000ff;stroke-linecap:square;stroke-width:0.8;"/>
    </g>
    <g id="line2d_48">
     <g>
      <use style="fill-opacity:0;stroke:#0000ff;stroke-linejoin:miter;" x="187.229062" xlink:href="#m226c86b292" y="32.096563"/>
     </g>
    </g>
    <g id="text_20">
     <!-- Ultra-FastICA n=8 -->
     <g transform="translate(205.229062 35.596563)scale(0.1 -0.1)">
      <use xlink:href="#DejaVuSans-85"/>
      <use x="73.193359" xlink:href="#DejaVuSans-108"/>
      <use x="100.976562" xlink:href="#DejaVuSans-116"/>
      <use x="140.185547" xlink:href="#DejaVuSans-114"/>
      <use x="181.298828" xlink:href="#DejaVuSans-97"/>
      <use x="242.578125" xlink:href="#DejaVuSans-45"/>
      <use x="278.662109" xlink:href="#DejaVuSans-70"/>
      <use x="336.041016" xlink:href="#DejaVuSans-97"/>
      <use x="397.320312" xlink:href="#DejaVuSans-115"/>
      <use x="449.419922" xlink:href="#DejaVuSans-116"/>
      <use x="488.628906" xlink:href="#DejaVuSans-73"/>
      <use x="518.121094" xlink:href="#DejaVuSans-67"/>
      <use x="587.945312" xlink:href="#DejaVuSans-65"/>
      <use x="656.353516" xlink:href="#DejaVuSans-32"/>
      <use x="688.140625" xlink:href="#DejaVuSans-110"/>
      <use x="751.519531" xlink:href="#DejaVuSans-61"/>
      <use x="835.308594" xlink:href="#DejaVuSans-56"/>
     </g>
    </g>
    <g id="line2d_49">
     <path d="M 177.229062 46.774687 
L 197.229062 46.774687 
" style="fill:none;stroke:#0000ff;stroke-linecap:square;stroke-width:0.8;"/>
    </g>
    <g id="line2d_50">
     <g>
      <use style="fill-opacity:0;stroke:#0000ff;" x="187.229062" xlink:href="#mc78e3b2893" y="46.774687"/>
     </g>
    </g>
    <g id="text_21">
     <!-- Ultra-FastICA n=16 -->
     <g transform="translate(205.229062 50.274687)scale(0.1 -0.1)">
      <use xlink:href="#DejaVuSans-85"/>
      <use x="73.193359" xlink:href="#DejaVuSans-108"/>
      <use x="100.976562" xlink:href="#DejaVuSans-116"/>
      <use x="140.185547" xlink:href="#DejaVuSans-114"/>
      <use x="181.298828" xlink:href="#DejaVuSans-97"/>
      <use x="242.578125" xlink:href="#DejaVuSans-45"/>
      <use x="278.662109" xlink:href="#DejaVuSans-70"/>
      <use x="336.041016" xlink:href="#DejaVuSans-97"/>
      <use x="397.320312" xlink:href="#DejaVuSans-115"/>
      <use x="449.419922" xlink:href="#DejaVuSans-116"/>
      <use x="488.628906" xlink:href="#DejaVuSans-73"/>
      <use x="518.121094" xlink:href="#DejaVuSans-67"/>
      <use x="587.945312" xlink:href="#DejaVuSans-65"/>
      <use x="656.353516" xlink:href="#DejaVuSans-32"/>
      <use x="688.140625" xlink:href="#DejaVuSans-110"/>
      <use x="751.519531" xlink:href="#DejaVuSans-61"/>
      <use x="835.308594" xlink:href="#DejaVuSans-49"/>
      <use x="898.931641" xlink:href="#DejaVuSans-54"/>
     </g>
    </g>
   </g>
  </g>
 </g>
 <defs>
  <clipPath id="p9d642a364a">
   <rect height="397.44" width="583.2" x="51.84" y="4.32"/>
  </clipPath>
 </defs>
</svg>
